<?xml version="1.0" encoding="utf-8"?>
<!-- Generator: Adobe Illustrator 25.2.1, SVG Export Plug-In . SVG Version: 6.00 Build 0)  -->
<svg version="1.1" id="Layer_1" xmlns="http://www.w3.org/2000/svg" xmlns:xlink="http://www.w3.org/1999/xlink" x="0px" y="0px"
	 viewBox="0 0 500 500" style="enable-background:new 0 0 500 500;" xml:space="preserve">
<style type="text/css">
	.st0{fill:url(#SVGID_1_);}
	.st1{fill:url(#SVGID_2_);}
	.st2{fill:url(#SVGID_3_);}
	.st3{fill:url(#SVGID_4_);}
	.st4{fill:url(#SVGID_5_);}
	.st5{fill:url(#SVGID_6_);}
	.st6{fill:url(#SVGID_7_);}
	.st7{fill:url(#SVGID_8_);}
	.st8{fill:url(#SVGID_9_);}
	.st9{fill:url(#SVGID_10_);}
	.st10{fill:url(#SVGID_11_);}
	.st11{fill:#8603ED;}
	.st12{fill:url(#SVGID_12_);}
	.st13{fill:#AA2BFC;}
	.st14{fill:#EAF7F9;}
	.st15{fill:url(#SVGID_13_);}
	.st16{fill:url(#SVGID_14_);}
	.st17{fill:url(#SVGID_15_);}
	.st18{fill:#45391D;}
	.st19{fill:#002822;}
	.st20{fill:url(#SVGID_16_);}
	.st21{fill:url(#SVGID_17_);}
	.st22{fill:url(#SVGID_18_);}
	.st23{fill:url(#SVGID_19_);}
	.st24{fill:url(#SVGID_20_);}
	.st25{fill:url(#SVGID_21_);}
	.st26{fill:#FFFFFF;}
</style>
<g>
	<linearGradient id="SVGID_1_" gradientUnits="userSpaceOnUse" x1="48.2948" y1="230.894" x2="180.9046" y2="230.894">
		<stop  offset="0" style="stop-color:#BBD9FF"/>
		<stop  offset="4.906875e-02" style="stop-color:#BDD2FD"/>
		<stop  offset="0.2192" style="stop-color:#C4BDF9"/>
		<stop  offset="0.4107" style="stop-color:#C8AEF5"/>
		<stop  offset="0.639" style="stop-color:#CBA6F4"/>
		<stop  offset="1" style="stop-color:#CCA3F3"/>
	</linearGradient>
	<path class="st0" d="M48.3,200.1c0-17,11.9-30.8,29.4-30.8c17.4,0,29.1,13.6,29.1,30.8c0,16.9-11.9,30.8-29.4,30.8
		C60,230.9,48.3,217.3,48.3,200.1z M148.4,170.6h20.5l-88,120.6H60.4L148.4,170.6z M88.8,200.1c0-8.1-4.5-15.2-11.4-15.2
		c-7.2,0-11,6.9-11,15.2c0,8.1,4.5,15.2,11.4,15.2C85,215.2,88.8,208.2,88.8,200.1z M122.3,261.7c0-17,11.9-30.8,29.4-30.8
		c17.4,0,29.1,13.6,29.1,30.8c0,16.9-11.9,30.8-29.4,30.8C134.1,292.5,122.3,278.9,122.3,261.7z M162.8,261.7
		c0-8.1-4.5-15.2-11.4-15.2c-7.2,0-11,6.9-11,15.2c0,8.1,4.5,15.2,11.4,15.2C159,276.9,162.8,269.8,162.8,261.7z"/>
</g>
<g>
	<linearGradient id="SVGID_2_" gradientUnits="userSpaceOnUse" x1="250.5014" y1="171.4841" x2="369.4799" y2="171.4841">
		<stop  offset="3.597120e-03" style="stop-color:#CCA3F3"/>
		<stop  offset="1" style="stop-color:#A55EEA"/>
	</linearGradient>
	<polygon class="st1" points="324.7,253.6 250.5,230 282,131 282,131 295.3,89.4 369.5,113 344.7,190.8 	"/>
	<g>
		<linearGradient id="SVGID_3_" gradientUnits="userSpaceOnUse" x1="261.3606" y1="170.559" x2="359.2145" y2="170.559">
			<stop  offset="0" style="stop-color:#214A35"/>
			<stop  offset="1" style="stop-color:#022B1D"/>
		</linearGradient>
		<path class="st2" d="M319,242.9l-57.6-18.3l40.3-126.4l57.6,18.3L319,242.9z M269,225.1l43.4,13.8c2.9,0.9,6.1-0.7,7-3.6
			l35.7-112.1c1-3-0.7-6.2-3.7-7.2l-43.3-13.8c-3-0.9-6.2,0.7-7.1,3.7l-35.7,112.2C264.4,221,266.1,224.1,269,225.1z"/>
	</g>
	<linearGradient id="SVGID_4_" gradientUnits="userSpaceOnUse" x1="294.0174" y1="170.5585" x2="326.5553" y2="170.5585">
		<stop  offset="0" style="stop-color:#214A35"/>
		<stop  offset="1" style="stop-color:#022B1D"/>
	</linearGradient>
	<path class="st3" d="M294.8,165.6c2.7-8.6,11.9-13.3,20.4-10.6c8.6,2.7,13.3,11.9,10.6,20.4c-2.7,8.6-11.9,13.3-20.4,10.6
		C296.8,183.3,292.1,174.2,294.8,165.6z"/>
</g>
<g>
	<linearGradient id="SVGID_5_" gradientUnits="userSpaceOnUse" x1="279.5397" y1="204.4612" x2="441.4316" y2="204.4612">
		<stop  offset="3.597120e-03" style="stop-color:#CCA3F3"/>
		<stop  offset="1" style="stop-color:#A55EEA"/>
	</linearGradient>
	<polygon class="st4" points="331.5,282.7 279.5,224.6 356.9,155.4 356.9,155.4 389.5,126.3 441.4,184.3 380.6,238.7 	"/>
	<g>
		<linearGradient id="SVGID_6_" gradientUnits="userSpaceOnUse" x1="291.6344" y1="203.8142" x2="430.7883" y2="203.8142">
			<stop  offset="0" style="stop-color:#214A35"/>
			<stop  offset="1" style="stop-color:#022B1D"/>
		</linearGradient>
		<path class="st5" d="M331.9,270.6l-40.3-45.1l98.9-88.4l40.3,45.1L331.9,270.6z M298,229.8l30.4,34c2.1,2.3,5.6,2.5,7.9,0.4
			l87.7-78.4c2.3-2.1,2.5-5.7,0.4-8.1l-30.3-33.8c-2.1-2.3-5.7-2.5-8-0.4l-87.7,78.5C296.1,224,295.9,227.5,298,229.8z"/>
	</g>
	<linearGradient id="SVGID_7_" gradientUnits="userSpaceOnUse" x1="344.9458" y1="203.8132" x2="377.4752" y2="203.8132">
		<stop  offset="0" style="stop-color:#214A35"/>
		<stop  offset="1" style="stop-color:#022B1D"/>
	</linearGradient>
	<path class="st6" d="M350.4,191.7c6.7-6,17-5.4,23,1.3c6,6.7,5.4,17-1.3,23c-6.7,6-17,5.4-23-1.3
		C343.1,208,343.7,197.7,350.4,191.7z"/>
</g>
<linearGradient id="SVGID_8_" gradientUnits="userSpaceOnUse" x1="180.5057" y1="202.6136" x2="254.9883" y2="202.6136">
	<stop  offset="0" style="stop-color:#BBD9FF"/>
	<stop  offset="4.906875e-02" style="stop-color:#BDD2FD"/>
	<stop  offset="0.2192" style="stop-color:#C4BDF9"/>
	<stop  offset="0.4107" style="stop-color:#C8AEF5"/>
	<stop  offset="0.639" style="stop-color:#CBA6F4"/>
	<stop  offset="1" style="stop-color:#CCA3F3"/>
</linearGradient>
<path class="st7" d="M185.3,161c7.5-10.4,25.6,0.6,25.6,0.6s5.6,25.2,9.3,27.1c3.7,1.9-0.6-22.5-0.6-22.5
	c7.7,2.1,23.3,18.4,23.3,18.4s-10.1,23.1-6.1,24.1c4,1,7.9-20.9,7.9-20.9c6.4,4.9,10,15.8,10,15.8c3.3,16.9-18.6,20.2-18.6,20.2
	s-3.3,8.1-1.8,19.4c0,0,0,0,0,0s0.5,2.2,0.5,5.5l-2-0.7c0-0.6,0.1-1.2,0-1.7c0,0,0,0,0,0c0,0,0,0,0,0c0-0.4-0.1-0.9-0.1-1.5
	c0,0,0,0,0,0c0,0,0,0,0,0c-0.2-1.4-0.2-2.4-0.3-3.1c0,0,0,0,0,0c-0.4-4.4-1.2-10.2-2.5-11.8c0,0,0.3-0.2,0.8-0.7
	c-0.2,0.2-0.5,0.5-0.8,0.7c-6.1,5.9-23.4,0.8-32-4.7c-8.7-5.5-3.6-6.6,3.1-9c6.7-2.4,16.8,2.7,20.6,2.2c3.8-0.5-0.2-3.9-6.6-5.8
	c-6.4-1.9-11.9,3.2-22.4,0.4c-10.5-2.8-11-24.7-11-24.7c6.2,4.8,20.1,5.7,21.5,3.4c1.4-2.2-17.2-9-19.8-10.8
	C180.7,179,177.8,171.4,185.3,161z"/>
<linearGradient id="SVGID_9_" gradientUnits="userSpaceOnUse" x1="314.2923" y1="344.6861" x2="443.4028" y2="344.6861">
	<stop  offset="0" style="stop-color:#BBD9FF"/>
	<stop  offset="4.906875e-02" style="stop-color:#BDD2FD"/>
	<stop  offset="0.2192" style="stop-color:#C4BDF9"/>
	<stop  offset="0.4107" style="stop-color:#C8AEF5"/>
	<stop  offset="0.639" style="stop-color:#CBA6F4"/>
	<stop  offset="1" style="stop-color:#CCA3F3"/>
</linearGradient>
<path class="st8" d="M443.2,334.8c2.7-17.1-24.6-23.4-24.6-23.4s-28.9,19.2-34.2,17.6c-5.3-1.6,21.7-21.2,21.7-21.2
	c-9.2-5.2-39.2-4-39.2-4s-12.2,31.9-16.9,29c-4.7-2.8,12.3-27.7,12.3-27.7c-10.6-1.3-24.2,6-24.2,6c-18.9,13.3-1.5,37-1.5,37
	s-4.5,11-16.5,20.5l0,0c0,0-2.5,1.6-5.7,4.9l2.5,1.1c0.5-0.6,1-1.2,1.6-1.7c0,0,0,0,0,0c0,0,0,0,0,0c0.4-0.3,0.9-0.8,1.5-1.3
	c0,0,0,0,0,0c0,0,0,0,0,0c1.5-1.2,2.5-2.1,3.2-2.8c0,0,0,0,0,0c4.5-3.9,10.7-8.7,13.5-9.1c0,0-0.1-0.5,0-1.4c0,0.5,0,0.9,0,1.4
	c0.1,11.5,21.2,22.7,34.5,25.5c13.3,2.8,9.5-3,5.5-11.6s-18.4-13.1-21.4-17.2c-3.1-4,3.8-3.6,11.6,0.6c7.8,4.2,8.2,14.3,20.7,21.3
	c12.5,7.1,33.6-13.7,33.6-13.7c-10.3-1.1-24.2-13.4-23.4-16.8c0.8-3.5,24.6,7.5,28.8,8.2C430.6,356.6,440.5,351.8,443.2,334.8z"/>
<linearGradient id="SVGID_10_" gradientUnits="userSpaceOnUse" x1="177.472" y1="322.7213" x2="273.5702" y2="322.7213">
	<stop  offset="0" style="stop-color:#444B8C"/>
	<stop  offset="0.9964" style="stop-color:#26264F"/>
</linearGradient>
<polygon class="st9" points="273.6,254.1 273.6,390.8 177.5,391.4 177.5,254.1 "/>
<linearGradient id="SVGID_11_" gradientUnits="userSpaceOnUse" x1="273.5702" y1="322.5848" x2="348.2217" y2="322.5848">
	<stop  offset="0" style="stop-color:#444B8C"/>
	<stop  offset="0.9964" style="stop-color:#26264F"/>
</linearGradient>
<rect x="273.6" y="254.2" class="st10" width="74.7" height="136.7"/>
<polygon class="st11" points="298,198.1 266.5,262.9 258.3,262.9 183,252.5 177.2,262.9 170.9,262.9 220.7,198.3 "/>
<linearGradient id="SVGID_12_" gradientUnits="userSpaceOnUse" x1="174.6284" y1="230.5159" x2="301.7722" y2="230.5159">
	<stop  offset="0" style="stop-color:#444B8C"/>
	<stop  offset="0.9964" style="stop-color:#26264F"/>
</linearGradient>
<polygon class="st12" points="301.8,198.1 270.3,262.9 174.6,262.9 224.5,198.3 "/>
<polygon class="st13" points="358.6,266.5 271.8,266.5 220.5,198.1 249.4,198.1 305.8,198.1 "/>
<polygon class="st11" points="358.6,266.5 342.7,266.5 249.4,198.1 305.8,198.1 "/>
<path class="st14" d="M294.3,337.2c-0.1,0.1-0.5,0.7,0,1.4c0,0,0.1,0.1,0.1,0.1c5.7,3.4,22.7,17.2,22.7,27v20.2h-51.4v-20.2
	c0-9.8,17.3-23.8,22.8-27.1c0,0,0,0,0,0c0.2-0.2,0.2-0.5,0.2-0.7c0-0.4-0.2-0.7-0.2-0.7c-5.6-3.3-22.8-17.2-22.8-27v-20.2h51.4v20.2
	C317.1,319.9,299.9,333.9,294.3,337.2z"/>
<radialGradient id="SVGID_13_" cx="291.1981" cy="388.3646" r="20.4985" gradientUnits="userSpaceOnUse">
	<stop  offset="0" style="stop-color:#444B8C"/>
	<stop  offset="0.9964" style="stop-color:#26264F"/>
</radialGradient>
<path class="st15" d="M320.1,391h-57.7l0,0c0-2.9,2.3-5.2,5.2-5.2h47.6c2.8,0,5,2.2,5,5V391z"/>
<linearGradient id="SVGID_14_" gradientUnits="userSpaceOnUse" x1="268.1149" y1="344.5591" x2="314.206" y2="344.5591">
	<stop  offset="3.597120e-03" style="stop-color:#CCA3F3"/>
	<stop  offset="1" style="stop-color:#A55EEA"/>
</linearGradient>
<path class="st16" d="M310.5,303.4c-3.1,0-8.5,0.6-17.2,2.8c-5.9,1.5-16.2,0.4-21.6-0.4c-1.9-0.3-3.6,1.2-3.6,3.1v2.3
	c0,6.4,17.2,20.3,21.8,23.8c0.7,0.5,1.1,1.4,1.1,2.2v35.6c0,1.2-0.6,2.3-1.6,3c-3.6,2.5-9.6,9.8-9.6,9.8h22.8c0,0-6.1-7.1-9.6-9.7
	c-0.8-0.6-1.2-1.5-1.2-2.5v-36.3c0-0.9,0.4-1.7,1.1-2.2c4.5-3.6,21.3-17.5,21.3-23.9V307C314.2,305,312.5,303.3,310.5,303.4z"/>
<radialGradient id="SVGID_15_" cx="291.1981" cy="289.3396" r="20.4985" gradientUnits="userSpaceOnUse">
	<stop  offset="0" style="stop-color:#444B8C"/>
	<stop  offset="0.9964" style="stop-color:#26264F"/>
</radialGradient>
<path class="st17" d="M314.9,291.9h-47.5c-2.8,0-5-2.2-5-5v-0.2h57.7v0C320.1,289.6,317.7,291.9,314.9,291.9z"/>
<g>
</g>
<path class="st18" d="M323.9,233.9c0,0.4-0.2,0.8-0.4,1c-0.3,0.3-0.6,0.4-1,0.4h-49.1c-0.8,0-1.5-0.7-1.5-1.5c0-0.4,0.2-0.8,0.4-1
	c0.3-0.3,0.6-0.4,1-0.4h49.1C323.2,232.4,323.9,233.1,323.9,233.9z"/>
<path class="st19" d="M237.3,242.5v31.8H211v-31.4c0-6.8,5.5-12.4,12.4-12.4h2c0.3,0,0.6,0,0.9,0c0,0,0,0,0,0
	C232.5,231,237.3,236.2,237.3,242.5z"/>
<linearGradient id="SVGID_16_" gradientUnits="userSpaceOnUse" x1="214.8757" y1="252.4137" x2="237.3157" y2="252.4137">
	<stop  offset="3.597120e-03" style="stop-color:#CCA3F3"/>
	<stop  offset="1" style="stop-color:#A55EEA"/>
</linearGradient>
<path class="st20" d="M237.3,242.5v31.8h-22.4v-31.4c0-6.5,5-11.8,11.4-12.3c0,0,0,0,0,0C232.5,231,237.3,236.2,237.3,242.5z"/>
<rect x="211" y="247.6" class="st14" width="26.3" height="2.4"/>
<rect x="211" y="259.9" transform="matrix(-1.836970e-16 1 -1 -1.836970e-16 485.269 36.9601)" class="st14" width="26.3" height="2.4"/>
<polygon class="st11" points="222.6,290.2 202,332.5 139.6,332.5 172.2,290.4 "/>
<linearGradient id="SVGID_17_" gradientUnits="userSpaceOnUse" x1="141.4751" y1="311.3848" x2="224.4611" y2="311.3848">
	<stop  offset="0" style="stop-color:#444B8C"/>
	<stop  offset="0.9964" style="stop-color:#26264F"/>
</linearGradient>
<polygon class="st21" points="224.5,290.2 203.9,332.5 141.5,332.5 174,290.4 "/>
<linearGradient id="SVGID_18_" gradientUnits="userSpaceOnUse" x1="141.476" y1="362.0349" x2="203.7739" y2="362.0349">
	<stop  offset="0" style="stop-color:#444B8C"/>
	<stop  offset="0.9964" style="stop-color:#26264F"/>
</linearGradient>
<polygon class="st22" points="203.8,332.5 203.8,391.5 141.5,390.9 141.5,332.5 "/>
<linearGradient id="SVGID_19_" gradientUnits="userSpaceOnUse" x1="203.7739" y1="362.0349" x2="256.5281" y2="362.0349">
	<stop  offset="0" style="stop-color:#444B8C"/>
	<stop  offset="0.9964" style="stop-color:#26264F"/>
</linearGradient>
<polygon class="st23" points="256.5,332.5 256.5,390.9 203.8,391.5 203.8,332.5 "/>
<polygon class="st13" points="262.3,335 205.7,335 172.2,290.4 189,290.4 227.9,290.4 "/>
<polygon class="st11" points="262.3,335 251.6,335 189,290.4 227.9,290.4 "/>
<path class="st19" d="M183,339.5v29.2h-24.1v-28.8c0-6.3,5.1-11.3,11.3-11.3h1.8c0.3,0,0.6,0,0.8,0c0,0,0,0,0,0
	C178.5,329,183,333.8,183,339.5z"/>
<linearGradient id="SVGID_20_" gradientUnits="userSpaceOnUse" x1="162.3954" y1="348.6555" x2="182.9681" y2="348.6555">
	<stop  offset="3.597120e-03" style="stop-color:#CCA3F3"/>
	<stop  offset="1" style="stop-color:#A55EEA"/>
</linearGradient>
<path class="st24" d="M183,339.5v29.2h-20.6v-28.8c0-6,4.6-10.8,10.5-11.3c0,0,0,0,0,0C178.5,329,183,333.8,183,339.5z"/>
<rect x="158.8" y="344.2" class="st14" width="24.1" height="2.2"/>
<rect x="158.8" y="355.5" transform="matrix(-1.836970e-16 1 -1 -1.836970e-16 527.5342 185.7301)" class="st14" width="24.1" height="2.2"/>
<rect x="205.7" y="335" class="st11" width="56.7" height="1.5"/>
<polygon class="st11" points="205.7,336.6 171.2,291.6 172.2,290.4 205.7,335 "/>
<rect x="271.8" y="266.5" class="st11" width="86.2" height="2.7"/>
<g>
	<g>
		<linearGradient id="SVGID_21_" gradientUnits="userSpaceOnUse" x1="276.9424" y1="214.7236" x2="321.5892" y2="214.7236">
			<stop  offset="3.597120e-03" style="stop-color:#CCA3F3"/>
			<stop  offset="1" style="stop-color:#A55EEA"/>
		</linearGradient>
		<path class="st25" d="M321.6,216.6c0,0.7,0,1.4-0.1,2.1c-0.5,5.1-2.8,10-6.7,13.7c-0.8,0.8-1.6,1.5-2.5,2.1
			c-0.4,0.3-0.9,0.6-1.3,0.9h-23.5c-0.4-0.3-0.9-0.6-1.3-0.9c-0.9-0.6-1.7-1.3-2.5-2.1c-1.5-1.5-2.9-3.3-4-5.2
			c-6-10.8-2-24.4,8.8-30.3c10.8-5.9,24.4-2,30.3,8.8c1.3,2.3,2.1,4.7,2.5,7.1v0c0,0.1,0,0.1,0,0.2c0,0,0,0,0,0c0,0.1,0,0.2,0,0.3
			c0.1,0.5,0.1,1,0.2,1.5c0,0.2,0,0.4,0,0.6c0,0,0,0,0,0.1C321.6,215.8,321.6,216.2,321.6,216.6z"/>
		<g>
			<path class="st26" d="M319.7,216c0-0.3,0-0.6,0-0.9c-0.1-0.7-0.1-1.4-0.3-2.1c-0.4-2.1-1.1-4.2-2.2-6.2
				c-5.4-9.8-17.8-13.4-27.6-8c-6.7,3.7-10.5,10.7-10.5,17.8c0,3.3,0.8,6.7,2.5,9.8c1.3,2.4,3,4.4,5,6c1,0.8,2.1,1.5,3.2,2.1
				c0.6,0.3,1.2,0.6,1.8,0.9h4c-1-0.2-2-0.5-3-0.9c-1.4-0.5-2.8-1.2-4-2.1c-2.4-1.6-4.5-3.8-5.9-6.5c-5.1-9.2-1.7-20.9,7.5-26
				c9.2-5.1,20.9-1.7,26,7.5c1,1.8,1.7,3.8,2.1,5.7c0.1,0.7,0.2,1.4,0.3,2.1c0,0,0,0.1,0,0.1v0c0,0.7,0.1,1.4,0,2
				c-0.2,5.9-3.2,11.6-8.3,15.1c-0.5,0.3-1,0.7-1.6,1c-0.8,0.4-1.6,0.8-2.4,1.1c-1,0.4-2,0.7-3,0.9h3.9c0.6-0.3,1.2-0.5,1.8-0.9
				c0.1,0,0.1-0.1,0.2-0.1c1.1-0.6,2.1-1.3,3-2c4.5-3.6,7.1-8.9,7.5-14.4C319.7,217.3,319.7,216.7,319.7,216z"/>
		</g>
		<g>
		</g>
	</g>
</g>
<path class="st11" d="M219.5,199.9c-0.1,0.1,52.3,69.3,52.3,69.3v-2.7l-51.3-68.4L219.5,199.9z"/>
<g>
	<g>
		<path class="st13" d="M141,387.6c-0.3,0.2-0.6,0.3-0.9,0.5c-0.1,0.1-0.2,0.1-0.3,0.2c-0.2,0.1-0.5,0.2-0.7,0.4
			c-11.1,5.4-24.6,1.3-30.6-9.6c-5.7-10.4-2.7-23.3,6.8-30.1c0.8-0.5,1.5-1,2.4-1.5c0.3-0.2,0.6-0.3,0.9-0.5
			c0.3-0.1,0.6-0.3,0.9-0.4c0.9-0.4,1.8-0.7,2.8-1c1.4-0.4,2.8-0.7,4.2-0.8c4.4-0.5,8.8,0.3,12.7,2.2c4.1,2,7.7,5.3,10.1,9.6
			C155.3,367.4,151.6,381.1,141,387.6z"/>
		<g>
			<path class="st26" d="M129.1,389.1c-7.5,0-14.7-3.9-18.5-10.9c-5.6-10.2-1.9-23.1,8.3-28.7c10.2-5.6,23.1-1.9,28.7,8.3
				c5.6,10.2,1.9,23.1-8.3,28.7C136,388.2,132.5,389.1,129.1,389.1z M129,348c-3.3,0-6.6,0.8-9.6,2.5c-9.6,5.3-13.2,17.5-7.8,27.1
				c5.3,9.6,17.5,13.2,27.1,7.8c9.6-5.3,13.2-17.5,7.8-27.1C142.9,351.7,136,348,129,348z"/>
		</g>
		<g>
		</g>
	</g>
</g>
</svg>
