<?xml version="1.0" encoding="utf-8"?>
<!-- Generator: Adobe Illustrator 25.2.1, SVG Export Plug-In . SVG Version: 6.00 Build 0)  -->
<svg version="1.1" id="Layer_1" xmlns="http://www.w3.org/2000/svg" xmlns:xlink="http://www.w3.org/1999/xlink" x="0px" y="0px"
	 viewBox="0 0 500 500" style="enable-background:new 0 0 500 500;" xml:space="preserve">
<style type="text/css">
	.st0{fill:#143263;}
	.st1{fill:#355B93;}
	.st2{fill:#3C81C6;}
	.st3{fill:#CCA3F3;}
	.st4{fill:#A55EEA;}
	.st5{fill:#FFFFFF;}
	.st6{fill:#F2F2F2;}
	.st7{fill:#1D262D;}
	.st8{fill:#8854D0;}
	.st9{fill:#A5B1C2;}
	.st10{fill:#4B6584;}
	.st11{fill:#D1D8E0;}
</style>
<g>
	<path class="st0" d="M60.9,261.1l-2.1-0.1c-13.2-0.9-23.2-12.4-22.3-25.6l0,0c0.9-13.2,12.4-23.2,25.6-22.3l2.1,0.1
		c2.4,0.2,4.3,2.3,4.1,4.7L65.6,257C65.4,259.4,63.3,261.3,60.9,261.1z"/>
	<path class="st1" d="M48.2,219.9c-3.3,2.5-5.6,6.3-5.9,10.8c-0.4,6.6,3.5,12.4,9.4,14.6c0.9,0.3,1.9-0.3,1.9-1.3
		c0-4.8,0.2-14.5,2.5-25c0.2-1-0.6-1.9-1.6-1.7C52.3,217.6,50.1,218.5,48.2,219.9z"/>
	<path class="st1" d="M128.3,275.4l0.2,1.9l-66.5-4.5c-2.5-0.2-4.5-5.1-5.5-12.7c-0.5-3.9-0.8-8.6-0.8-13.7c0-3.1,0.1-6.3,0.3-9.6
		c0.7-10.2,2.3-19.3,4.4-25.6c1.9-5.8,4.1-9.3,6.4-9.2l66.5,4.5l-0.5,1.8c-0.7,2.5-1.3,5.1-1.9,7.6c-2.6,11.6-4,23.4-4.1,35.2
		c-0.1,4.6,0.1,9.1,0.4,13.7C127.5,268.4,127.9,271.9,128.3,275.4z"/>
	<path class="st2" d="M133.4,206.5l-0.5,1.8c-0.7,2.5-1.3,5.1-1.9,7.6l-70.5-4.8c1.9-5.8,4.1-9.3,6.4-9.2L133.4,206.5z"/>
	<path class="st2" d="M127.3,264.8l-70.7-4.8c-0.5-3.9-0.8-8.6-0.8-13.7l71.1,4.8C126.8,255.7,127,260.3,127.3,264.8z"/>
	<path class="st2" d="M139.9,242.5c-1.3,19.5-6.4,35.1-11.3,34.8c-4.9-0.3-7.9-16.5-6.5-36c1.3-19.5,6.4-35.1,11.3-34.8
		C138.3,206.8,141.2,222.9,139.9,242.5z"/>
	<path class="st3" d="M265.5,147.9l-13.8,203.8L237,335.8c-28.4-30.6-63.7-52.4-102.3-63.1c-2.1-0.6-4.2-1.1-6.3-1.7
		c-1.1-0.3-2.1-1.2-2.3-2.5c-0.4-1.9-0.8-4.1-1-6.5c-0.4-3.8-0.6-8.1-0.5-12.8c0-2.7,0.1-5.6,0.3-8.6c0.8-11.2,2.6-21.1,5-27.5
		c0.4-1.2,1.5-2,2.6-2.1c2.2-0.2,4.3-0.5,6.5-0.8c17.8-2.4,35.3-7.1,52.1-14c20.6-8.4,40-20,57.8-34.6L265.5,147.9z"/>
	<path class="st4" d="M234.6,311c0,0-30.5-30.2-107.8-48.1c-0.4-3.8-0.6-8.1-0.5-12.8c7.1,0,73,6,106.6,26.5L234.6,311z"/>
	<path class="st5" d="M147.2,218.3c17.5-2.4,32.4-5.7,44.8-9.2c-1.3,7.3-2.5,14.9-3.3,22.9c-14.7,1.5-29.1,1.9-40.3,1.8
		c-7.5,0-13.6-0.3-17.3-0.5c0.6-5,1.5-9.5,2.6-13.4C138.3,219.4,142.8,218.9,147.2,218.3z"/>
	<path class="st5" d="M226.1,196.6c-2.3,9.2-4.2,19.3-5.6,29.9c-7.6,2-15.9,3.5-24.2,4.5c1.1-8.8,2.6-17.1,4.5-24.7
		C211.3,203,219.6,199.6,226.1,196.6z"/>
	<path class="st4" d="M290.8,252.7c-3,45-16.2,82.2-31.4,93c-2.4,1.7-4.9,2.8-7.4,3c-0.8,0.1-1.5,0.1-2.3,0.1
		c-6.6-0.4-12.4-6.2-17-15.7c-8.7-18-13.2-49.6-10.8-85.1c2.4-35.5,11.1-66.2,22.1-82.8c5.9-8.8,12.4-13.7,19-13.3
		c0.8,0.1,1.5,0.2,2.2,0.4c2.4,0.6,4.8,2,6.9,4C285.9,169,293.9,207.7,290.8,252.7z"/>
	<path class="st6" d="M294.8,253c-3.3,49.2-16.7,89.9-32,101.8c-2.4,1.9-4.9,3-7.4,3.4c-0.8,0.1-1.5,0.1-2.3,0.1
		c-6.6-0.4-12.4-6.7-16.9-17.1c-8.6-19.6-12.9-54-10.3-92.8c2.6-38.8,11.5-72.4,22.7-90.6c5.9-9.7,12.5-15.1,19.1-14.6
		c0.8,0.1,1.5,0.2,2.2,0.4c2.4,0.7,4.8,2.1,6.9,4.3C290.4,161.6,298.2,203.8,294.8,253z"/>
	<path class="st0" d="M294.8,253c-3.3,49.2-16.7,89.9-32,101.8c-2.4,1.9-4.9,3-7.4,3.4c-0.8,0.1-1.5,0.1-2.3,0.1
		c-6.6-0.4-12.4-6.7-16.9-17.1c-8.6-19.6-12.9-54-10.3-92.8c2.6-38.8,11.5-72.4,22.7-90.6c5.9-9.7,12.5-15.1,19.1-14.6
		c0.8,0.1,1.5,0.2,2.2,0.4c2.4,0.7,4.8,2.1,6.9,4.3C290.4,161.6,298.2,203.8,294.8,253z"/>
	<path class="st5" d="M288.5,252.5c-3.7,54.4-17.8,97.7-31.5,96.8c-6.1-0.4-11-9.4-14.4-24c-4.2-18.4-5.9-45.8-3.8-76.1
		s7.4-57.2,14-74.9c5.3-14,11.4-22.3,17.5-21.8C284.1,153.3,292.2,198.2,288.5,252.5z"/>
	<path class="st0" d="M84.4,280.1l-1,94.3l6.4,5.8c1.1,0.8,2.5,1,3.8,0.6l30.8-10.1c1.1-0.3,1.8-1.1,2.2-2.1c0.4-1,0.4-2.1-0.1-3.2
		c-21.8-40.7-8.7-89-8.7-89c-2.9-2.9-6.5-4.8-6.5-4.8L84.4,280.1z"/>
	<path class="st0" d="M83.4,374.4l6.4,5.8c1.1,0.8,2.5,1,3.8,0.6l30.8-10.1c1.1-0.3,1.8-1.1,2.2-2.1l-9.8-4.2L83.4,374.4z"/>
	<path class="st1" d="M72,272c-2.8,12.5-12.2,63.3,10.4,101.3c1,1.7,3.1,2.5,5,1.9l27.7-8.8c2-0.6,2.9-2.8,2-4.7
		c-5.2-10.1-18.3-42.3-5.7-90l-35.8-2.4C73.9,269.2,72.4,270.3,72,272z"/>
	<path class="st3" d="M273.2,234.2l-2.3,34.3l-5.7,0.3l-27.2,1.6c0-3.9,0.2-7.8,0.3-11.8c0.1-3.1,0.3-6.3,0.5-9.5
		c0.5-7.3,1.2-14.5,2-21.3l26.8,5.3L273.2,234.2z"/>
	<path class="st7" d="M108,300.4c-0.2,2.8-1.1,15.2,0.6,22.8c0,0.1,0.1,0.2,0.3,0.3l3.9,1c0.2,0.1,0.5-0.1,0.5-0.4
		c-0.2-3-0.9-17.8-0.4-21.4c0-0.2-0.1-0.3-0.2-0.4l-4.1-2.3C108.3,300,108,300.1,108,300.4z"/>
	<path class="st4" d="M271.4,259.9l-0.6,8.6l-5.7,0.3l-27.2,1.6c0-3.9,0.2-7.8,0.3-11.8L271.4,259.9z"/>
	<path class="st8" d="M277.7,252c-0.6,9.5-3.4,17-6.3,16.8c-1.2-0.1-2.3-1.7-3-4.2c-0.9-3.2-1.3-8-0.9-13.3c0.4-5.3,1.4-10,2.7-13
		c1.1-2.4,2.3-3.9,3.5-3.8C276.5,234.7,278.3,242.5,277.7,252z"/>
	<path class="st9" d="M112.5,303.1l-3.9-2.3l3.7,15.7c0.1,0.3,0,0.7-0.1,1l-3.1,5.3l3.8,1.2l3.2-5.1c0.2-0.3,0.3-0.7,0.2-1.1
		L112.5,303.1z"/>
	<path class="st10" d="M108.5,300.8c0,0-1.1,13,0.5,22l3.1-5.3c0.2-0.3,0.3-0.8,0.2-1.2L108.5,300.8z"/>
	<path class="st7" d="M80.4,238.4L60.5,237c-0.6,0-1-0.5-0.9-1.1l0,0c0-0.6,0.5-1,1.1-0.9l19.9,1.3c0.6,0,1,0.5,0.9,1.1l0,0
		C81.5,238,81,238.4,80.4,238.4z"/>
	<path class="st7" d="M80.8,233.8l-19.9-1.3c-0.6,0-1-0.5-0.9-1.1l0,0c0-0.6,0.5-1,1.1-0.9l19.9,1.3c0.6,0,1,0.5,0.9,1.1l0,0
		C81.9,233.4,81.4,233.8,80.8,233.8z"/>
	<path class="st7" d="M81.4,229.2l-19.9-1.3c-0.6,0-1-0.5-0.9-1.1l0,0c0-0.6,0.5-1,1.1-0.9l19.9,1.3c0.6,0,1,0.5,0.9,1.1l0,0
		C82.4,228.9,81.9,229.3,81.4,229.2z"/>
	<path class="st11" d="M116.2,318.4l-3.9-1.3l-3.2,5.7l3.8,1.2l3.2-5.1C116,318.9,116.2,318.6,116.2,318.4z"/>
</g>
<path class="st4" d="M336.6,217.5c-1.2,0-2.3-0.8-2.7-2c-0.5-1.5,0.3-3.1,1.8-3.6l106.5-34.8c1.5-0.5,3.1,0.3,3.6,1.8
	c0.5,1.5-0.3,3.1-1.8,3.6l-106.5,34.8C337.2,217.4,336.9,217.5,336.6,217.5z"/>
<path class="st4" d="M473.5,278.4c-0.1,0-0.2,0-0.3,0l-146.1-14c-1.6-0.2-2.7-1.6-2.6-3.1c0.2-1.6,1.6-2.7,3.1-2.6l146.1,14
	c1.6,0.2,2.7,1.6,2.6,3.1C476.2,277.2,474.9,278.4,473.5,278.4z"/>
<path class="st4" d="M379.4,340.7c-0.6,0-1.2-0.2-1.7-0.5l-49.5-35.4c-1.3-0.9-1.6-2.7-0.7-4c0.9-1.3,2.7-1.6,4-0.7l49.5,35.4
	c1.3,0.9,1.6,2.7,0.7,4C381.2,340.3,380.3,340.7,379.4,340.7z"/>
</svg>
