<?xml version="1.0" encoding="utf-8"?>
<!-- Generator: Adobe Illustrator 25.2.1, SVG Export Plug-In . SVG Version: 6.00 Build 0)  -->
<svg version="1.1" id="Layer_1" xmlns="http://www.w3.org/2000/svg" xmlns:xlink="http://www.w3.org/1999/xlink" x="0px" y="0px"
	 viewBox="0 0 500 500" style="enable-background:new 0 0 500 500;" xml:space="preserve">
<style type="text/css">
	.st0{fill:url(#SVGID_1_);}
	.st1{fill:url(#SVGID_2_);}
	.st2{fill:url(#SVGID_3_);}
	.st3{fill:#FFFFFF;}
	.st4{fill:url(#SVGID_4_);}
	.st5{opacity:0.3;fill:url(#SVGID_5_);}
	.st6{fill:url(#SVGID_6_);}
	.st7{fill:url(#SVGID_7_);}
	.st8{fill:url(#SVGID_8_);}
	.st9{fill:url(#SVGID_9_);}
	.st10{fill:#9D3060;}
	.st11{opacity:0.48;fill:#FFFFFF;}
	.st12{fill:#97A6B7;}
	.st13{fill:url(#SVGID_10_);}
	.st14{fill:url(#SVGID_11_);}
	.st15{fill:url(#SVGID_12_);}
	.st16{fill:url(#SVGID_13_);}
	.st17{fill:url(#SVGID_14_);}
	.st18{fill:url(#SVGID_15_);}
	.st19{fill:url(#SVGID_16_);}
	.st20{opacity:0.48;}
	.st21{enable-background:new    ;}
	.st22{fill:#413974;}
	.st23{fill:url(#SVGID_17_);}
	.st24{fill:url(#SVGID_18_);}
	.st25{fill:url(#SVGID_19_);}
	.st26{opacity:0.5;}
</style>
<g id="Virtualization_technology">
	<g>
		<linearGradient id="SVGID_1_" gradientUnits="userSpaceOnUse" x1="152.7603" y1="435.3929" x2="136.8797" y2="442.0627">
			<stop  offset="0" style="stop-color:#40447E"/>
			<stop  offset="0.9964" style="stop-color:#3C3B6B"/>
		</linearGradient>
		<path class="st0" d="M283.3,426.7l-226.1-2v5.8c0,1.6,1,2.9,2.3,3.2l63.9,11.5c0.8,0.1,1.5,0.2,2.3,0.1l155.1-13.1
			c1.4-0.1,2.5-1.5,2.5-3.1V426.7z"/>
		<linearGradient id="SVGID_2_" gradientUnits="userSpaceOnUse" x1="131.5549" y1="365.4019" x2="114.3203" y2="372.6404">
			<stop  offset="0" style="stop-color:#40447E"/>
			<stop  offset="0.9964" style="stop-color:#3C3B6B"/>
		</linearGradient>
		<path class="st1" d="M210.6,417.3L59.8,427.9c-2.7,0.2-4.9-1.8-4.9-4.5V315.6c0-2.7,2.2-4.9,4.9-4.9h150.8c2.2,0,4,2,4,4.4v97.5
			C214.6,415,212.8,417.1,210.6,417.3z"/>
		<linearGradient id="SVGID_3_" gradientUnits="userSpaceOnUse" x1="57.2713" y1="369.3201" x2="216.9882" y2="369.3201">
			<stop  offset="0" style="stop-color:#40447E"/>
			<stop  offset="0.9964" style="stop-color:#3C3B6B"/>
		</linearGradient>
		<path class="st2" d="M213,417.3L62.2,427.9c-2.7,0.2-4.9-1.8-4.9-4.5V315.6c0-2.7,2.2-4.9,4.9-4.9H213c2.2,0,4,2,4,4.4v97.5
			C217,415,215.2,417.1,213,417.3z"/>
		<path class="st3" d="M208.3,410.4l-140.5,9.3c-2.2,0.1-4-1.5-4-3.7v-94.4c0-2.2,1.8-4,4-4l140.5-0.6c1.8,0,3.3,1.6,3.3,3.6v86
			C211.6,408.5,210.1,410.3,208.3,410.4z"/>
		<path class="st3" d="M142.9,313.7c0,1-0.8,1.8-1.7,1.8c-1,0-1.7-0.8-1.7-1.8c0-1,0.8-1.8,1.7-1.8
			C142.1,311.8,142.9,312.7,142.9,313.7z"/>
		<linearGradient id="SVGID_4_" gradientUnits="userSpaceOnUse" x1="57.2713" y1="428.3828" x2="283.3361" y2="428.3828">
			<stop  offset="0" style="stop-color:#40447E"/>
			<stop  offset="0.9964" style="stop-color:#3C3B6B"/>
		</linearGradient>
		<path class="st4" d="M209.2,416.8L57.3,428l66.2,11.9c0.8,0.1,1.5,0.2,2.3,0.1l157.5-13.3l-71.7-9.9
			C210.8,416.7,210,416.7,209.2,416.8z"/>
		<linearGradient id="SVGID_5_" gradientUnits="userSpaceOnUse" x1="79.4408" y1="426.5306" x2="245.077" y2="426.5306">
			<stop  offset="0" style="stop-color:#40447E"/>
			<stop  offset="0.9964" style="stop-color:#3C3B6B"/>
		</linearGradient>
		<polygon class="st5" points="79.4,428.3 205.9,418.8 245.1,424.1 119.7,434.3 		"/>
		<g>
			<linearGradient id="SVGID_6_" gradientUnits="userSpaceOnUse" x1="119.2125" y1="356.4608" x2="174.887" y2="268.6797">
				<stop  offset="0" style="stop-color:#BBD9FF"/>
				<stop  offset="4.906875e-02" style="stop-color:#BDD2FD"/>
				<stop  offset="0.2192" style="stop-color:#C4BDF9"/>
				<stop  offset="0.4107" style="stop-color:#C8AEF5"/>
				<stop  offset="0.639" style="stop-color:#CBA6F4"/>
				<stop  offset="1" style="stop-color:#CCA3F3"/>
			</linearGradient>
			<path class="st6" d="M211.6,335.2l-147.8,1.8v-16.7c0-1.9,1.5-3.4,3.4-3.4h141c1.9,0,3.4,1.5,3.4,3.4V335.2z"/>
			<g>
				<linearGradient id="SVGID_7_" gradientUnits="userSpaceOnUse" x1="106.5104" y1="345.2326" x2="152.9498" y2="445.893">
					<stop  offset="3.597120e-03" style="stop-color:#CCA3F3"/>
					<stop  offset="1" style="stop-color:#A55EEA"/>
				</linearGradient>
				<polygon class="st7" points="156.5,379.9 72.9,383.4 72.9,343.9 156.5,342.5 				"/>
				<linearGradient id="SVGID_8_" gradientUnits="userSpaceOnUse" x1="163.4174" y1="318.9312" x2="207.8294" y2="415.1973">
					<stop  offset="3.597120e-03" style="stop-color:#CCA3F3"/>
					<stop  offset="1" style="stop-color:#A55EEA"/>
				</linearGradient>
				<polygon class="st8" points="204,378 161.4,379.7 161.4,342.4 204,341.7 				"/>
				<linearGradient id="SVGID_9_" gradientUnits="userSpaceOnUse" x1="114.9525" y1="346.7494" x2="157.4469" y2="438.8588">
					<stop  offset="3.597120e-03" style="stop-color:#CCA3F3"/>
					<stop  offset="1" style="stop-color:#A55EEA"/>
				</linearGradient>
				<polygon class="st9" points="204,404.9 72.9,412.7 72.9,388.6 204,382.7 				"/>
			</g>
			<path class="st10" d="M74.4,326.3c0,1-0.9,1.9-2,1.9c-1.1,0-2.1-0.8-2.1-1.9c0-1,0.9-1.9,2.1-1.9
				C73.5,324.4,74.4,325.3,74.4,326.3z"/>
			<path class="st10" d="M81.8,326.3c0,1-0.9,1.9-2,1.9c-1.1,0-2-0.8-2-1.9s0.9-1.9,2-1.9C80.9,324.4,81.8,325.2,81.8,326.3z"/>
			<path class="st10" d="M89.1,326.2c0,1-0.9,1.9-2,1.9c-1.1,0-2-0.8-2-1.8s0.9-1.9,2-1.9C88.2,324.4,89.1,325.2,89.1,326.2z"/>
		</g>
		<path class="st11" d="M176.6,387.7c-11.6-6.3-20.8,1.7-29.6-6.1c-5.3-4.7-2.7-8.3-9.3-15.4c-7.3-7.8-12-5.2-19.4-12.3
			c-9.3-8.9-4.6-15.9-12.6-22.3c-9.7-7.8-20.1-0.6-29.3-8c-4-3.2-6.2-7.9-7.3-12.9h-9c-1.6,0-2.9,1.3-2.9,2.9v111.8
			c0,1.6,1.3,2.8,2.9,2.7l153.7-10.9c0.8-0.1,1.4-0.5,1.9-1.1c-11.3-0.4-18.2-4.2-22.6-8.1C184.5,400.2,186,392.7,176.6,387.7z"/>
	</g>
	<g>
		<path class="st12" d="M375.2,424.5c-3.5-1.2-6.1-4.1-6.8-7.8l-5.1-25.2l-43.5,1.5l-5.4,26.2c-0.8,3.7,2.3,7.4,5.7,8.7l18.2,7.1
			c3.4,1.3,7,1.9,10.6,1.5l38.5-3.3c1.1-0.1,2-1,2.2-2.1s0.9-2.4-0.2-2.8L375.2,424.5z"/>
		<linearGradient id="SVGID_10_" gradientUnits="userSpaceOnUse" x1="352.2422" y1="400.5516" x2="352.9037" y2="425.3615">
			<stop  offset="0" style="stop-color:#444B8C"/>
			<stop  offset="0.9964" style="stop-color:#26264F"/>
		</linearGradient>
		<path class="st13" d="M375.6,423c-3.5-1.1-6.1-4.1-6.8-7.7l-5.1-24.9l-42.5,1.5l-5.4,25.9c-0.7,3.6,1.2,7.3,4.7,8.6l18.2,7
			c3.4,1.3,7,1.8,10.6,1.5l38.4-3.3c1.1-0.1,2-1,2.2-2.1c0.1-1.1-0.5-2.2-1.6-2.5L375.6,423z"/>
		<linearGradient id="SVGID_11_" gradientUnits="userSpaceOnUse" x1="357.6436" y1="369.7083" x2="284.7387" y2="113.7551">
			<stop  offset="0" style="stop-color:#444B8C"/>
			<stop  offset="0.9964" style="stop-color:#26264F"/>
		</linearGradient>
		<path class="st14" d="M445.1,374.1V261.2c0-2.3-1.9-4.3-4.2-4.4l-194-7.8c-3-0.1-5.4,1.9-5.4,4.5v124.8L445.1,374.1z"/>
		<g>
			<path class="st3" d="M247.5,270.9v97.5c0,2.4,2.2,4.4,5,4.3l184.1-5.2c2.2-0.1,4-1.9,4-4.1v-86.9L247.5,270.9z"/>
			<linearGradient id="SVGID_12_" gradientUnits="userSpaceOnUse" x1="284.7298" y1="204.1885" x2="417.5955" y2="346.8386">
				<stop  offset="0" style="stop-color:#BBD9FF"/>
				<stop  offset="4.906875e-02" style="stop-color:#BDD2FD"/>
				<stop  offset="0.2192" style="stop-color:#C4BDF9"/>
				<stop  offset="0.4107" style="stop-color:#C8AEF5"/>
				<stop  offset="0.639" style="stop-color:#CBA6F4"/>
				<stop  offset="1" style="stop-color:#CCA3F3"/>
			</linearGradient>
			<path class="st15" d="M440.6,276.4v-10c0-2.1-1.8-3.9-3.9-4l-184.3-6.9c-2.7-0.1-4.9,1.8-4.9,4.2v11.2L440.6,276.4z"/>
			<g>
				<path class="st10" d="M261,263.3c0,0.8-0.8,1.5-1.7,1.5c-0.9,0-1.7-0.7-1.7-1.6c0-0.8,0.8-1.5,1.7-1.5
					C260.2,261.8,261,262.5,261,263.3z"/>
				<path class="st10" d="M268.3,263.5c0,0.8-0.8,1.5-1.7,1.5c-0.9,0-1.7-0.7-1.7-1.6s0.8-1.5,1.7-1.5
					C267.6,262,268.3,262.7,268.3,263.5z"/>
				<path class="st10" d="M275.6,263.8c0,0.8-0.7,1.5-1.7,1.4c-0.9,0-1.7-0.7-1.7-1.6c0-0.8,0.7-1.5,1.7-1.4
					C274.9,262.3,275.6,263,275.6,263.8z"/>
			</g>
		</g>
		<linearGradient id="SVGID_13_" gradientUnits="userSpaceOnUse" x1="241.522" y1="390.5621" x2="445.1332" y2="390.5621">
			<stop  offset="0" style="stop-color:#444B8C"/>
			<stop  offset="0.9964" style="stop-color:#26264F"/>
		</linearGradient>
		<path class="st16" d="M241.5,378.3v24.9c0,2.6,2.4,4.6,5.4,4.5l194-8.2c2.3-0.1,4.2-2.1,4.2-4.4v-21.8L241.5,378.3z"/>
		<g>
			<g>
				<linearGradient id="SVGID_14_" gradientUnits="userSpaceOnUse" x1="304.9012" y1="282.5426" x2="363.0923" y2="408.6755">
					<stop  offset="3.597120e-03" style="stop-color:#CCA3F3"/>
					<stop  offset="1" style="stop-color:#A55EEA"/>
				</linearGradient>
				<polygon class="st17" points="368.6,325.5 261.7,326.1 261.7,281.4 368.6,283.4 				"/>
				<linearGradient id="SVGID_15_" gradientUnits="userSpaceOnUse" x1="378.6691" y1="254.4836" x2="432.3124" y2="370.7589">
					<stop  offset="3.597120e-03" style="stop-color:#CCA3F3"/>
					<stop  offset="1" style="stop-color:#A55EEA"/>
				</linearGradient>
				<polygon class="st18" points="429,325.2 374.9,325.5 374.9,283.5 429,284.5 				"/>
				<linearGradient id="SVGID_16_" gradientUnits="userSpaceOnUse" x1="314.5591" y1="278.1544" x2="370.2623" y2="398.8947">
					<stop  offset="3.597120e-03" style="stop-color:#CCA3F3"/>
					<stop  offset="1" style="stop-color:#A55EEA"/>
				</linearGradient>
				<polygon class="st19" points="429,355.4 261.7,359.3 261.7,331.9 429,330.5 				"/>
			</g>
		</g>
		<g class="st20">
			<path class="st3" d="M424.1,359.5c-15.9-5.4-29.1,5.6-40.6-3c-12.9-9.7-2.5-28.5-14.4-39.5c-16.6-15.3-49.8,8.4-64.2-6
				c-9.9-9.9,1.8-25.8-6.6-42.5c-4.3-8.5-12.3-14.3-22-18.2l-29.5-1.2c-3-0.1-5.4,1.9-5.4,4.5v124.8v24.9c0,2.6,2.4,4.6,5.4,4.5
				l194-8.2c2.3-0.1,4.2-2.1,4.2-4.4v-16.1C438.3,367,430.8,361.7,424.1,359.5z"/>
		</g>
	</g>
	<g>
		<g class="st21">
			<g>
				<path class="st22" d="M282.3,63.9c29.6,1.6,54.7,28.1,55.9,59.2c0.1,3,0,5.9-0.3,8.7c5.1-2,10.8-3,16.8-2.7
					c24.4,1.3,45.1,23.2,46.2,48.9c1,24.4-16.1,43.5-38.8,44.3c-1.2,0-2.4,0-3.6,0L156,210.9c-11.4-2.8-20.4-13.7-20.9-26.2
					c-0.6-14.1,9.9-25,23.3-24.3c2.8,0.1,5.6,0.8,8.2,1.9c-1.2-4.4-1.9-9-2.1-13.7c-1.3-32.2,22.4-57,53.1-55.4
					c5.7,0.3,11.2,1.5,16.5,3.4C241.1,76.3,259.8,62.7,282.3,63.9z"/>
			</g>
			<g>
				<linearGradient id="SVGID_17_" gradientUnits="userSpaceOnUse" x1="143.1644" y1="138.2879" x2="409.1459" y2="138.2879">
					<stop  offset="3.597120e-03" style="stop-color:#CCA3F3"/>
					<stop  offset="1" style="stop-color:#A55EEA"/>
				</linearGradient>
				<path class="st23" d="M290.4,59.1c29.6,1.6,54.7,28.1,55.9,59.2c0.1,3,0,5.9-0.3,8.7c5.1-2,10.8-3,16.8-2.7
					c24.4,1.3,45.1,23.2,46.2,48.9c1,24.4-16.1,43.5-38.8,44.3c-1.2,0-2.4,0-3.6,0l-202.6-11.3c-11.4-2.8-20.4-13.7-20.9-26.2
					c-0.6-14.1,9.9-25,23.3-24.3c2.8,0.1,5.6,0.8,8.2,1.9c-1.2-4.4-1.9-9-2.1-13.7c-1.3-32.2,22.4-57,53.1-55.4
					c5.7,0.3,11.2,1.5,16.5,3.4C249.2,71.6,267.9,57.9,290.4,59.1z"/>
			</g>
		</g>
	</g>
	<g>
		<g class="st21">
			<g>
				<path class="st22" d="M156.4,224.4c11.1,0.6,20.4,10.5,20.9,22.1c0,1.1,0,2.2-0.1,3.2c1.9-0.8,4-1.1,6.3-1
					c9.1,0.5,16.8,8.6,17.2,18.2c0.4,9.1-6,16.3-14.5,16.5c-0.4,0-0.9,0-1.3,0l-75.6-4.2c-4.3-1-7.6-5.1-7.8-9.8
					c-0.2-5.3,3.7-9.3,8.7-9.1c1.1,0.1,2.1,0.3,3.1,0.7c-0.4-1.7-0.7-3.4-0.8-5.1c-0.5-12,8.4-21.3,19.8-20.7
					c2.1,0.1,4.2,0.6,6.1,1.3C141,229,148,223.9,156.4,224.4z"/>
			</g>
			<g>
				<linearGradient id="SVGID_18_" gradientUnits="userSpaceOnUse" x1="106.4854" y1="250.0868" x2="205.7846" y2="250.0868">
					<stop  offset="0" style="stop-color:#BBD9FF"/>
					<stop  offset="4.906875e-02" style="stop-color:#BDD2FD"/>
					<stop  offset="0.2192" style="stop-color:#C4BDF9"/>
					<stop  offset="0.4107" style="stop-color:#C8AEF5"/>
					<stop  offset="0.639" style="stop-color:#CBA6F4"/>
					<stop  offset="1" style="stop-color:#CCA3F3"/>
				</linearGradient>
				<path class="st24" d="M161.5,220.5c11.1,0.6,20.4,10.5,20.9,22.1c0,1.1,0,2.2-0.1,3.2c1.9-0.8,4-1.1,6.3-1
					c9.1,0.5,16.8,8.6,17.2,18.2c0.4,9.1-6,16.3-14.5,16.5c-0.4,0-0.9,0-1.3,0l-75.6-4.2c-4.3-1-7.6-5.1-7.8-9.8
					c-0.2-5.3,3.7-9.3,8.7-9.1c1.1,0.1,2.1,0.3,3.1,0.7c-0.4-1.7-0.7-3.4-0.8-5.1c-0.5-12,8.4-21.3,19.8-20.7
					c2.1,0.1,4.2,0.6,6.1,1.3C146.1,225.2,153.1,220.1,161.5,220.5z"/>
			</g>
		</g>
	</g>
	<g>
		<g class="st21">
			<g>
				<path class="st22" d="M387.6,173.9c11.1,0.6,20.4,10.5,20.9,22.1c0,1.1,0,2.2-0.1,3.2c1.9-0.8,4-1.1,6.3-1
					c9.1,0.5,16.8,8.6,17.2,18.2c0.4,9.1-6,16.2-14.5,16.5c-0.4,0-0.9,0-1.3,0l-75.6-4.2c-4.3-1-7.6-5.1-7.8-9.8
					c-0.2-5.3,3.7-9.3,8.7-9.1c1.1,0.1,2.1,0.3,3.1,0.7c-0.4-1.7-0.7-3.4-0.8-5.1c-0.5-12,8.4-21.3,19.8-20.7
					c2.1,0.1,4.2,0.6,6.1,1.3C372.2,178.6,379.2,173.5,387.6,173.9z"/>
			</g>
			<g>
				<linearGradient id="SVGID_19_" gradientUnits="userSpaceOnUse" x1="337.4376" y1="199.5488" x2="436.737" y2="199.5488">
					<stop  offset="3.597120e-03" style="stop-color:#CCA3F3"/>
					<stop  offset="1" style="stop-color:#A55EEA"/>
				</linearGradient>
				<path class="st25" d="M392.4,170c11.1,0.6,20.4,10.5,20.9,22.1c0,1.1,0,2.2-0.1,3.2c1.9-0.8,4-1.1,6.3-1
					c9.1,0.5,16.8,8.6,17.2,18.2c0.4,9.1-6,16.2-14.5,16.5c-0.4,0-0.9,0-1.3,0l-75.6-4.2c-4.3-1-7.6-5.1-7.8-9.8
					c-0.2-5.3,3.7-9.3,8.7-9.1c1.1,0.1,2.1,0.3,3.1,0.7c-0.4-1.7-0.7-3.4-0.8-5.1c-0.5-12,8.4-21.3,19.8-20.7
					c2.1,0.1,4.2,0.6,6.1,1.3C377,174.6,384,169.6,392.4,170z"/>
			</g>
		</g>
	</g>
	<g>
		<g>
			<path class="st22" d="M225.1,338.3c-1.1,0-2-0.9-2-2v-13c0-1.1,0.9-2,2-2c1.1,0,2,0.9,2,2v13
				C227.1,337.4,226.2,338.3,225.1,338.3z M225.1,312.3c-1.1,0-2-0.9-2-2v-13c0-1.1,0.9-2,2-2c1.1,0,2,0.9,2,2v13
				C227.1,311.4,226.2,312.3,225.1,312.3z M225.1,286.2c-1.1,0-2-0.9-2-2v-13c0-1.1,0.9-2,2-2c1.1,0,2,0.9,2,2v13
				C227.1,285.3,226.2,286.2,225.1,286.2z M225.1,260.2c-1.1,0-2-0.9-2-2v-13c0-1.1,0.9-2,2-2c1.1,0,2,0.9,2,2v13
				C227.1,259.3,226.2,260.2,225.1,260.2z M225.1,234.2c-1.1,0-2-0.9-2-2v-13c0-1.1,0.9-2,2-2c1.1,0,2,0.9,2,2v13
				C227.1,233.3,226.2,234.2,225.1,234.2z"/>
			<path class="st22" d="M227.1,357.7l-12.5-0.2c-1.1,0-2-0.9-2-2.1c0-1.1,0.9-2,2-2c0,0,0,0,0,0l8.4,0.2v-4.3c0-1.1,0.9-2,2-2
				c1.1,0,2,0.9,2,2V357.7z"/>
		</g>
		<g>
			<path class="st22" d="M317.7,238c-1.1,0-2-0.9-2-2v-11.9c0-1.1,0.9-2,2-2c1.1,0,2,0.9,2,2v11.9C319.7,237.1,318.8,238,317.7,238z
				"/>
			<path class="st22" d="M317.7,256.2c-1.1,0-2-0.9-2-2v-6.3c0-1.1,0.9-2,2-2c1.1,0,2,0.9,2,2v6.3
				C319.7,255.3,318.8,256.2,317.7,256.2z"/>
		</g>
		<g>
			<path class="st22" d="M374.9,241.7c-1.1,0-2-0.9-2-2v-9.7c0-1.1,0.9-2,2-2c1.1,0,2,0.9,2,2v9.7
				C376.9,240.8,376,241.7,374.9,241.7z"/>
			<path class="st22" d="M374.9,257.7c-1.1,0-2-0.9-2-2v-6.3c0-1.1,0.9-2,2-2c1.1,0,2,0.9,2,2v6.3
				C376.9,256.8,376,257.7,374.9,257.7z"/>
		</g>
		<g>
			<path class="st22" d="M161.4,294.1c-1.1,0-2-0.9-2-2v-9.7c0-1.1,0.9-2,2-2s2,0.9,2,2v9.7C163.4,293.2,162.5,294.1,161.4,294.1z"
				/>
			<path class="st22" d="M161.4,310.1c-1.1,0-2-0.9-2-2v-6.3c0-1.1,0.9-2,2-2s2,0.9,2,2v6.3C163.4,309.2,162.5,310.1,161.4,310.1z"
				/>
		</g>
	</g>
	<g class="st26">
		<path class="st3" d="M303.3,93.7l-36.4-3c-3.3-0.3-6.1,2.5-6.2,6.2l-0.2,11.3c-0.1,3.7,2.5,6.9,5.9,7.2l36.4,2.9
			c3.3,0.3,6-2.5,6.1-6.2l0.2-11.2C309.2,97.2,306.6,94,303.3,93.7z"/>
		<g>
			<path class="st3" d="M297.1,134.8l-25.5-1.9c-1.7-0.1-3.2,1.3-3.2,3.2l-0.3,12.8c0,1.9,1.3,3.6,3.1,3.7l25.5,1.9
				c1.7,0.1,3.1-1.3,3.2-3.2l0.3-12.7C300.2,136.6,298.8,134.9,297.1,134.8z"/>
			<path class="st3" d="M333.6,137.6l-25.3-1.9c-1.7-0.1-3.1,1.3-3.2,3.2l-0.3,12.7c0,1.9,1.3,3.5,3,3.7l25.3,1.9
				c1.7,0.1,3.1-1.3,3.1-3.2l0.3-12.7C336.6,139.3,335.3,137.7,333.6,137.6z"/>
			<path class="st3" d="M224.4,129.5l-25.5-1.9c-1.7-0.1-3.2,1.3-3.2,3.2l-0.3,12.8c0,1.9,1.3,3.6,3.1,3.7l25.5,1.9
				c1.7,0.1,3.1-1.3,3.2-3.2l0.3-12.7C227.5,131.3,226.1,129.6,224.4,129.5z"/>
			<path class="st3" d="M260.9,132.3l-25.3-1.9c-1.7-0.1-3.1,1.3-3.2,3.2l-0.3,12.7c0,1.9,1.3,3.5,3,3.7l25.3,1.9
				c1.7,0.1,3.1-1.3,3.1-3.2l0.3-12.7C263.9,134,262.6,132.4,260.9,132.3z"/>
			<path class="st3" d="M369.7,140.3l-25.1-1.9c-1.7-0.1-3.1,1.3-3.1,3.2l-0.3,12.7c0,1.9,1.3,3.5,3,3.7l25.1,1.9
				c1.7,0.1,3.1-1.3,3.1-3.2l0.3-12.6C372.7,142.1,371.4,140.5,369.7,140.3z"/>
		</g>
		<g>
			<polygon class="st3" points="284.9,132 283.8,131.9 284.1,118.4 285.2,118.4 			"/>
			<path class="st3" d="M248.3,129.2l-1.2-0.1l0.1-3.5c0-1.9,1.4-3.3,3.1-3.1l25.2,2c1,0.1,1.9-0.8,1.9-1.9l0.1-4.7l1.1,0.1
				l-0.1,4.7c0,1.9-1.4,3.3-3.1,3.1l-25.2-2c-1-0.1-1.9,0.8-1.9,1.9L248.3,129.2z"/>
			<path class="st3" d="M321.1,134.8l-1.1-0.1l0.1-3.4c0-1.1-0.8-2.1-1.8-2.2l-25-1.9c-1.7-0.1-3-1.7-2.9-3.6l0.1-4.7l1.1,0.1
				l-0.1,4.7c0,1.1,0.8,2.1,1.8,2.2l25,1.9c1.6,0.1,3,1.7,2.9,3.6L321.1,134.8z"/>
		</g>
		<g>
			<path class="st3" d="M242.7,166.5l-1.1-0.1l0.1-3.4c0-1.1-0.8-2.1-1.8-2.2l-25-1.9c-1.7-0.1-3-1.7-2.9-3.6l0.1-4.7l1.1,0.1
				l-0.1,4.7c0,1.1,0.8,2.1,1.8,2.2l25,1.9c1.6,0.1,3,1.7,2.9,3.6L242.7,166.5z"/>
		</g>
		<g>
			<path class="st3" d="M259.6,169.3l-25.5-1.8c-1.7-0.1-3.2,1.3-3.2,3.2l-0.3,12.8c0,1.9,1.3,3.6,3.1,3.7l25.5,1.8
				c1.7,0.1,3.1-1.3,3.2-3.2l0.3-12.7C262.7,171.1,261.4,169.5,259.6,169.3z"/>
			<path class="st3" d="M296.1,172l-25.3-1.8c-1.7-0.1-3.1,1.3-3.2,3.2l-0.3,12.7c0,1.9,1.3,3.5,3,3.7l25.3,1.8
				c1.7,0.1,3.1-1.3,3.2-3.2l0.3-12.7C299.2,173.7,297.8,172.1,296.1,172z"/>
			<path class="st3" d="M332.2,174.6l-25.1-1.8c-1.7-0.1-3.1,1.3-3.1,3.2l-0.3,12.7c0,1.9,1.3,3.5,3,3.6l25.1,1.7
				c1.7,0.1,3.1-1.3,3.1-3.2l0.3-12.6C335.3,176.3,333.9,174.7,332.2,174.6z"/>
		</g>
		<g>
			<polygon class="st3" points="284.1,169.2 283,169.2 283.3,155.6 284.4,155.7 			"/>
			<path class="st3" d="M247.5,166.6l-1.2-0.1l0.1-3.5c0-1.9,1.4-3.3,3.1-3.1l25.2,1.8c1,0.1,1.9-0.8,1.9-1.9l0.1-4.7l1.1,0.1
				l-0.1,4.7c0,1.9-1.4,3.3-3.1,3.1l-25.2-1.8c-1-0.1-1.9,0.8-1.9,2L247.5,166.6z"/>
			<path class="st3" d="M320.3,171.9l-1.1-0.1l0.1-3.4c0-1.1-0.8-2.1-1.8-2.2l-25-1.8c-1.7-0.1-3-1.7-2.9-3.6l0.1-4.7l1.1,0.1
				l-0.1,4.7c0,1.1,0.8,2.1,1.8,2.2l25,1.8c1.6,0.1,3,1.7,2.9,3.6L320.3,171.9z"/>
			<path class="st3" d="M325,172.2l1.1,0.1l0.4-3.4c0.1-1.1,1.1-2,2.1-1.9l25,1.6c1.7,0.1,3.2-1.3,3.4-3.1l0.5-4.7l-1.1-0.1
				l-0.5,4.7c-0.1,1.1-1.1,2-2.1,1.9l-25-1.6c-1.6-0.1-3.2,1.3-3.4,3.1L325,172.2z"/>
		</g>
	</g>
</g>
</svg>
