<?xml version="1.0" encoding="utf-8"?>
<!-- Generator: Adobe Illustrator 25.2.1, SVG Export Plug-In . SVG Version: 6.00 Build 0)  -->
<svg version="1.1" id="Layer_1" xmlns="http://www.w3.org/2000/svg" xmlns:xlink="http://www.w3.org/1999/xlink" x="0px" y="0px"
	 viewBox="0 0 500 500" style="enable-background:new 0 0 500 500;" xml:space="preserve">
<style type="text/css">
	.st0{opacity:0.3;}
	.st1{fill:#B3B3B3;}
	.st2{fill:#A35EE8;}
	.st3{fill:#CAA1F1;}
	.st4{fill:#DDC0FF;}
	.st5{fill:none;stroke:#FFFFFF;stroke-miterlimit:10;}
	.st6{opacity:0.2;}
	.st7{fill:#808080;}
	.st8{fill:#121929;}
	.st9{fill:#29364B;}
	.st10{fill:#FF4A4A;}
	.st11{fill:#FF9797;}
	.st12{fill:#CDD9F2;}
	.st13{fill:#FFFFFF;}
	.st14{fill:#86ABF4;}
	.st15{opacity:0.1;}
	.st16{fill:#4470C2;}
	.st17{fill:#9BBFFF;}
	.st18{fill:#C9DEFF;}
	.st19{fill:#EBF3FF;}
	.st20{fill:#CCCCCC;}
	.st21{opacity:3.000000e-02;}
	.st22{fill:#1B3B8B;}
	.st23{fill:#214C9E;}
	.st24{fill:#FFC597;}
	.st25{fill:none;stroke:#4470C2;stroke-width:0.2;stroke-miterlimit:10;}
	.st26{fill:#1C2838;}
	.st27{fill:#2A5DB0;}
</style>
<g>
	<g class="st0">
		<path class="st1" d="M118.5,262.8l36.5-21.1l27.1,9.8c11.8-4.1,24.5-7.1,37.5-9l7.4-18.1l51.5,0l7.1,18.1c13,1.9,25.6,4.9,37.4,9
			l27.2-9.8l36.3,21.1l-17,15.7c7.1,6.8,12.2,14.2,15.4,21.7l31.2,4.2l-0.2,29.8l-31.2,4.2c-3.3,7.5-8.5,14.9-15.6,21.7l16.8,15.8
			L349.5,397l-27.1-9.8c-11.8,4.1-24.5,7.1-37.5,9l-7.3,18.1l-51.5,0l-2.2-1.3l-4.9-16.8c-13-1.9-25.7-4.9-37.5-9l-27.2,9.8
			l-36.3-21.1l17-15.7c-7.1-6.8-12.2-14.2-15.4-21.7l-31.2-4.2l-2.2-1.3l2.4-28.5l31.2-4.2c3.3-7.5,8.5-14.9,15.7-21.7L118.5,262.8z
			"/>
	</g>
	<g>
		<path class="st2" d="M116.3,261.4l36.5-21.1l27.1,9.8c11.8-4.1,24.5-7.1,37.5-9l7.4-18.1l51.5,0l7.1,18.1c13,1.9,25.6,4.9,37.4,9
			l27.2-9.8l36.3,21.1l-17,15.7c7.1,6.8,12.2,14.2,15.4,21.7l31.2,4.2l-0.2,29.8l-31.2,4.2c-3.3,7.5-8.5,14.9-15.6,21.7l16.8,15.8
			l-36.5,21.1l-27.1-9.8c-11.8,4.1-24.5,7.1-37.5,9l-7.3,18.1l-51.5,0l-7.1-18.1c-13-1.9-25.7-4.9-37.5-9l-27.2,9.8l-36.3-21.1
			l17-15.7c-7.1-6.8-12.2-14.2-15.4-21.7L86,332.9l0.2-29.8l31.2-4.2c3.3-7.5,8.5-14.9,15.7-21.7L116.3,261.4z"/>
	</g>
	<polygon class="st2" points="116.3,261.4 116.3,250.8 133.1,266.5 133.1,277.2 	"/>
	<polygon class="st2" points="384.4,250.8 384.4,261.4 367.3,277.2 367.3,266.5 	"/>
	<g>
		<path class="st3" d="M116.3,250.8l36.5-21.1l27.1,9.8c11.8-4.1,24.5-7.1,37.5-9l7.4-18.1l51.5,0l7.1,18.1c13,1.9,25.6,4.9,37.4,9
			l27.2-9.8l36.3,21.1l-17,15.7c7.1,6.8,12.2,14.2,15.4,21.7l31.2,4.2l-0.2,29.8l-31.2,4.2c-3.3,7.5-8.5,14.9-15.6,21.7l16.8,15.8
			L347.3,385l-27.1-9.8c-11.8,4.1-24.5,7.1-37.5,9l-7.3,18.1l-51.5,0l-7.1-18.1c-13-1.9-25.7-4.9-37.5-9l-27.2,9.8l-36.3-21.1
			l17-15.7c-7.1-6.8-12.2-14.2-15.4-21.7L86,322.3l0.2-29.8l31.2-4.2c3.3-7.5,8.5-14.9,15.7-21.7L116.3,250.8z"/>
	</g>
	<polygon class="st2" points="347.3,395.7 347.3,385 320.1,375.2 320.1,385.9 	"/>
	<polygon class="st2" points="275.2,402.3 275.2,412.9 282.6,394.9 282.6,384.2 	"/>
	<polygon class="st2" points="223.7,412.9 223.7,402.3 216.6,384.2 216.6,394.8 	"/>
	<polygon class="st2" points="151.9,395.7 151.9,385 179.1,375.2 179.1,385.9 	"/>
	<polygon class="st2" points="117.2,337.1 117.2,326.5 86,322.3 86,332.9 	"/>
	<polygon class="st2" points="382.6,337.1 382.6,326.5 413.8,322.3 413.8,332.9 	"/>
	<polygon class="st4" points="383.8,363.9 383.8,374.6 347.3,395.7 347.3,385 	"/>
	<polygon class="st4" points="115.6,374.6 115.6,363.9 151.9,385 151.9,395.7 	"/>
	<g>
		
			<ellipse transform="matrix(1 -2.835242e-03 2.835242e-03 1 -0.8669 0.7086)" class="st5" cx="249.5" cy="306.1" rx="127" ry="73.6"/>
	</g>
</g>
<g>
	<g class="st6">
		<path class="st7" d="M146.4,274.3l78.8-45.5c1.5-0.9,4.1-0.9,5.6,0l7.2,4.2c1.5,0.9,1.5,2.3,0,3.2l-78.8,45.5
			c-1.5,0.9-4.1,0.9-5.6,0l-7.2-4.2C144.9,276.6,144.9,275.2,146.4,274.3z"/>
	</g>
	<path class="st8" d="M159.6,89.5l58.2-33.6c2.8-1.6,5.4-1.7,7.2-0.6l3,1.8l-1.2,0.2c0.6,1.1,1,2.6,1,4.3l0.5,162.4
		c0,6.3-4.4,14-9.9,17.2l-58.2,33.6c-1.6,0.9-3,1.3-4.4,1.4l0.3,1.1l-3-1.7c0,0,0,0,0,0l0,0l0,0c-1.8-1-2.9-3.3-2.9-6.4l-0.5-162.4
		C149.2,98.7,154,92.7,159.6,89.5z"/>
	<g>
		<path class="st9" d="M162.9,91.4l58.2-33.6c5.5-3.2,10-0.6,10,5.7l0.5,162.4c0,6.3-4.4,14-9.9,17.2l-58.2,33.6
			c-5.5,3.2-10,0.6-10-5.7l-0.5-162.4C152.5,100.7,157.4,94.6,162.9,91.4z"/>
	</g>
	<g>
		<path class="st8" d="M163.3,93.1l57.4-33.2c4.8-2.8,8.7-0.5,8.8,5l0.5,161.5c0,5.5-3.9,12.3-8.7,15.1l-57.4,33.2
			c-4.8,2.8-8.7,0.5-8.8-5l-0.5-161.5C154.6,101.4,158.5,95.8,163.3,93.1z"/>
	</g>
	<g>
		<path class="st2" d="M163.4,94.9l7.3-4.2c0.4-0.3,0.8-0.1,0.9,0.4c0.4,3,2.8,4.1,5.7,2.4l29.5-17c2.9-1.7,5.3-5.6,5.7-9.1
			c0.1-0.5,0.4-1.1,0.9-1.4c1.4-0.8,4.4-2.5,7.3-4.2c4.1-2.4,7.4-0.5,7.4,4.2l0.5,160.8c0,4.7-3.3,10.4-7.4,12.8l-57.2,33
			c-4.1,2.4-7.4,0.5-7.4-4.2L156,107.6C156,103,159.3,97.2,163.4,94.9z"/>
	</g>
	<g>
		<g>
			<path class="st10" d="M188.4,177.7l19.6-11.3c0.8-0.4,1.4-0.1,1.4,0.8c0,0.9-0.6,2-1.4,2.4l-19.6,11.3c-0.8,0.4-1.4,0.1-1.4-0.8
				S187.6,178.2,188.4,177.7"/>
			<path class="st10" d="M178.3,183.5l5.1-3c0.8-0.4,1.4-0.1,1.4,0.8c0,0.9-0.6,2-1.4,2.4l-5.1,3c-0.8,0.4-1.4,0.1-1.4-0.8
				S177.6,184,178.3,183.5"/>
		</g>
		<g>
			<path class="st11" d="M181.2,190.1l23.8-13.8c0.4-0.3,0.8-0.1,0.8,0.5c0,0.5-0.3,1.1-0.8,1.4l-23.8,13.8c-0.4,0.3-0.8,0-0.8-0.4
				C180.5,191,180.8,190.4,181.2,190.1"/>
			<path class="st11" d="M181.3,197.3l4.4-2.5c0.4-0.3,0.8,0,0.8,0.5c0,0.5-0.3,1.1-0.8,1.4l-4.4,2.5c-0.4,0.3-0.8,0-0.8-0.4
				C180.5,198.2,180.8,197.6,181.3,197.3"/>
			<path class="st11" d="M188.9,192.9l16.2-9.3c0.4-0.3,0.8-0.1,0.8,0.5c0,0.5-0.3,1.1-0.8,1.4l-16.2,9.3c-0.4,0.3-0.8,0.1-0.8-0.4
				C188.1,193.7,188.5,193.1,188.9,192.9"/>
			<path class="st11" d="M179.3,194.8l17.6-10.2c0.4-0.3,0.8,0,0.8,0.4c0,0.5-0.3,1.1-0.8,1.4l-17.6,10.2c-0.4,0.3-0.8,0.1-0.8-0.4
				C178.6,195.7,178.9,195.1,179.3,194.8"/>
			<path class="st11" d="M200.2,182.8l6.8-3.9c0.4-0.3,0.8,0,0.8,0.4c0,0.5-0.3,1.1-0.8,1.4l-6.8,3.9c-0.4,0.3-0.8,0-0.8-0.4
				C199.4,183.7,199.7,183.1,200.2,182.8"/>
		</g>
	</g>
	<g>
		<path class="st12" d="M192.1,107.5c0.2-0.1,0.4-0.2,0.6-0.3c1.5-0.7,2.9-1.2,4.2-1.2c1.1,0,2.1,0.6,2.6,1.6
			c0.3,0.6,0.4,1.3,0.3,2.1c0,0.1,0,0.2,0,0.3c0.1-0.1,0.2-0.2,0.3-0.2c0.4-0.2,0.9-0.3,1.2-0.2c0.8,0.3,1.1,1.3,1.2,2.4
			c0.2,1.2,0.1,2.6,0,4c-0.1,0.7-0.2,1.4-0.3,2.1c0,0.3-0.1,0.6-0.2,0.9c0.9-0.3,1.6,1.1,0.9,3c-0.7,1.8-1.3,3.7-2.1,4.1
			c0,0-0.1,0-0.1,0.1c-0.1,0-0.2,0-0.3,0c-0.6,2.2-1.6,4.4-2.9,6.3l0,4.5l11.6,0c1.2,0,2,0.9,2.1,2.3l1,9.3c0,0-7,7.6-20,15.1
			c-11.5,6.6-20,8-20,8l0.9-10.4c0.1-1.6,0.9-3.4,2.1-4.8l11.5-13.3l0-4.5c-1.3-0.5-2.3-1.5-2.9-2.9c-0.1,0.1-0.2,0.2-0.3,0.3
			c0,0-0.1,0.1-0.1,0.1c-0.8,0.5-1.4-0.8-2.1-1.7c-0.8-1-0.1-3.3,0.8-4c-0.1-1.6-0.1-3.2,0.1-4.9c0.1-1.7,0.2-3.9,1.3-5.6
			c0.1-0.1,0.1-0.2,0.2-0.3c-0.2-0.2-0.3-0.4-0.3-0.7c-0.1-1,0.5-2.2,1.4-3c0.4-0.3,0.7-0.6,1.1-0.8c0.1-0.1,0.2-0.1,0.3-0.1
			c0-0.2-0.1-0.3-0.1-0.5c0-1.1,0.7-2.5,1.6-3.3c0.4-0.3,0.7-0.6,1.1-0.8c0.3-0.2,0.7-0.3,1-0.4c0-0.1,0-0.1,0-0.2
			c0.1-0.4,0.4-0.9,0.7-1.2C191.2,108.2,191.7,107.8,192.1,107.5"/>
	</g>
	<g>
		<g>
			<path class="st10" d="M180.1,210.5c5-2.9,9.1-0.6,9.1,5.2c0,5.8-4,12.8-9.1,15.7c-5,2.9-9.1,0.6-9.1-5.2
				C171,220.4,175.1,213.4,180.1,210.5z"/>
		</g>
		<g>
			<path class="st13" d="M180.2,218.2c2.8-1.6,4.1-1.5,4.9-1.2c0.8,0.3,1.1,1.3,1,2c-0.1,0.4-0.3,1-0.5,1.4
				c-0.1,0.2-0.3,0.4-0.4,0.5c-0.1,0-0.1,0.1-0.2,0.1l-1.8,0.3c-0.2,0-0.4-0.1-0.4-0.4l0-1.1c0-0.2-0.1-0.4-0.3-0.4
				c-0.8,0-2.2,0.8-2.2,0.8s-1.4,0.8-2.2,1.7c-0.2,0.2-0.3,0.5-0.3,0.7l0,1.1c0,0.3-0.1,0.6-0.4,0.8l-1.8,1.8
				c-0.1,0.1-0.1,0.1-0.2,0.1c-0.2,0.1-0.3,0.1-0.4,0c-0.2-0.2-0.4-0.5-0.5-0.8c-0.1-0.5,0.2-2,1-3.1
				C176.1,221.5,177.4,219.8,180.2,218.2"/>
		</g>
	</g>
	<g>
		<g>
			<path class="st14" d="M205.5,195.8c5-2.9,9.1-0.6,9.1,5.2c0,5.8-4,12.8-9.1,15.7c-5,2.9-9.1,0.6-9.1-5.2
				C196.4,205.7,200.5,198.7,205.5,195.8z"/>
		</g>
		<g>
			<path class="st13" d="M208.2,199.3C208.3,199.2,208.3,199.2,208.2,199.3c0.4-0.2,0.8-0.3,1.1-0.3c0.5,0,1,0.9,0.9,2.1
				c-0.1,1.2-0.5,3.1-2.4,6.5c-2,3.4-3.5,4.7-4.4,5.4c-0.1,0.1-0.2,0.1-0.2,0.2c-0.9,0.5-1.8,0.5-2,0.1c-0.2-0.2-0.2-0.7-0.3-1
				c0-0.2,0.1-0.6,0.3-0.8l1.7-2c0.1-0.1,0.2-0.2,0.2-0.2c0.1-0.1,0.3-0.1,0.4,0l0.7,0.4c0.1,0.1,0.2,0,0.4,0c0.1,0,0.1-0.1,0.2-0.1
				c0.9-0.8,1.9-2.5,1.9-2.5s1-1.7,1.3-2.9c0.1-0.3,0-0.5-0.1-0.5L207,203c-0.2-0.1-0.2-0.4-0.1-0.6l0.9-2.5
				C207.8,199.6,208,199.4,208.2,199.3"/>
		</g>
	</g>
	<g>
		<path class="st9" d="M187.4,82.8l10.2-5.9c0.3-0.2,0.5,0,0.5,0.3c0,0.3-0.2,0.7-0.5,0.9L187.4,84c-0.3,0.2-0.5,0-0.5-0.3
			C186.9,83.3,187.1,82.9,187.4,82.8"/>
	</g>
	<g>
		<path class="st9" d="M183.7,84.6c0.5-0.3,1-0.1,1,0.5c0,0.6-0.4,1.3-1,1.6c-0.5,0.3-1,0.1-1-0.5C182.8,85.6,183.2,84.9,183.7,84.6
			"/>
	</g>
	<g>
		<path class="st8" d="M183.7,84.8c0.4-0.2,0.7,0,0.7,0.4c0,0.5-0.3,1-0.7,1.3c-0.4,0.2-0.7,0-0.7-0.4
			C183,85.6,183.3,85.1,183.7,84.8"/>
	</g>
	<g>
		<path class="st9" d="M183.7,85.5c0.1-0.1,0.2,0,0.2,0.1c0,0.1-0.1,0.2-0.2,0.3c-0.1,0.1-0.2,0-0.2-0.1
			C183.6,85.7,183.7,85.5,183.7,85.5"/>
	</g>
	<g class="st15">
		<g>
			<path class="st13" d="M170.7,90.7c0.4-0.3,0.8-0.1,0.9,0.4c0.4,3,2.8,4.1,5.7,2.4l29.5-17c2.6-1.5,4.8-4.7,5.5-7.8l15.8,12
				l0.2,60.2l-62.3-47.4L170.7,90.7z"/>
		</g>
		<g>
			<polygon class="st13" points="228.3,168.6 228.3,181.6 156.1,126.6 156.1,113.6 			"/>
		</g>
		<g>
			<path class="st13" d="M228.4,226.9c0,4.7-3.3,10.4-7.4,12.8l-17.1,9.9l-47.6-36.2l-0.2-60.2l72.2,55L228.4,226.9z"/>
		</g>
		<g>
			<polygon class="st13" points="173.6,267.1 156.5,254.1 156.4,241.1 183.3,261.5 			"/>
		</g>
	</g>
	<g>
		<path class="st14" d="M132.9,186.4l9-5.2c0.3-0.2,0.5,0,0.5,0.3c0,0.3-0.2,0.8-0.5,0.9l-9,5.2c-0.3,0.2-0.6,0-0.6-0.3
			S132.6,186.5,132.9,186.4"/>
		<path class="st14" d="M129.1,191.4l12.8-7.4c0.3-0.2,0.5,0,0.5,0.3c0,0.3-0.2,0.8-0.5,1l-12.8,7.4c-0.3,0.2-0.5,0-0.5-0.3
			C128.5,192,128.8,191.6,129.1,191.4"/>
		<path class="st14" d="M120.7,196.2l5.5-3.2c0.3-0.2,0.6,0,0.6,0.3c0,0.3-0.2,0.8-0.6,1l-5.5,3.2c-0.3,0.2-0.6,0-0.6-0.3
			C120.2,196.8,120.4,196.4,120.7,196.2"/>
		<path class="st14" d="M137.3,189.5l4.6-2.6c0.3-0.2,0.5,0,0.5,0.3c0,0.3-0.2,0.8-0.5,0.9l-4.6,2.6c-0.3,0.2-0.5,0-0.5-0.3
			C136.8,190.1,137,189.7,137.3,189.5"/>
		<path class="st14" d="M125.8,196.1l9.1-5.3c0.3-0.2,0.6,0,0.6,0.3c0,0.3-0.2,0.8-0.6,0.9l-9.1,5.3c-0.3,0.2-0.5,0-0.5-0.3
			S125.5,196.3,125.8,196.1"/>
		<path class="st14" d="M134.1,194.2l7.8-4.5c0.3-0.2,0.5,0,0.5,0.3c0,0.3-0.2,0.8-0.5,0.9l-7.8,4.5c-0.3,0.2-0.5,0-0.5-0.3
			C133.6,194.8,133.8,194.4,134.1,194.2"/>
		<path class="st14" d="M129.1,197.1l2.6-1.5c0.3-0.2,0.5,0,0.5,0.3c0,0.3-0.2,0.8-0.5,0.9l-2.6,1.5c-0.3,0.2-0.5,0-0.5-0.3
			C128.6,197.7,128.8,197.3,129.1,197.1"/>
		<path class="st14" d="M123.7,191.7l7.2-4.2c0.3-0.2,0.5,0,0.5,0.3c0,0.3-0.2,0.8-0.5,0.9l-7.2,4.2c-0.3,0.2-0.6,0-0.6-0.3
			C123.2,192.3,123.4,191.8,123.7,191.7"/>
		<path class="st8" d="M128.8,183.6l12.7-7.3c0.5-0.3,0.9-0.1,0.9,0.5c0,0.6-0.4,1.3-0.9,1.6l-12.7,7.3c-0.5,0.3-0.9,0.1-0.9-0.5
			C127.9,184.6,128.3,183.9,128.8,183.6"/>
		<path class="st8" d="M120.9,188.1l4.7-2.7c0.5-0.3,0.9-0.1,0.9,0.5c0,0.6-0.4,1.3-0.9,1.6l-4.7,2.7c-0.5,0.3-0.9,0.1-0.9-0.5
			C120,189.2,120.4,188.4,120.9,188.1"/>
	</g>
	<g>
		<path class="st14" d="M133.1,207.3l9-5.2c0.3-0.2,0.5,0,0.5,0.3c0,0.3-0.2,0.8-0.5,0.9l-9,5.2c-0.3,0.2-0.6,0-0.6-0.3
			C132.6,207.9,132.8,207.5,133.1,207.3"/>
		<path class="st14" d="M129.3,212.3l12.8-7.4c0.3-0.2,0.5,0,0.5,0.3c0,0.3-0.2,0.8-0.5,1l-12.8,7.4c-0.3,0.2-0.5,0-0.5-0.3
			C128.8,212.9,129,212.5,129.3,212.3"/>
		<path class="st14" d="M121,217.2l5.5-3.2c0.3-0.2,0.6,0,0.6,0.3c0,0.3-0.2,0.8-0.6,1l-5.5,3.2c-0.3,0.2-0.6,0-0.6-0.3
			C120.4,217.8,120.7,217.3,121,217.2"/>
		<path class="st14" d="M137.6,210.4l4.6-2.6c0.3-0.2,0.5,0,0.5,0.3c0,0.3-0.2,0.8-0.5,0.9l-4.6,2.6c-0.3,0.2-0.5,0-0.5-0.3
			C137,211,137.3,210.6,137.6,210.4"/>
		<path class="st14" d="M126.1,217.1l9.1-5.3c0.3-0.2,0.6,0,0.6,0.3c0,0.3-0.2,0.8-0.6,0.9l-9.1,5.3c-0.3,0.2-0.5,0-0.5-0.3
			C125.5,217.7,125.8,217.2,126.1,217.1"/>
		<path class="st14" d="M134.4,215.1l7.8-4.5c0.3-0.2,0.5,0,0.5,0.3c0,0.3-0.2,0.8-0.5,0.9l-7.8,4.5c-0.3,0.2-0.5,0-0.5-0.3
			C133.8,215.7,134.1,215.3,134.4,215.1"/>
		<path class="st14" d="M129.3,218l2.6-1.5c0.3-0.2,0.5,0,0.5,0.3c0,0.3-0.2,0.8-0.5,0.9l-2.6,1.5c-0.3,0.2-0.5,0-0.5-0.3
			C128.8,218.6,129,218.2,129.3,218"/>
		<path class="st14" d="M124,212.6l7.2-4.2c0.3-0.2,0.5,0,0.5,0.3c0,0.3-0.2,0.8-0.5,0.9l-7.2,4.2c-0.3,0.2-0.6,0-0.6-0.3
			C123.4,213.2,123.7,212.8,124,212.6"/>
		<path class="st8" d="M129.1,204.5l12.7-7.3c0.5-0.3,0.9-0.1,0.9,0.5c0,0.6-0.4,1.3-0.9,1.6l-12.7,7.3c-0.5,0.3-0.9,0.1-0.9-0.5
			C128.2,205.5,128.6,204.8,129.1,204.5"/>
		<path class="st8" d="M121.2,209.1l4.7-2.7c0.5-0.3,0.9-0.1,0.9,0.5c0,0.6-0.4,1.3-0.9,1.6l-4.7,2.7c-0.5,0.3-0.9,0.1-0.9-0.5
			C120.2,210.1,120.7,209.4,121.2,209.1"/>
	</g>
	<g>
		<path class="st10" d="M139.9,163.9l-0.7,0.4c-1.1,0.6-1.9,2.1-1.9,3.3l0,1.7l-2.9-1.6c-0.4-0.2-0.8-0.1-1.4,0.1l-10,5.8
			c-0.4,0.2-0.7,0-0.7-0.4l0-13.4c0-0.5,0.3-1,0.7-1.3l16.9-9.8c0.4-0.2,0.7,0,0.7,0.4l0,13.4C140.7,163.1,140.3,163.6,139.9,163.9
			 M123,157.2c-1.1,0.6-1.9,2.1-1.9,3.3l0,13.4c0,1.2,0.9,1.7,1.9,1.1l10-5.8c0.2-0.1,0.4-0.1,0.5-0.1l3,1.6
			c0.2,0.1,0.5,0.1,0.8-0.1c0.2-0.1,0.3-0.2,0.4-0.4c0.4-0.5,0.7-1.1,0.7-1.6l0-1.8c0-0.5,0.3-1,0.7-1.3l0.7-0.4
			c1.1-0.6,1.9-2.1,1.9-3.3l0-13.4c0-1.2-0.9-1.7-1.9-1.1L123,157.2"/>
		<path class="st10" d="M136.6,156.6c0.9-0.5,1.6-0.1,1.6,0.9c0,1-0.7,2.2-1.6,2.7c-0.9,0.5-1.6,0.1-1.6-0.9
			C135.1,158.3,135.8,157.1,136.6,156.6"/>
		<path class="st10" d="M131.5,159.5c0.9-0.5,1.6-0.1,1.6,0.9c0,1-0.7,2.2-1.6,2.7c-0.9,0.5-1.6,0.1-1.6-0.9
			C129.9,161.3,130.6,160,131.5,159.5"/>
		<path class="st10" d="M126.3,162.5c0.9-0.5,1.6-0.1,1.6,0.9c0,1-0.7,2.2-1.6,2.7c-0.9,0.5-1.6,0.1-1.6-0.9
			C124.7,164.2,125.4,163,126.3,162.5"/>
	</g>
	<g>
		<path class="st16" d="M257.1,154l-0.7,0.4c-1.1,0.6-1.9,2.1-1.9,3.3l0,1.7l-2.9-1.6c-0.4-0.2-0.8-0.1-1.4,0.1l-10,5.8
			c-0.4,0.2-0.7,0-0.7-0.4l0-13.4c0-0.5,0.3-1,0.7-1.3L257,139c0.4-0.2,0.7,0,0.7,0.4l0,13.4C257.8,153.2,257.5,153.8,257.1,154
			 M240.1,147.3c-1.1,0.6-1.9,2.1-1.9,3.3l0,13.4c0,1.2,0.9,1.7,1.9,1.1l10-5.8c0.2-0.1,0.4-0.1,0.5-0.1l3,1.6
			c0.2,0.1,0.5,0.1,0.8-0.1c0.2-0.1,0.3-0.2,0.4-0.4c0.4-0.5,0.7-1.1,0.7-1.6l0-1.8c0-0.5,0.3-1,0.7-1.3l0.7-0.4
			c1.1-0.6,1.9-2.1,1.9-3.3l0-13.4c0-1.2-0.9-1.7-1.9-1.1L240.1,147.3"/>
		<path class="st16" d="M253.8,146.7c0.9-0.5,1.6-0.1,1.6,0.9c0,1-0.7,2.2-1.6,2.7c-0.9,0.5-1.6,0.1-1.6-0.9
			C252.2,148.4,252.9,147.2,253.8,146.7"/>
		<path class="st16" d="M248.6,149.7c0.9-0.5,1.6-0.1,1.6,0.9c0,1-0.7,2.2-1.6,2.7c-0.9,0.5-1.6,0.1-1.6-0.9
			C247,151.4,247.7,150.2,248.6,149.7"/>
		<path class="st16" d="M243.4,152.7c0.9-0.5,1.6-0.1,1.6,0.9c0,1-0.7,2.2-1.6,2.7c-0.9,0.5-1.6,0.1-1.6-0.9
			C241.9,154.4,242.6,153.2,243.4,152.7"/>
	</g>
	<g>
		<path class="st8" d="M246.6,132.1c-6.8,3.9-12.3,0.8-12.3-7c0-7.8,5.4-17.2,12.2-21.1c6.8-3.9,12.3-0.8,12.3,7
			C258.9,118.8,253.4,128.2,246.6,132.1 M246.6,102.3c-7.6,4.4-13.7,15-13.7,23.7s6.2,12.2,13.8,7.9c7.6-4.4,13.7-15,13.7-23.7
			C260.3,101.4,254.1,97.9,246.6,102.3"/>
		<path class="st8" d="M246.6,106.6c0.3-0.2,0.6,0,0.6,0.3l0.3,10.3c0,0.1,0,0.2,0,0.3c0,0.3-0.1,0.6-0.3,0.9
			c-0.2,0.3-0.4,0.5-0.6,0.6c0,0,0,0,0,0c-0.1,0-0.2,0.1-0.2,0.1l-7.4,3.9c-0.3,0.2-0.6,0-0.6-0.3c0-0.4,0.2-0.8,0.6-1.1l6.7-4.2
			l0.2-9.9C246,107.3,246.2,106.8,246.6,106.6C246.5,106.6,246.6,106.6,246.6,106.6"/>
	</g>
</g>
<g>
	<g>
		<g class="st6">
			<path class="st7" d="M177.6,322l109.9-63.4c2.2-1.2,5.6-1.2,7.8,0l43.1,25c2.1,1.2,2.1,3.3,0,4.5l-109.9,63.4
				c-2.2,1.2-5.6,1.2-7.8,0l-43.1-25C175.5,325.3,175.5,323.2,177.6,322z"/>
		</g>
		<g>
			<g>
				<path class="st9" d="M328.5,287L286,262.5l16.8-53.6l25.9,14.9L328.5,287 M282.3,263.5l49.1,28.3l0.2-69.6l-30.8-17.7
					L282.3,263.5z"/>
			</g>
			<polygon class="st8" points="289.8,261.5 286,262.5 302.8,208.9 305.7,210.6 			"/>
			<polygon class="st8" points="328.5,283.8 328.5,287 286,262.5 289.8,261.5 			"/>
			<polygon class="st8" points="335.3,220.1 331.5,222.3 331.3,291.9 335.1,289.7 			"/>
			<polygon class="st8" points="335.3,220.1 331.5,222.3 300.8,204.5 304.5,202.3 			"/>
		</g>
		<g>
			<g>
				<path class="st9" d="M226.2,346l-42.5-24.5l16.8-53.6l25.9,14.9L226.2,346 M179.9,322.5l49.1,28.3l0.2-69.6l-30.8-17.7
					L179.9,322.5z"/>
			</g>
			<polygon class="st8" points="187.4,320.4 183.7,321.5 200.5,267.9 203.4,269.6 			"/>
			<polygon class="st8" points="226.2,342.8 226.2,346 183.7,321.5 187.4,320.4 			"/>
			<polygon class="st8" points="232.9,279 229.1,281.2 228.9,350.8 232.7,348.6 			"/>
			<polygon class="st8" points="232.9,279 229.1,281.2 198.4,263.5 202.1,261.3 			"/>
		</g>
		<path class="st17" d="M176,251.7l2,0.3l109.5-63.2c2.2-1.2,5.6-1.2,7.8,0l43,25l1.7-0.6l0,2.9c0,0,0,0,0,0l0,0l0,0
			c0,0.8-0.6,1.6-1.6,2.2l-109.9,63.4c-2.2,1.2-5.6,1.2-7.8,0l-43.1-25c-1.1-0.7-1.6-1.5-1.6-2.4l0,0C176,254.3,176,251.7,176,251.7
			z"/>
		<path class="st14" d="M220.7,281.8l-43.1-25c-1.1-0.7-1.6-1.5-1.6-2.4l0,0c0-0.1,0-2.7,0-2.7l2,0.3l15.3-8.8l31.4,31.4v8.1
			C223.3,282.7,221.8,282.4,220.7,281.8z"/>
		<g>
			<path class="st18" d="M177.6,249.2l109.9-63.4c2.2-1.2,5.6-1.2,7.8,0l43.1,25c2.1,1.2,2.1,3.3,0,4.5l-109.9,63.4
				c-2.2,1.2-5.6,1.2-7.8,0l-43.1-25C175.5,252.5,175.5,250.5,177.6,249.2z"/>
		</g>
		<g>
			<path class="st13" d="M323.6,206.5c0.3-0.1,0.6-0.2,0.9-0.2l-1.1,5.3l9.9-0.4c0,0.1,0,0.2,0,0.3l-9.9,0.4l-0.1,0.6l-1,0.1
				l-0.7,5.7c-0.2,0-0.4,0-0.6,0l0.7-5.7l-9.2,0.6c0-0.2,0.1-0.4,0.4-0.5c-0.5,0.3-0.5,0.8,0,1.1l7.3,4.2c0.6,0.3,1.5,0.3,2,0
				l10.7-6.2c0.6-0.3,0.6-0.8,0-1.2l-7.3-4.2C325.1,206.2,324.2,206.2,323.6,206.5 M312.8,212.7
				C312.8,212.7,312.8,212.7,312.8,212.7C312.8,212.7,312.8,212.7,312.8,212.7 M323.6,206.5C323.6,206.5,323.6,206.5,323.6,206.5
				C323.6,206.5,323.6,206.5,323.6,206.5"/>
			<path class="st19" d="M321.6,212.6l-0.7,5.7c0.2,0,0.4,0,0.6,0l0.7-5.7L321.6,212.6 M323.4,211.6l-0.1,0.3l9.9-0.4
				c0.1-0.1,0.1-0.2,0-0.3L323.4,211.6"/>
			<path class="st19" d="M312.8,212.7l10.7-6.2c0,0,0,0,0,0c0,0,0,0,0,0c0,0,0,0,0,0c0.3-0.1,0.6-0.2,0.9-0.2l-1.1,5.3l-0.1,0.3
				l-0.1,0.6l-1,0.1l-0.6,0l-9.2,0.6C312.4,213.1,312.6,212.9,312.8,212.7C312.8,212.7,312.8,212.7,312.8,212.7
				C312.8,212.7,312.8,212.7,312.8,212.7C312.8,212.7,312.8,212.7,312.8,212.7"/>
		</g>
		<g>
			<path class="st13" d="M308.3,198.3c0.3-0.1,0.6-0.2,0.9-0.2l-1.1,5.3l9.9-0.4c0,0.1,0,0.2,0,0.3l-9.9,0.4l-0.1,0.6l-1,0.1
				l-0.7,5.7c-0.2,0-0.4,0-0.6,0l0.7-5.7l-9.2,0.6c0-0.2,0.1-0.4,0.4-0.5c-0.5,0.3-0.5,0.8,0,1.1l7.3,4.2c0.6,0.3,1.5,0.3,2,0
				l10.7-6.2c0.6-0.3,0.6-0.8,0-1.2l-7.3-4.2C309.8,198,308.9,198,308.3,198.3 M297.5,204.6C297.5,204.6,297.5,204.6,297.5,204.6
				C297.5,204.6,297.5,204.6,297.5,204.6 M308.3,198.3C308.3,198.3,308.3,198.3,308.3,198.3C308.3,198.3,308.3,198.3,308.3,198.3"/>
			<path class="st19" d="M306.3,204.5l-0.7,5.7c0.2,0,0.4,0,0.6,0l0.7-5.7L306.3,204.5 M308.1,203.4l-0.1,0.3l9.9-0.4
				c0.1-0.1,0.1-0.2,0-0.3L308.1,203.4"/>
			<path class="st19" d="M297.6,204.5l10.7-6.2c0,0,0,0,0,0c0,0,0,0,0,0c0,0,0,0,0,0c0.3-0.1,0.6-0.2,0.9-0.2l-1.1,5.3l-0.1,0.3
				l-0.1,0.6l-1,0.1l-0.6,0l-9.2,0.6C297.2,204.9,297.3,204.7,297.6,204.5C297.5,204.6,297.5,204.6,297.6,204.5
				C297.5,204.6,297.5,204.6,297.6,204.5C297.5,204.5,297.5,204.5,297.6,204.5"/>
		</g>
		<g>
			<path class="st13" d="M293.1,190.1c0.3-0.1,0.6-0.2,0.9-0.2l-1.1,5.3l9.9-0.4c0,0.1,0,0.2,0,0.3l-9.9,0.4l-0.1,0.6l-1,0.1
				l-0.7,5.7c-0.2,0-0.4,0-0.6,0l0.7-5.7l-9.2,0.6c0-0.2,0.1-0.4,0.4-0.5c-0.5,0.3-0.5,0.8,0,1.1l7.3,4.2c0.6,0.3,1.5,0.3,2,0
				l10.7-6.2c0.6-0.3,0.6-0.8,0-1.2l-7.3-4.2C294.5,189.9,293.6,189.8,293.1,190.1 M282.2,196.4
				C282.2,196.4,282.2,196.4,282.2,196.4C282.2,196.4,282.2,196.4,282.2,196.4 M293,190.2C293.1,190.2,293.1,190.1,293,190.2
				C293.1,190.1,293.1,190.2,293,190.2"/>
			<path class="st19" d="M291.1,196.3l-0.7,5.7c0.2,0,0.4,0,0.6,0l0.7-5.7L291.1,196.3 M292.8,195.3l-0.1,0.3l9.9-0.4
				c0.1-0.1,0.1-0.2,0-0.3L292.8,195.3"/>
			<path class="st19" d="M282.3,196.4l10.7-6.2c0,0,0,0,0,0c0,0,0,0,0,0c0,0,0,0,0,0c0.3-0.1,0.6-0.2,0.9-0.2l-1.1,5.3l-0.1,0.3
				l-0.1,0.6l-1,0.1l-0.6,0l-9.2,0.6C281.9,196.7,282,196.6,282.3,196.4C282.2,196.4,282.2,196.4,282.3,196.4
				C282.2,196.4,282.2,196.4,282.3,196.4C282.3,196.4,282.3,196.4,282.3,196.4"/>
		</g>
		<g>
			<g>
				<polygon class="st13" points="198.4,254.2 213,245.7 231.3,256.3 216.7,264.8 				"/>
			</g>
			<g>
				<polyline class="st17" points="207,257 218.3,250.5 218.5,250.6 207.2,257.2 207,257 				"/>
				<polyline class="st17" points="207.9,257.6 219.2,251.1 219.4,251.2 208.1,257.7 207.9,257.6 				"/>
				<polyline class="st17" points="208.9,258.1 220.2,251.6 220.4,251.7 209.1,258.3 208.9,258.1 				"/>
				<polyline class="st17" points="209.8,258.7 221.1,252.2 221.3,252.3 210,258.8 209.8,258.7 				"/>
				<polyline class="st17" points="210.8,259.2 222.1,252.7 222.3,252.8 211,259.4 210.8,259.2 				"/>
				<polyline class="st17" points="211.7,259.8 223,253.3 223.2,253.4 211.9,259.9 211.7,259.8 				"/>
				<polyline class="st17" points="212.6,260.3 224,253.8 224.2,253.9 212.9,260.5 212.6,260.3 				"/>
				<polyline class="st17" points="213.6,260.9 224.9,254.4 225.1,254.5 213.8,261 213.6,260.9 				"/>
				<polyline class="st17" points="214.5,261.4 225.8,254.9 226.1,255 214.8,261.6 214.5,261.4 				"/>
				<polyline class="st17" points="221.4,258.7 226.8,255.5 227,255.7 221.6,258.8 221.4,258.7 				"/>
				<polyline class="st10" points="208.7,252.1 214.9,248.5 215.5,248.9 209.3,252.5 208.7,252.1 				"/>
				<polyline class="st16" points="212.3,251.2 215.9,249.1 216.3,249.4 212.7,251.4 212.3,251.2 				"/>
			</g>
		</g>
		<g>
			<g>
				<polygon class="st13" points="198.1,253.7 212.7,245.3 231,255.9 216.4,264.4 				"/>
			</g>
			<g>
				<polyline class="st17" points="206.7,256.6 218,250.1 218.2,250.2 206.9,256.7 206.7,256.6 				"/>
				<polyline class="st17" points="207.6,257.2 218.9,250.6 219.1,250.8 207.8,257.3 207.6,257.2 				"/>
				<polyline class="st17" points="208.6,257.7 219.9,251.2 220.1,251.3 208.8,257.8 208.6,257.7 				"/>
				<polyline class="st17" points="209.5,258.3 220.8,251.7 221,251.9 209.7,258.4 209.5,258.3 				"/>
				<polyline class="st17" points="210.5,258.8 221.8,252.3 222,252.4 210.7,258.9 210.5,258.8 				"/>
				<polyline class="st17" points="211.4,259.4 222.7,252.8 222.9,253 211.6,259.5 211.4,259.4 				"/>
				<polyline class="st17" points="212.3,259.9 223.7,253.4 223.9,253.5 212.6,260 212.3,259.9 				"/>
				<polyline class="st17" points="213.3,260.5 224.6,253.9 224.8,254.1 213.5,260.6 213.3,260.5 				"/>
				<polyline class="st17" points="214.2,261 225.5,254.5 225.8,254.6 214.5,261.1 214.2,261 				"/>
				<polyline class="st17" points="221.1,258.2 226.5,255.1 226.7,255.3 221.3,258.4 221.1,258.2 				"/>
				<polyline class="st10" points="208.4,251.7 214.6,248.1 215.2,248.4 209,252 208.4,251.7 				"/>
				<polyline class="st16" points="212,250.8 215.6,248.7 216,249 212.4,251 212,250.8 				"/>
			</g>
		</g>
		<g>
			<g>
				<polygon class="st13" points="202.1,253.4 216.8,244.9 235.1,255.6 220.4,264 				"/>
			</g>
			<g>
				<polyline class="st17" points="210.7,256.3 222,249.7 222.2,249.9 210.9,256.4 210.7,256.3 				"/>
				<polyline class="st17" points="211.7,256.8 223,250.3 223.2,250.4 211.9,256.9 211.7,256.8 				"/>
				<polyline class="st17" points="212.6,257.4 223.9,250.8 224.1,251 212.8,257.5 212.6,257.4 				"/>
				<polyline class="st17" points="213.6,257.9 224.9,251.4 225.1,251.5 213.8,258 213.6,257.9 				"/>
				<polyline class="st17" points="214.5,258.5 225.8,251.9 226,252.1 214.7,258.6 214.5,258.5 				"/>
				<polyline class="st17" points="215.4,259 226.7,252.5 227,252.6 215.7,259.1 215.4,259 				"/>
				<polyline class="st17" points="216.4,259.6 227.7,253 227.9,253.2 216.6,259.7 216.4,259.6 				"/>
				<polyline class="st17" points="217.3,260.1 228.6,253.6 228.9,253.7 217.6,260.2 217.3,260.1 				"/>
				<polyline class="st17" points="218.3,260.7 229.6,254.1 229.8,254.3 218.5,260.8 218.3,260.7 				"/>
				<polyline class="st17" points="225.1,257.9 230.5,254.8 230.7,254.9 225.3,258 225.1,257.9 				"/>
				<polyline class="st10" points="212.4,251.3 218.6,247.7 219.2,248.1 213,251.7 212.4,251.3 				"/>
				<polyline class="st16" points="216.1,250.4 219.7,248.3 220.1,248.6 216.5,250.7 216.1,250.4 				"/>
			</g>
		</g>
		<g>
			<g class="st0">
				<path class="st20" d="M239,237.9l17.1,9.9c0.4,0.2,0.9,0.2,1.4,0l28.2-16.4c0.9-0.5,0.9-1.8,0-2.4l-17.3-10
					c-0.4-0.2-0.9-0.2-1.4,0l-27.9,17.7C238.4,237.1,238.4,237.5,239,237.9z"/>
			</g>
			<g>
				<path class="st8" d="M238.7,236.4c0,0,0.8,0.1,1.1-0.1l28.6-16.7c0.4-0.2,0.9-0.2,1.3,0l15.8,8.5c1.1,0.8,0.9,2.4,0,2.9
					l-28.2,16.3c-0.4,0.2-0.9,0.2-1.3,0l-17.2-10C238.5,237.1,238.6,236.7,238.7,236.4L238.7,236.4z"/>
			</g>
			<g>
				<path class="st9" d="M269,198.7l-0.4,19.5c0,0.5-0.3,1-0.7,1.3l-28.1,16.6c-0.9,0.5-2.1-0.3-2.1-1.4l-0.1-19
					c0-0.5,0.3-1,0.7-1.2l28.6-16.9C267.8,196.9,269.1,197.5,269,198.7z"/>
			</g>
			<g>
				<path class="st8" d="M269,198.6l0.1,19.9c0,0.5-0.3,1-0.7,1.3l-28.1,16.4c-0.9,0.5-2.1-0.1-2.1-1.2l-0.1-19c0-0.5,0.3-1,0.7-1.2
					l28.7-17C268.2,197.3,269,197.8,269,198.6z"/>
			</g>
			<g>
				<polygon class="st16" points="268,198.7 268,218.2 239.3,234.8 239.2,215.5 				"/>
			</g>
			<g class="st21">
				<g>
					<polygon class="st13" points="264.3,200.9 268,202.6 268,216.5 251,208.7 					"/>
				</g>
				<g>
					<polygon class="st13" points="248.8,210 267.4,218.5 264,220.5 245.4,211.9 					"/>
				</g>
				<g>
					<polygon class="st13" points="243.2,213.2 261.7,221.8 248.3,229.6 239.3,225.4 239.2,215.5 					"/>
				</g>
				<g>
					<polygon class="st13" points="242.7,232.8 239.3,231.3 239.3,227.7 246.1,230.9 					"/>
				</g>
			</g>
			<g>
				<path class="st9" d="M238.8,236.8l17.3,10c0.4,0.2,0.9,0.2,1.3,0l28.1-16.4c0.9-0.5,0.9-1.7,0-2.2l-15.8-9.1
					c-0.4-0.2-0.9-0.2-1.3,0l-29.6,17.2C238.6,236.4,238.6,236.7,238.8,236.8z"/>
			</g>
			<g>
				<path class="st18" d="M262.5,237.5l4.3,2.6c0.1,0.1,0.2,0.1,0.3,0l7.6-4.4c0.2-0.1,0.2-0.5,0-0.6l-4.1-2.3
					c-0.1-0.1-0.2-0.1-0.3,0l-7.7,4.6C262.4,237.3,262.4,237.4,262.5,237.5z"/>
			</g>
			<g>
				<path class="st18" d="M269.3,221.4l-1,0.6c-0.1,0.1-0.3,0.1-0.4,0l-0.5-0.3c-0.1-0.1-0.1-0.2,0-0.2l1-0.6c0.1-0.1,0.3-0.1,0.4,0
					l0.5,0.3C269.4,221.2,269.4,221.3,269.3,221.4z"/>
				<path class="st18" d="M267.6,222.4l-1,0.6c-0.1,0.1-0.3,0.1-0.4,0l-0.5-0.3c-0.1-0.1-0.1-0.2,0-0.3l1-0.6c0.1-0.1,0.3-0.1,0.4,0
					l0.5,0.3C267.7,222.2,267.7,222.3,267.6,222.4z"/>
				<path class="st18" d="M265.8,223.4l-1,0.6c-0.1,0.1-0.3,0.1-0.4,0l-0.5-0.3c-0.1-0.1-0.1-0.2,0-0.3l1-0.6c0.1-0.1,0.3-0.1,0.4,0
					l0.5,0.3C265.9,223.2,265.9,223.3,265.8,223.4z"/>
				<path class="st18" d="M264.1,224.4l-1,0.6c-0.1,0.1-0.3,0.1-0.4,0l-0.5-0.3c-0.1-0.1-0.1-0.2,0-0.3l1-0.6c0.1-0.1,0.3-0.1,0.4,0
					l0.5,0.3C264.2,224.3,264.2,224.4,264.1,224.4z"/>
				<path class="st18" d="M262.3,225.5l-1,0.6c-0.1,0.1-0.3,0.1-0.4,0l-0.5-0.3c-0.1-0.1-0.1-0.2,0-0.3l1-0.6c0.1-0.1,0.3-0.1,0.4,0
					l0.5,0.3C262.4,225.3,262.4,225.4,262.3,225.5z"/>
				<path class="st18" d="M260.5,226.5l-1,0.6c-0.1,0.1-0.3,0.1-0.4,0l-0.5-0.3c-0.1-0.1-0.1-0.2,0-0.3l1-0.6c0.1-0.1,0.3-0.1,0.4,0
					l0.5,0.3C260.6,226.3,260.6,226.4,260.5,226.5z"/>
				<path class="st18" d="M258.7,227.6l-1,0.6c-0.1,0.1-0.3,0.1-0.4,0l-0.5-0.3c-0.1-0.1-0.1-0.2,0-0.3l1-0.6c0.1-0.1,0.3-0.1,0.4,0
					l0.5,0.3C258.8,227.4,258.8,227.5,258.7,227.6z"/>
				<path class="st18" d="M256.9,228.7l-1.1,0.6c-0.1,0.1-0.3,0.1-0.4,0l-0.5-0.3c-0.1-0.1-0.1-0.2,0-0.3l1.1-0.6
					c0.1-0.1,0.3-0.1,0.4,0l0.5,0.3C257,228.5,257,228.6,256.9,228.7z"/>
				<path class="st18" d="M255,229.7l-1.1,0.6c-0.1,0.1-0.3,0.1-0.5,0l-0.5-0.3c-0.1-0.1-0.1-0.2,0-0.3l1.1-0.6
					c0.1-0.1,0.3-0.1,0.4,0l0.5,0.3C255.1,229.5,255.1,229.7,255,229.7z"/>
				<path class="st18" d="M253.1,230.8l-1.1,0.6c-0.1,0.1-0.3,0.1-0.5,0l-0.5-0.3c-0.1-0.1-0.1-0.2,0-0.3l1.1-0.6
					c0.1-0.1,0.3-0.1,0.5,0l0.5,0.3C253.3,230.6,253.2,230.8,253.1,230.8z"/>
				<path class="st18" d="M251.2,232l-1.1,0.6c-0.1,0.1-0.3,0.1-0.5,0l-0.5-0.3c-0.1-0.1-0.1-0.2,0-0.3l1.1-0.6
					c0.1-0.1,0.3-0.1,0.5,0l0.5,0.3C251.3,231.8,251.3,231.9,251.2,232z"/>
				<path class="st18" d="M249.3,233.1l-1.1,0.6c-0.1,0.1-0.3,0.1-0.5,0l-0.5-0.3c-0.1-0.1-0.1-0.2,0-0.3l1.1-0.6
					c0.1-0.1,0.3-0.1,0.5,0l0.5,0.3C249.4,232.9,249.4,233,249.3,233.1z"/>
				<path class="st18" d="M247.3,234.2l-1.1,0.7c-0.1,0.1-0.3,0.1-0.5,0l-0.5-0.3c-0.1-0.1-0.1-0.2,0-0.3l1.1-0.7
					c0.1-0.1,0.3-0.1,0.5,0l0.5,0.3C247.5,234,247.5,234.2,247.3,234.2z"/>
				<path class="st18" d="M243.3,235.5l1.1-0.7c0.1-0.1,0.3-0.1,0.5,0l0.5,0.3c0.1,0.1,0.1,0.2,0,0.3l-1.1,0.7
					c-0.1,0.1-0.3,0.1-0.5,0l-0.5-0.3C243.1,235.7,243.1,235.5,243.3,235.5z"/>
				<path class="st18" d="M270.8,222.4l-0.9,0.5c-0.1,0.1-0.4,0.1-0.5,0l-0.9-0.5c-0.1-0.1-0.2-0.2,0-0.3l0.9-0.5
					c0.1-0.1,0.4-0.1,0.5,0l0.9,0.5C271,222.2,271,222.3,270.8,222.4z"/>
				<path class="st18" d="M266.9,223.1l0.9-0.5c0.1-0.1,0.4-0.1,0.5,0l0.9,0.5c0.1,0.1,0.2,0.2,0,0.3l-0.9,0.5
					c-0.1,0.1-0.4,0.1-0.5,0l-0.9-0.5C266.7,223.3,266.7,223.1,266.9,223.1z"/>
				<path class="st18" d="M265.2,224l0.9-0.5c0.1-0.1,0.4-0.1,0.5,0l0.9,0.5c0.1,0.1,0.2,0.2,0,0.3l-0.9,0.5c-0.1,0.1-0.4,0.1-0.5,0
					l-0.9-0.5C265.1,224.3,265.1,224.1,265.2,224z"/>
				<path class="st18" d="M270,224.8l-0.9,0.5c-0.1,0.1-0.4,0.1-0.5,0l-0.9-0.5c-0.1-0.1-0.2-0.2,0-0.3l0.9-0.5
					c0.1-0.1,0.4-0.1,0.5,0l0.9,0.5C270.2,224.6,270.2,224.8,270,224.8z"/>
				<path class="st18" d="M272.5,223.4l-1.7,1c-0.1,0.1-0.4,0.1-0.5,0l-0.9-0.5c-0.1-0.1-0.2-0.2,0-0.3l1.7-1c0.1-0.1,0.4-0.1,0.5,0
					l0.9,0.5C272.6,223.1,272.6,223.3,272.5,223.4z"/>
				<path class="st18" d="M266,225.5l0.9-0.5c0.1-0.1,0.4-0.1,0.5,0l0.9,0.5c0.2,0.1,0.2,0.2,0,0.3l-0.9,0.5c-0.1,0.1-0.4,0.1-0.5,0
					l-0.9-0.5C265.9,225.8,265.9,225.6,266,225.5z"/>
				<path class="st18" d="M264.3,226.5l0.9-0.5c0.1-0.1,0.4-0.1,0.5,0l0.9,0.5c0.2,0.1,0.2,0.2,0,0.3l-0.9,0.6
					c-0.2,0.1-0.4,0.1-0.5,0l-0.9-0.5C264.2,226.8,264.2,226.6,264.3,226.5z"/>
				<path class="st18" d="M262.6,227.5l0.9-0.6c0.2-0.1,0.4-0.1,0.5,0l0.9,0.5c0.2,0.1,0.2,0.2,0,0.3l-0.9,0.6
					c-0.2,0.1-0.4,0.1-0.5,0l-0.9-0.5C262.5,227.8,262.5,227.6,262.6,227.5z"/>
				<path class="st18" d="M260.9,228.6l0.9-0.6c0.2-0.1,0.4-0.1,0.6,0l0.9,0.5c0.2,0.1,0.2,0.2,0,0.3l-0.9,0.6
					c-0.2,0.1-0.4,0.1-0.6,0l-0.9-0.5C260.7,228.8,260.7,228.7,260.9,228.6z"/>
				<path class="st18" d="M259.1,229.6l1-0.6c0.2-0.1,0.4-0.1,0.6,0l0.9,0.6c0.2,0.1,0.2,0.2,0,0.3l-1,0.6c-0.2,0.1-0.4,0.1-0.6,0
					l-0.9-0.6C259,229.8,259,229.7,259.1,229.6z"/>
				<path class="st18" d="M257.3,230.7l1-0.6c0.2-0.1,0.4-0.1,0.6,0l0.9,0.6c0.2,0.1,0.1,0.2,0,0.3l-1,0.6c-0.2,0.1-0.4,0.1-0.6,0
					l-0.9-0.6C257.2,230.9,257.2,230.7,257.3,230.7z"/>
				<path class="st18" d="M255.6,231.7l1-0.6c0.2-0.1,0.4-0.1,0.6,0l0.9,0.6c0.2,0.1,0.1,0.2,0,0.3l-1,0.6c-0.2,0.1-0.4,0.1-0.6,0
					l-0.9-0.6C255.4,232,255.4,231.8,255.6,231.7z"/>
				<path class="st18" d="M256.2,233.1l-1,0.6c-0.2,0.1-0.4,0.1-0.6,0l-0.9-0.6c-0.2-0.1-0.1-0.3,0-0.3l1-0.6c0.2-0.1,0.4-0.1,0.6,0
					l0.9,0.6C256.4,232.9,256.3,233,256.2,233.1z"/>
				<path class="st18" d="M251.9,234.2c-0.2-0.1-0.1-0.3,0-0.4l1-0.6c0.2-0.1,0.4-0.1,0.6,0l0.9,0.6c0.2,0.1,0.1,0.3,0,0.4l-1,0.6
					c-0.2,0.1-0.4,0.1-0.6,0L251.9,234.2z"/>
				<path class="st18" d="M250,235.3c-0.2-0.1-0.1-0.3,0-0.4l1-0.6c0.2-0.1,0.4-0.1,0.6,0l0.9,0.6c0.2,0.1,0.1,0.3,0,0.4l-1,0.6
					c-0.2,0.1-0.4,0.1-0.6,0L250,235.3z"/>
				<path class="st18" d="M250.6,236.4l-1,0.6c-0.2,0.1-0.4,0.1-0.6,0l-0.9-0.6c-0.2-0.1-0.1-0.3,0-0.4l1-0.6c0.2-0.1,0.4-0.1,0.6,0
					l0.9,0.6C250.8,236.2,250.8,236.3,250.6,236.4z"/>
				<path class="st18" d="M271.2,225.8c0.2,0.1,0.2,0.2,0,0.3l-0.9,0.5c-0.1,0.1-0.4,0.1-0.5,0l-0.9-0.5c-0.2-0.1-0.2-0.2,0-0.3
					l0.9-0.5c0.1-0.1,0.4-0.1,0.5,0L271.2,225.8z"/>
				<path class="st18" d="M274.1,224.3l-2.1,1.3c-0.1,0.1-0.4,0.1-0.5,0l-0.9-0.5c-0.2-0.1-0.2-0.2,0-0.3l2.1-1.3
					c0.1-0.1,0.4-0.1,0.5,0l0.9,0.5C274.3,224.1,274.3,224.3,274.1,224.3z"/>
				<path class="st18" d="M269.6,226.8c0.2,0.1,0.2,0.2,0,0.3l-0.9,0.6c-0.1,0.1-0.4,0.1-0.5,0l-0.9-0.5c-0.2-0.1-0.2-0.2,0-0.3
					l0.9-0.5c0.1-0.1,0.4-0.1,0.5,0L269.6,226.8z"/>
				<path class="st18" d="M267.9,228.1l-0.9,0.6c-0.2,0.1-0.4,0.1-0.5,0l-0.9-0.5c-0.2-0.1-0.2-0.2,0-0.3l0.9-0.6
					c0.1-0.1,0.4-0.1,0.5,0l0.9,0.5C268.1,227.9,268.1,228,267.9,228.1z"/>
				<path class="st18" d="M266.2,229.1l-0.9,0.6c-0.2,0.1-0.4,0.1-0.6,0l-0.9-0.5c-0.2-0.1-0.2-0.2,0-0.3l0.9-0.6
					c0.2-0.1,0.4-0.1,0.5,0l0.9,0.5C266.4,228.9,266.4,229,266.2,229.1z"/>
				<path class="st18" d="M264.5,230.2l-0.9,0.6c-0.2,0.1-0.4,0.1-0.6,0l-0.9-0.6c-0.2-0.1-0.2-0.2,0-0.3l0.9-0.6
					c0.2-0.1,0.4-0.1,0.6,0l0.9,0.5C264.7,229.9,264.7,230.1,264.5,230.2z"/>
				<path class="st18" d="M262.8,231.2l-1,0.6c-0.2,0.1-0.4,0.1-0.6,0l-0.9-0.6c-0.2-0.1-0.2-0.2,0-0.3l1-0.6c0.2-0.1,0.4-0.1,0.6,0
					l0.9,0.6C262.9,231,262.9,231.1,262.8,231.2z"/>
				<path class="st18" d="M261,232.3l-1,0.6c-0.2,0.1-0.4,0.1-0.6,0l-0.9-0.6c-0.2-0.1-0.1-0.2,0-0.3l1-0.6c0.2-0.1,0.4-0.1,0.6,0
					l0.9,0.6C261.2,232,261.2,232.2,261,232.3z"/>
				<path class="st18" d="M259.2,233.4l-1,0.6c-0.2,0.1-0.4,0.1-0.6,0l-0.9-0.6c-0.2-0.1-0.1-0.3,0-0.3l1-0.6c0.2-0.1,0.4-0.1,0.6,0
					l0.9,0.6C259.4,233.1,259.4,233.3,259.2,233.4z"/>
				<path class="st18" d="M257.4,234.5l-1,0.6c-0.2,0.1-0.4,0.1-0.6,0l-0.9-0.6c-0.2-0.1-0.1-0.3,0-0.4l1-0.6c0.2-0.1,0.4-0.1,0.6,0
					l0.9,0.6C257.6,234.2,257.6,234.4,257.4,234.5z"/>
				<path class="st18" d="M255.6,235.6l-1,0.6c-0.2,0.1-0.4,0.1-0.6,0l-0.9-0.6c-0.2-0.1-0.1-0.3,0-0.4l1-0.6c0.2-0.1,0.4-0.1,0.6,0
					l0.9,0.6C255.8,235.3,255.8,235.5,255.6,235.6z"/>
				<path class="st18" d="M252.1,237.3l-0.9-0.6c-0.2-0.1-0.1-0.3,0-0.4l1-0.6c0.2-0.1,0.4-0.1,0.6,0l0.9,0.6c0.2,0.1,0.1,0.3,0,0.4
					l-1,0.6C252.6,237.4,252.3,237.4,252.1,237.3z"/>
				<path class="st18" d="M247.9,238.3l2.4-1.5c0.2-0.1,0.4-0.1,0.6,0l0.9,0.6c0.2,0.1,0.1,0.3,0,0.4l-2.4,1.5
					c-0.2,0.1-0.4,0.1-0.6,0l-0.9-0.6C247.8,238.6,247.8,238.4,247.9,238.3z"/>
				<path class="st18" d="M272.1,227.6l-0.9,0.6c-0.1,0.1-0.4,0.1-0.5,0l-0.9-0.5c-0.2-0.1-0.2-0.2,0-0.3l0.9-0.5
					c0.1-0.1,0.4-0.1,0.5,0l0.9,0.5C272.2,227.4,272.2,227.5,272.1,227.6z"/>
				<path class="st18" d="M275.1,226.1l1.1-0.6c0.1-0.1,0.2-0.1,0.3,0l1.3,0.8c0.1,0.1,0.1,0.2,0,0.2l-1.1,0.7
					c-0.1,0.1-0.3,0.1-0.4,0l-1.3-0.8C275,226.2,275,226.1,275.1,226.1z"/>
				<path class="st18" d="M273.5,227.1l1.1-0.7c0.1-0.1,0.3-0.1,0.4,0l1.3,0.8c0.1,0.1,0.1,0.2,0,0.2l-1.1,0.7
					c-0.1,0.1-0.3,0.1-0.4,0l-1.3-0.8C273.4,227.2,273.4,227.2,273.5,227.1z"/>
				<path class="st18" d="M271.8,228.1l1.1-0.7c0.1-0.1,0.3-0.1,0.4,0l1.3,0.8c0.1,0.1,0.1,0.2,0,0.2l-1.1,0.7
					c-0.1,0.1-0.3,0.1-0.4,0l-1.3-0.8C271.7,228.3,271.7,228.2,271.8,228.1z"/>
				<path class="st18" d="M269.7,229.4l1.5-0.9c0.1-0.1,0.3-0.1,0.4,0l1.3,0.8c0.1,0.1,0.1,0.2,0,0.2l-1.5,0.9
					c-0.1,0.1-0.3,0.1-0.4,0l-1.3-0.8C269.6,229.5,269.6,229.4,269.7,229.4z"/>
				<path class="st18" d="M258.8,236.1l1.6-1c0.1-0.1,0.3-0.1,0.4,0l1.4,0.8c0.1,0.1,0.1,0.2,0,0.2l-1.6,1c-0.1,0.1-0.3,0.1-0.4,0
					l-1.4-0.9C258.7,236.3,258.7,236.2,258.8,236.1z"/>
				<path class="st18" d="M256.9,237.2l1.2-0.7c0.1-0.1,0.3-0.1,0.4,0l1.4,0.9c0.1,0.1,0.1,0.2,0,0.2l-1.2,0.7
					c-0.1,0.1-0.3,0.1-0.4,0l-1.4-0.9C256.8,237.4,256.8,237.3,256.9,237.2z"/>
				<path class="st18" d="M255.9,238.9l1.2-0.7c0.1-0.1,0.3-0.1,0.4,0l0.5,0.3c0.1,0.1,0.1,0.2,0,0.2l-1.2,0.7
					c-0.1,0.1-0.3,0.1-0.4,0l-0.5-0.3C255.8,239.1,255.8,239,255.9,238.9z"/>
				<path class="st18" d="M252.2,241.3l1.2-0.8c0.1-0.1,0.3-0.1,0.4,0l0.5,0.3c0.1,0.1,0.1,0.2,0,0.2l-1.2,0.8
					c-0.1,0.1-0.3,0.1-0.4,0l-0.5-0.3C252,241.5,252,241.3,252.2,241.3z"/>
				<path class="st18" d="M254.1,240.1l1.2-0.7c0.1-0.1,0.3-0.1,0.4,0l0.5,0.3c0.1,0.1,0.1,0.2,0,0.2l-1.2,0.7
					c-0.1,0.1-0.3,0.1-0.4,0l-0.5-0.3C253.9,240.3,253.9,240.2,254.1,240.1z"/>
				<path class="st18" d="M255.2,239.3L254,240c-0.1,0.1-0.3,0.1-0.4,0l-0.5-0.3c-0.1-0.1-0.1-0.2,0-0.2l1.2-0.7
					c0.1-0.1,0.3-0.1,0.4,0l0.5,0.3C255.3,239.1,255.3,239.2,255.2,239.3z"/>
				<path class="st18" d="M261.1,234.7l8.1-5c0.1-0.1,0.3-0.1,0.4,0l1.3,0.8c0.1,0.1,0.1,0.2,0,0.2l-8,5c-0.1,0.1-0.3,0.1-0.4,0
					l-1.4-0.8C261,234.9,261,234.8,261.1,234.7z"/>
				<path class="st18" d="M275.8,225.3l-2.9,1.8c-0.1,0.1-0.4,0.1-0.5,0l-0.9-0.5c-0.2-0.1-0.2-0.2,0-0.3l2.9-1.7
					c0.1-0.1,0.4-0.1,0.5,0l0.9,0.5C275.9,225.1,275.9,225.2,275.8,225.3z"/>
				<path class="st18" d="M270.4,228.6l-0.9,0.6c-0.1,0.1-0.4,0.1-0.5,0l-0.9-0.5c-0.2-0.1-0.2-0.2,0-0.3l0.9-0.6
					c0.1-0.1,0.4-0.1,0.5,0l0.9,0.5C270.5,228.4,270.5,228.5,270.4,228.6z"/>
				<path class="st18" d="M268.7,229.7l-0.9,0.6c-0.2,0.1-0.4,0.1-0.6,0l-0.9-0.5c-0.2-0.1-0.2-0.2,0-0.3l0.9-0.6
					c0.1-0.1,0.4-0.1,0.5,0l0.9,0.5C268.9,229.4,268.9,229.6,268.7,229.7z"/>
				<path class="st18" d="M267,230.7l-0.9,0.6c-0.2,0.1-0.4,0.1-0.6,0l-0.9-0.6c-0.2-0.1-0.2-0.2,0-0.3l0.9-0.6
					c0.2-0.1,0.4-0.1,0.6,0l0.9,0.6C267.2,230.5,267.2,230.6,267,230.7z"/>
				<path class="st18" d="M265.3,231.8l-0.9,0.6c-0.2,0.1-0.4,0.1-0.6,0l-0.9-0.6c-0.2-0.1-0.2-0.2,0-0.3l0.9-0.6
					c0.2-0.1,0.4-0.1,0.6,0l0.9,0.6C265.4,231.5,265.4,231.7,265.3,231.8z"/>
				<path class="st18" d="M263.5,232.8l-1,0.6c-0.2,0.1-0.4,0.1-0.6,0l-0.9-0.6c-0.2-0.1-0.2-0.2,0-0.3l1-0.6c0.2-0.1,0.4-0.1,0.6,0
					l0.9,0.6C263.7,232.6,263.7,232.7,263.5,232.8z"/>
				<path class="st18" d="M261.8,233.9l-1,0.6c-0.2,0.1-0.4,0.1-0.6,0l-0.9-0.6c-0.2-0.1-0.2-0.3,0-0.3l1-0.6c0.2-0.1,0.4-0.1,0.6,0
					l0.9,0.6C261.9,233.7,261.9,233.8,261.8,233.9z"/>
				<path class="st18" d="M260,235l-1,0.6c-0.2,0.1-0.4,0.1-0.6,0l-0.9-0.6c-0.2-0.1-0.2-0.3,0-0.4l1-0.6c0.2-0.1,0.4-0.1,0.6,0
					l0.9,0.6C260.2,234.7,260.1,234.9,260,235z"/>
				<path class="st18" d="M258.2,236.1l-1,0.6c-0.2,0.1-0.4,0.1-0.6,0l-0.9-0.6c-0.2-0.1-0.1-0.3,0-0.4l1-0.6c0.2-0.1,0.4-0.1,0.6,0
					l0.9,0.6C258.3,235.9,258.3,236,258.2,236.1z"/>
				<path class="st18" d="M253.9,236.9l1-0.6c0.2-0.1,0.4-0.1,0.6,0l0.9,0.6c0.2,0.1,0.2,0.3,0,0.4l-1,0.6c-0.2,0.1-0.4,0.1-0.6,0
					l-0.9-0.6C253.7,237.2,253.7,237,253.9,236.9z"/>
				<path class="st18" d="M249.6,239.5l3.4-2.1c0.2-0.1,0.4-0.1,0.6,0l0.9,0.6c0.2,0.1,0.1,0.3,0,0.4l-3.4,2.1
					c-0.2,0.1-0.4,0.1-0.6,0l-0.9-0.6C249.4,239.7,249.5,239.6,249.6,239.5z"/>
				<path class="st18" d="M246.2,237.2l1-0.6c0.2-0.1,0.4-0.1,0.6,0l0.9,0.6c0.2,0.1,0.1,0.3,0,0.4l-1,0.6c-0.2,0.1-0.4,0.1-0.6,0
					l-0.9-0.6C246,237.5,246.1,237.3,246.2,237.2z"/>
				<path class="st18" d="M263.5,225l0.9-0.5c0.1-0.1,0.4-0.1,0.5,0l0.9,0.5c0.1,0.1,0.2,0.2,0,0.3l-0.9,0.5c-0.1,0.1-0.4,0.1-0.5,0
					l-0.9-0.5C263.4,225.3,263.4,225.1,263.5,225z"/>
				<path class="st18" d="M261.8,226l0.9-0.5c0.2-0.1,0.4-0.1,0.5,0l0.9,0.5c0.1,0.1,0.1,0.2,0,0.3l-0.9,0.6c-0.2,0.1-0.4,0.1-0.5,0
					l-0.9-0.5C261.7,226.3,261.7,226.1,261.8,226z"/>
				<path class="st18" d="M260.1,227l0.9-0.6c0.2-0.1,0.4-0.1,0.5,0l0.9,0.5c0.2,0.1,0.1,0.2,0,0.3l-0.9,0.6c-0.2,0.1-0.4,0.1-0.6,0
					l-0.9-0.5C259.9,227.3,259.9,227.1,260.1,227z"/>
				<path class="st18" d="M258.3,228.1l1-0.6c0.2-0.1,0.4-0.1,0.6,0l0.9,0.5c0.2,0.1,0.1,0.2,0,0.3l-1,0.6c-0.2,0.1-0.4,0.1-0.6,0
					l-0.9-0.5C258.2,228.3,258.2,228.2,258.3,228.1z"/>
				<path class="st18" d="M256.6,229.1l1-0.6c0.2-0.1,0.4-0.1,0.6,0l0.9,0.5c0.2,0.1,0.1,0.2,0,0.3l-1,0.6c-0.2,0.1-0.4,0.1-0.6,0
					l-0.9-0.6C256.4,229.3,256.4,229.2,256.6,229.1z"/>
				<path class="st18" d="M254.8,230.2l1-0.6c0.2-0.1,0.4-0.1,0.6,0l0.9,0.6c0.2,0.1,0.1,0.2,0,0.3l-1,0.6c-0.2,0.1-0.4,0.1-0.6,0
					l-0.9-0.6C254.6,230.4,254.6,230.2,254.8,230.2z"/>
				<path class="st18" d="M253,231.2l1-0.6c0.2-0.1,0.4-0.1,0.6,0l0.9,0.6c0.2,0.1,0.1,0.2,0,0.3l-1,0.6c-0.2,0.1-0.4,0.1-0.6,0
					l-0.9-0.6C252.8,231.5,252.8,231.3,253,231.2z"/>
				<path class="st18" d="M251.1,232.3l1-0.6c0.2-0.1,0.4-0.1,0.6,0l0.9,0.6c0.2,0.1,0.1,0.3,0,0.3l-1,0.6c-0.2,0.1-0.4,0.1-0.6,0
					l-0.9-0.6C250.9,232.5,250.9,232.4,251.1,232.3z"/>
				<path class="st18" d="M250.7,234.3c-0.2,0.1-0.4,0.1-0.6,0l-0.9-0.6c-0.2-0.1-0.1-0.3,0-0.4l1-0.6c0.2-0.1,0.4-0.1,0.6,0
					l0.9,0.6c0.2,0.1,0.1,0.3,0,0.3L250.7,234.3z"/>
				<path class="st18" d="M247.4,234.5l1-0.6c0.2-0.1,0.4-0.1,0.6,0l0.9,0.6c0.2,0.1,0.1,0.3,0,0.4l-1,0.6c-0.2,0.1-0.4,0.1-0.6,0
					l-0.9-0.6C247.2,234.7,247.2,234.6,247.4,234.5z"/>
				<path class="st18" d="M244.4,236.2l2.2-1.3c0.1-0.1,0.3-0.1,0.4,0l1.1,0.7c0.1,0.1,0.1,0.2,0,0.2l-2.2,1.3
					c-0.1,0.1-0.3,0.1-0.4,0l-1.1-0.7C244.3,236.4,244.3,236.3,244.4,236.2z"/>
			</g>
		</g>
	</g>
	<g>
		<path class="st9" d="M246.2,312.7c-0.1,0-0.1,0-0.2,0c-0.1,0-0.2,0.1-0.2,0.1c-0.3,0.3-0.4,0.7-0.5,1c-0.1,0.4,0,0.8,0,1.2
			c0.1,1.6,1.2,2.6,2.6,3.2c1.5,0.7,3,1.1,4.4,1.9c1.5,0.7,2.9,1.6,4.3,2.4c1.5,0.9,3,1.9,4.8,2.1c1.3,0.2,2.7,0,4-0.4
			c0.9-0.3,2.5-0.9,2.6-2c0.1-0.7,0.2-1.7-0.5-2.1c-1.4-1-3.1-1.6-4.7-2c-2.6-0.7-5.3-1.3-7.8-2.2
			C251.9,315.1,249.2,313.5,246.2,312.7C246.3,312.7,246.3,312.7,246.2,312.7z"/>
		<path class="st16" d="M245.6,312.8c-0.6,1.5,0.3,2.9,1.5,3.7c0.9,0.6,2,0.9,3.1,1.4c2,0.8,3.9,1.9,5.7,2.9
			c1.5,0.8,2.9,1.8,4.6,2.3c2.2,0.6,4.6,0.1,6.4-1.1c0.5-0.3,0.9-0.7,1-1.3c0.1-0.7-0.3-1.5-0.4-2.3c-0.1-1,0.4-2.7-0.8-3.3
			c0,0,0,0,0,0c-1.5-2.6-4.5-4.6-7.6-4.5c-0.4,0-0.8,0-1.1,0.1c-1.2,0.1-2.4,0.2-3.6,0.1c-1.1-0.1-2.3-0.3-3.4-0.4
			c-0.5,0-0.9,0-1.4,0C247.9,310.5,246.4,311.1,245.6,312.8z"/>
		<path class="st22" d="M251.7,312.6c0.9-0.7,1.9-1.3,3-1.8c1.1,0.1,2.2,0,3.3-0.1c0.4,0,0.7-0.1,1.1-0.1c0.5,0.2,0.9,0.5,1.3,0.8
			c0,0,0.1,0.1,0.1,0.1c0,0,0.1,0.1,0.1,0.1c0.2,0.2,0.4,0.5,0.5,0.8c0.2,0.7,0,1.3-0.4,1.9c-0.4,0.6-0.7,1.1-1.3,1.5
			c-0.2,0.2-0.5,0.3-0.8,0.4c-0.3,0.1-0.6,0.1-0.9-0.1c0,0,0-0.1-0.1-0.1c-1.4-0.8-3-1.1-4.6-1.3c-0.6-0.1-1.6-0.2-2-0.7
			C250.7,313.6,251.3,312.9,251.7,312.6z"/>
		<path class="st9" d="M260.5,303.5c-0.1,0-0.1,0-0.2,0c-0.1,0-0.2,0.1-0.2,0.1c-0.3,0.3-0.4,0.7-0.5,1c-0.1,0.4,0,0.8,0,1.2
			c0.1,1.6,1.2,2.6,2.6,3.2c1.5,0.7,3,1.1,4.4,1.9c1.5,0.7,2.9,1.6,4.3,2.4c1.5,0.9,3,1.9,4.8,2.1c1.3,0.2,2.7,0,4-0.4
			c0.9-0.3,2.5-0.9,2.6-2c0.1-0.7,0.2-1.7-0.5-2.1c-1.4-1-3.1-1.6-4.7-2c-2.6-0.7-5.3-1.3-7.8-2.2
			C266.2,306,263.5,304.4,260.5,303.5C260.6,303.5,260.5,303.5,260.5,303.5z"/>
		<path class="st16" d="M259.9,303.7c-0.6,1.5,0.3,2.9,1.5,3.7c0.9,0.6,2,0.9,3.1,1.4c2,0.8,3.9,1.9,5.7,2.9
			c1.5,0.8,2.9,1.8,4.6,2.3c2.2,0.6,4.6,0.1,6.4-1.1c0.5-0.3,0.9-0.7,1-1.3c0.1-0.7-0.3-1.5-0.4-2.3c-0.1-1,0.4-2.7-0.8-3.3
			c0,0,0,0,0,0c-1.5-2.6-4.5-4.6-7.6-4.5c-0.4,0-0.8,0-1.1,0.1c-1.2,0.1-2.4,0.2-3.6,0.1c-1.1-0.1-2.3-0.3-3.4-0.4
			c-0.5,0-0.9,0-1.4,0C262.2,301.3,260.6,301.9,259.9,303.7z"/>
		<path class="st22" d="M266.1,305.2c-0.4-0.5,0.2-1.2,0.6-1.5c1-0.8,2.2-1.5,3.4-2c0.7,0,1.4-0.1,2.2-0.1c0.4,0,0.7-0.1,1.1-0.1
			c0.1,0,0.2,0,0.3,0c0.6,0.2,1.2,0.5,1.8,1c0,0,0.1,0.1,0.1,0.1c0,0,0.1,0.1,0.1,0.1c0.2,0.2,0.4,0.5,0.5,0.8
			c0.2,0.7,0,1.3-0.4,1.9c-0.4,0.6-0.7,1.1-1.3,1.5c-0.2,0.2-0.5,0.3-0.8,0.4c-0.3,0.1-0.6,0.1-0.9-0.1c0,0,0-0.1-0.1-0.1
			c-1.4-0.8-3-1.1-4.6-1.3C267.5,305.7,266.5,305.7,266.1,305.2z"/>
		<g class="st0">
			<path class="st7" d="M321.8,319c-0.5-0.3-1.3-0.3-1.8-0.1l-17.1,8.8l-15-11c0,0-0.1,0-0.1-0.1c-0.4-0.2-1.4-1.1-1.9-0.9
				c-0.7,0.2-0.6,1.4-0.3,1.8l10.1,12.3l-24.8,3.5c-0.2,0-0.6-0.6-0.7-0.6c-0.4,0.2-0.3,1.1-0.2,1.4c0,0.2,0.2,0.4,0.4,0.5
				c0.3,0.2,0.7,0.3,1.1,0.2l25.5-0.5l-2.6,11.1l0,0.8c0,0.2,0.1,0.5,0.4,0.7c0.1,0.1,0.3,0.2,0.6,0.2c0.7,0.1,1.5-0.1,1.7-0.5
				l8-11.5l20.8,5.4c0.6,0.2,1.3,0.1,1.7-0.2c0.4-0.3,0.6-1.4,0.1-1.7c0,0-0.5-0.1-0.5-0.1l-18.4-7.6l13.3-11
				c0.4-0.3,0.6-1.4,0.2-1.7C322.1,318.3,321.9,319.1,321.8,319"/>
		</g>
		<g>
			<g>
				<path class="st8" d="M271.2,327.7c-1.5-0.9-2.7-0.2-2.7,1.5c0,1.7,1.2,3.8,2.7,4.6c1.5,0.8,2.7,0.2,2.7-1.5
					C273.9,330.6,272.7,328.6,271.2,327.7"/>
			</g>
			<polygon class="st8" points="270.4,335.6 273,334.1 269.3,327.5 266.7,329.1 			"/>
			<g>
				<path class="st8" d="M268.5,329.3c-1.5-0.9-2.7-0.2-2.7,1.5c0,1.7,1.2,3.8,2.7,4.6c1.5,0.8,2.7,0.2,2.7-1.5
					C271.2,332.2,270,330.2,268.5,329.3"/>
			</g>
			<g>
				<path class="st9" d="M268.5,329.5c-1.4-0.8-2.5-0.2-2.5,1.4c0,1.6,1.1,3.5,2.5,4.4c1.4,0.8,2.5,0.2,2.5-1.4
					C271,332.2,269.9,330.3,268.5,329.5"/>
			</g>
		</g>
		<g>
			<g>
				<path class="st8" d="M296.7,340.5c-1.5-0.9-2.7-0.2-2.7,1.5c0,1.7,1.2,3.8,2.7,4.6c1.5,0.8,2.7,0.2,2.7-1.5
					C299.3,343.5,298.1,341.4,296.7,340.5"/>
			</g>
			<polygon class="st8" points="295.9,348.4 298.4,346.9 294.8,340.4 292.1,341.9 			"/>
			<g>
				<path class="st8" d="M294,342.1c-1.5-0.9-2.7-0.2-2.7,1.5c0,1.7,1.2,3.8,2.7,4.6c1.5,0.8,2.7,0.2,2.7-1.5
					C296.6,345,295.4,343,294,342.1"/>
			</g>
			<g>
				<path class="st9" d="M294,342.3c-1.4-0.8-2.5-0.2-2.5,1.4c0,1.6,1.1,3.5,2.5,4.4c1.4,0.8,2.5,0.2,2.5-1.4
					C296.5,345,295.3,343.1,294,342.3"/>
			</g>
		</g>
		<g>
			<g>
				<path class="st8" d="M327.9,333.9c-1.5-0.9-2.7-0.2-2.7,1.5c0,1.7,1.2,3.8,2.7,4.6c1.5,0.8,2.7,0.2,2.7-1.5
					C330.5,336.8,329.3,334.8,327.9,333.9"/>
			</g>
			<polygon class="st8" points="327.1,341.8 329.6,340.3 326,333.7 323.3,335.3 			"/>
			<g>
				<path class="st8" d="M325.2,335.5c-1.5-0.9-2.7-0.2-2.7,1.5c0,1.7,1.2,3.8,2.7,4.6c1.5,0.8,2.7,0.2,2.7-1.5
					C327.8,338.4,326.6,336.3,325.2,335.5"/>
			</g>
			<g>
				<path class="st9" d="M325.2,335.7c-1.4-0.8-2.5-0.2-2.5,1.4c0,1.6,1.1,3.5,2.5,4.4c1.4,0.8,2.5,0.2,2.5-1.4
					C327.7,338.4,326.5,336.5,325.2,335.7"/>
			</g>
		</g>
		<g>
			<g>
				<path class="st8" d="M323,314.1c-1.5-0.9-2.7-0.2-2.7,1.5c0,1.7,1.2,3.8,2.7,4.6c1.5,0.8,2.7,0.2,2.7-1.5
					C325.7,317,324.5,314.9,323,314.1"/>
			</g>
			<polygon class="st8" points="322.2,321.9 324.8,320.4 321.1,313.9 318.5,315.4 			"/>
			<g>
				<path class="st8" d="M320.3,315.6c-1.5-0.9-2.7-0.2-2.7,1.5c0,1.7,1.2,3.8,2.7,4.6c1.5,0.8,2.7,0.2,2.7-1.5
					C323,318.6,321.8,316.5,320.3,315.6"/>
			</g>
			<g>
				<path class="st9" d="M320.3,315.8c-1.4-0.8-2.5-0.2-2.5,1.4c0,1.6,1.1,3.5,2.5,4.4c1.4,0.8,2.5,0.2,2.5-1.4
					C322.8,318.6,321.7,316.6,320.3,315.8"/>
			</g>
		</g>
		<g>
			<g>
				<path class="st8" d="M287.2,310.7c-1.5-0.9-2.7-0.2-2.7,1.5c0,1.7,1.2,3.8,2.7,4.6c1.5,0.8,2.7,0.2,2.7-1.5
					C289.8,313.6,288.7,311.6,287.2,310.7"/>
			</g>
			<polygon class="st8" points="286.4,318.6 289,317.1 285.3,310.5 282.6,312.1 			"/>
			<g>
				<path class="st8" d="M284.5,312.3c-1.5-0.9-2.7-0.2-2.7,1.5c0,1.7,1.2,3.8,2.7,4.6c1.5,0.8,2.7,0.2,2.7-1.5
					C287.1,315.2,285.9,313.2,284.5,312.3"/>
			</g>
			<g>
				<path class="st9" d="M284.5,312.5c-1.4-0.8-2.5-0.2-2.5,1.4c0,1.6,1.1,3.5,2.5,4.4c1.4,0.8,2.5,0.2,2.5-1.4
					C287,315.2,285.9,313.3,284.5,312.5"/>
			</g>
		</g>
		<g>
			<path class="st17" d="M321.8,313.6c-0.5-0.3-1.3-0.3-1.8-0.1l-17.1,7.2l-15-9.4c0,0-0.1,0-0.1-0.1c-0.4-0.2-1.4-1.1-1.9-0.9
				c-0.7,0.2-0.6,1.4-0.3,1.8l10.1,10.6l-24.8,5.2c-0.2,0-0.6-0.6-0.7-0.6c-0.4,0.2-0.3,1.1-0.2,1.4c0,0.2,0.2,0.4,0.4,0.5
				c0.3,0.2,0.7,0.3,1.1,0.2l25.5-2.1l-2.6,12.8l0,0.8c0,0.2,0.1,0.5,0.4,0.7c0.1,0.1,0.3,0.2,0.6,0.2c0.7,0.1,1.5-0.1,1.7-0.5
				l8-13.2l20.8,7.1c0.6,0.2,1.3,0.1,1.7-0.2c0.4-0.3,0.6-1.4,0.1-1.7c0,0-0.5-0.1-0.5-0.1l-18.4-9.2l13.3-9.3
				c0.4-0.3,0.6-1.4,0.2-1.7C322.1,312.9,321.9,313.7,321.8,313.6"/>
		</g>
		<g>
			<path class="st18" d="M321.8,312.7c-0.5-0.3-1.3-0.3-1.8-0.1l-17.1,5.2l-15-7.3c0,0-0.1,0-0.1-0.1c-0.4-0.2-1-0.3-1.6-0.2
				c-0.7,0.2-1,0.7-0.6,1.1l10.1,8.6l-24.8,7.2c-0.6,0.1-1,0.5-0.9,0.8c0,0.2,0.2,0.4,0.4,0.5c0.3,0.2,0.7,0.3,1.1,0.2l25.5-4.1
				l-2.6,15.7c0,0.2,0.1,0.5,0.4,0.7c0.1,0.1,0.3,0.2,0.6,0.2c0.7,0.1,1.5-0.1,1.7-0.5l8-15.2l20.8,9.2c0.6,0.2,1.3,0.1,1.7-0.2
				c0.4-0.3,0.4-0.8-0.1-1.1c0,0-0.1,0-0.1-0.1l-18.6-12l13.3-7.4c0.4-0.3,0.4-0.7,0-1C321.9,312.7,321.9,312.7,321.8,312.7"/>
		</g>
		<path class="st17" d="M297.6,312.8v8h0c0,0.7,0.5,1.3,1.3,1.8c1.8,1,4.6,1,6.4,0c0.9-0.5,1.3-1.2,1.3-1.8V313L297.6,312.8z"/>
		<g>
			<path class="st18" d="M305.3,311.1c-1.8-1-4.6-1-6.4,0c-1.8,1-1.7,2.7,0,3.7c1.8,1,4.6,1,6.4,0C307,313.8,307,312.1,305.3,311.1"
				/>
		</g>
		<path class="st14" d="M297.9,305.6v7.3h0c0,0.6,0.4,1.2,1.2,1.7c1.6,0.9,4.2,0.9,5.8,0c0.8-0.5,1.2-1.1,1.2-1.7v-7.2L297.9,305.6z
			"/>
		<g>
			<path class="st17" d="M305,304c-1.6-0.9-4.2-0.9-5.9,0c-1.6,0.9-1.6,2.4,0,3.4c1.6,0.9,4.2,0.9,5.8,0
				C306.6,306.5,306.6,305,305,304"/>
		</g>
		<path class="st8" d="M318.3,286.7c-7.6,11.1-35.4-14.4-35.4-14.4c1.9,8.8-2.9,14.5-1.3,32.5c0,0.4-0.1,0.8-0.3,1.1
			c-0.6,0.8-1.8,2.1-3.5,2.4c-3,0.5-4.7-0.5-5.5-1.2c-0.3-0.2-0.5-0.6-0.5-1c-0.3-3.4-2.2-22.4-2.5-29.3c-0.2-5.3-1.1-16.2,7.5-18.1
			c6.2-1.3,26.8,6.7,26.8,6.7S326.7,274.5,318.3,286.7z"/>
		<g>
			<path class="st22" d="M265.7,283.3l25.9-14.9c4.1-2.4,10.7-2.5,14.9-0.2l28.1,14.8c4.6,2.4,4.7,6.6,0.3,9.1l-28.5,16.5
				c-4.4,2.5-11.5,2.4-15.7-0.2l-25.5-16.3C261.4,289.4,261.6,285.6,265.7,283.3"/>
		</g>
		<path class="st23" d="M335.5,283.4c-0.2-0.2-0.5-0.3-0.8-0.5l-28.1-14.8c-4.3-2.3-10.8-2.2-14.9,0.2l-25.9,14.9
			c-1.1,0.7-2,1.4-2.5,2.2c2.3,2.7,7.5,3.9,10.5,5.1c5.3,2.2,9.9,5.5,14.6,8.6c2.3,1.6,4.6,3.3,7.4,4c2.9,0.7,6,0.5,8.8-0.4
			c4.7-1.7,8.4-5.5,12.7-8.1c2.6-1.5,5.3-2.8,8.2-3.9c2.3-0.8,4.6-1.9,6.8-3c1.4-0.7,2.9-1.7,3.3-3.3
			C335.5,284.2,335.5,283.8,335.5,283.4z"/>
		<path class="st24" d="M290.1,198.3c0-0.6,1.4-3.3,2-4.5c0.6-3.9,1.2-7.1,1.2-7.1c4.4-3.8,15,12.5,15,12.5l1.1,15
			c-5.7,5.2-11,2.3-11,2.3c-0.1-6.8-4.6-5.5-6.6-8.4c-0.9-1.3-0.9-4.7-0.5-8.4C290.8,199.3,290.1,198.7,290.1,198.3z"/>
		<path class="st9" d="M309.1,211c-5.5,1.7-8.5-0.8-10.1-5.4c0,0-0.4-0.5,1.7-1.2c2.1-0.6,2.9-7.1,0.8-6.6c-2.1,0.5-2.1,3.4-3,3.7
			s-1.4-0.6-0.7-2.7c0.7-2.1-3.3-2.5-2-4.9c1.3-2.4,0.4-5-2.1-6.2c-2.5-1.2-0.9-10.7,1-10.2c1.9,0.6,2.3,2.5,3.4,0.3
			c1.1-2.2,2-3.9,3.7-2.9c1.7,1,0.6,2.3,2.6,1.4c2-0.8,2.4-0.2,3.1,1.2c0.7,1.4-0.5,2.3,1.8,2.5c2.3,0.2,1.5,2.2,3.7,4.1
			c2.2,1.9,6.1,2.8,5.7,9.5S314,209.5,309.1,211z"/>
		<path class="st16" d="M289.5,204.8c0.1-0.3,0.3-0.3,0.5-0.3c0.3,0,0.6,0,0.9,0c0.9,0,1.8-0.1,2.7-0.3c0.7-0.2,1.3-0.4,1.9-0.6
			c0.3-0.1,0.6-0.3,0.9-0.4c0.3-0.1,0.6-0.3,0.9-0.4c0.2,0,0.4,0.1,0.4,0.3c0.1,0.4-0.4,0.6-0.7,0.7c-0.4,0.2-0.8,0.4-1.3,0.6
			c-1.7,0.7-3.5,1.1-5.3,1.1c-0.3,0-0.6-0.1-0.8-0.2c-0.2-0.1-0.3-0.2-0.3-0.4C289.5,204.9,289.5,204.9,289.5,204.8z"/>
		<path class="st8" d="M286.7,205c0,0.5,0.4,0.8,0.9,0.9c0.6,0.1,1.3,0.1,1.9,0c0.4-0.1,0.7-0.2,0.9-0.5c0.1-0.3,0.2-0.7,0-1
			c-0.3-0.4-0.8-0.4-1.2-0.5c-0.5-0.1-0.9-0.1-1.4-0.1c-0.2,0-0.3,0-0.5,0c-0.4,0.1-0.6,0.5-0.6,0.9
			C286.7,204.9,286.7,205,286.7,205z"/>
		<g>
			<g>
				<path class="st8" d="M300.6,197.2c-1.6-0.9-2.9-0.2-2.9,1.7c0,1.9,1.3,4.1,2.9,5c1.6,0.9,2.9,0.2,2.9-1.7
					C303.5,200.4,302.2,198.2,300.6,197.2"/>
			</g>
			<polygon class="st8" points="299.7,205.9 302.5,204.2 298.5,197 295.6,198.7 			"/>
			<g>
				<path class="st8" d="M297.6,199c-1.6-0.9-2.9-0.2-2.9,1.7c0,1.9,1.3,4.1,2.9,5c1.6,0.9,2.9,0.2,2.9-1.7
					C300.5,202.2,299.2,199.9,297.6,199"/>
			</g>
			<g>
				<path class="st9" d="M297.6,199.2c-1.5-0.9-2.8-0.2-2.8,1.6c0,1.8,1.2,3.9,2.7,4.8c1.5,0.9,2.8,0.2,2.8-1.6
					C300.4,202.2,299.2,200,297.6,199.2"/>
			</g>
			<g>
				<path class="st25" d="M297.6,199.6c-1.2-0.8-2.3-0.1-2.3,1.4c0,1.5,1,3.3,2.2,4.1c1.2,0.8,2.2,0.1,2.2-1.4
					C299.9,202.2,298.9,200.4,297.6,199.6"/>
			</g>
		</g>
		<path class="st24" d="M313.4,236.8l0.5,5c-3.9-1.6-7.9-3.3-11.8-4.9c-1.8-0.8-3.6-1.5-5.3-2.5c-0.9-0.5-1.9-1-2.7-1.7
			c-1-0.9-1.2-1.8-1.4-3c-0.1-0.6-0.4-1.5-1.2-1.4c-0.5,0.1-0.7,0.8-1.1,0.7c-0.5-0.1-1-0.5-1.4-0.7c-0.4-0.3-0.9-0.6-1.4-0.8
			c-0.5-0.2-1.1-0.3-1.7-0.2c-0.1,0-0.3,0.1-0.4,0.2c-0.1,0.1-0.1,0.3,0,0.4c-0.4-0.1-0.9-0.1-1.3-0.1c-0.2,0-0.4,0.1-0.5,0.3
			c-0.1,0.1-0.2,0.4-0.1,0.6c-0.3-0.1-0.6-0.1-0.9,0c-0.3,0.1-0.6,0.3-0.7,0.5c-0.2,0.4,0.1,0.9,0.3,1.3c-0.2-0.1-0.4-0.1-0.5-0.1
			c-0.2,0.1-0.3,0.2-0.4,0.4c0,0.2,0,0.4,0.1,0.6c0.1,0.2,0.2,0.5,0.4,0.6c0.2,0.2,0.4,0.3,0.6,0.5c0.9,0.6,1.8,1.3,2.7,1.9
			c1.3,0.8,2.5,1.6,3.8,2.4c2.7,1.7,5.5,3.3,8,5.1c2.5,1.8,5.1,3.5,7.8,5.2c3.7,2.3,7.5,4.7,11.6,6.3c0.5,0.2,1.2,0.5,1.8,0.5
			c4.7,0,6.5-4.6,5.9-14.8L313.4,236.8z"/>
		<path class="st2" d="M312.6,240.7c0,0,4.2,2.5,12.4,2.6c0,0-0.2-19.9-5.3-24.4C314.7,214.4,312,226.8,312.6,240.7z"/>
		<path class="st9" d="M263,266.2c6.2-1.3,27.9,4.5,27.9,4.5l30.9-3.5c0,0,2.6,12.9-0.1,18.1c-2.7,5.2-10.4,8.2-17.7,10.5
			c-12.8,4-35.4-14.4-35.4-14.4c0,0.1,0,0.2,0.1,0.3l0,0l-2.9,1.7c-4.1,2.4-4.3,6.2-0.4,8.7l2.6,1.7v0c-0.9,5-2,11.1-1.1,20.5
			c0,0.3,0,0.7-0.2,0.9c-0.4,0.7-1.4,1.9-3.1,2.2c-2.9,0.5-5.1-0.5-6.1-1.1c-0.4-0.2-0.7-0.7-0.7-1.1c-0.2-3.8-1.3-22.4-1.6-29.1
			C254.8,280.6,254.4,268.1,263,266.2z"/>
		<path class="st9" d="M321.8,267.2c0,0,1,4.7,1.1,9.6l-15.1-8L321.8,267.2z"/>
		<path class="st22" d="M288.5,270.1l3.1-1.8c4.1-2.4,10.7-2.5,14.9-0.2l1.3,0.7l-16.9,1.9C290.9,270.7,290,270.5,288.5,270.1z"/>
		<g>
			<path class="st26" d="M268.6,281.6L268.6,281.6l-2.6,1.5c0,0,0,0,0,0c-0.1-0.8-0.3-1.6-0.4-2.4c-0.1-0.4-0.2-0.8,0.2-1.2
				c0.7-0.8,2.2,0.1,2.9,0.4c3.4,1.4,6.7,3,9.9,4.7c3.3,1.8,6.6,3.6,10.4,4.3c4,0.7,8.3,1,12.3,0.1c3.9-0.8,9.5-3.2,11.7-6.6
				c2.7-4.2,2.3-13.7,2.3-13.7c0.1-0.3,0.2-0.6,0.3-0.8l6.3-0.7c0,0,2.6,12.9-0.1,18.1c-2.7,5.2-10.4,8.2-17.7,10.5
				c-12.8,4-35.4-14.4-35.4-14.4C268.6,281.4,268.6,281.5,268.6,281.6z"/>
			<path class="st26" d="M263.6,303.3c0-4,0.9-7.7,1.7-11.4c0,0,0,0,0,0l2.6,1.7v0c-0.9,5-2,11.1-1.1,20.5c0,0.3,0,0.7-0.2,0.9
				c-0.4,0.7-1.4,1.9-3.1,2.2c-0.2,0-0.4,0-0.6,0.1c0.1-0.6,0.2-1.3,0.2-1.9C263.4,311.6,263.7,307.2,263.6,303.3z"/>
		</g>
		<path class="st3" d="M288.9,225.1c0,0,5-6.3,9.6-8.5c0,0,3.3-0.3,6.3-0.6c2.7-0.2,4.6-1.7,4.6-1.7s6.1,1.4,8.8,3.5
			c2.9,2.2,5.6,13,4.5,21.8c-1.1,8.8-0.4,21.1,0,24.3c0.8,6.3-5.1,12.1-13,12.6c-10.3,0.7-21.7-1.8-21.4-6.9
			C289.2,258.5,288.9,225.1,288.9,225.1z"/>
		<path class="st24" d="M284.1,249.9l-0.2,5.1c-3.9-1.6-7.9-3.3-11.8-4.9c-1.8-0.8-3.6-1.5-5.3-2.5c-0.9-0.5-1.9-1-2.7-1.7
			c-1-0.9-1.2-1.8-1.4-3c-0.1-0.6-0.4-1.5-1.2-1.4c-0.5,0.1-0.7,0.8-1.1,0.7c-0.5-0.1-1-0.5-1.4-0.7c-0.4-0.3-0.9-0.6-1.4-0.8
			c-0.5-0.2-1.1-0.3-1.7-0.2c-0.1,0-0.3,0.1-0.4,0.2c-0.1,0.1-0.1,0.3,0,0.4c-0.4-0.1-0.9-0.1-1.3-0.1c-0.2,0-0.4,0.1-0.5,0.3
			c-0.1,0.1-0.2,0.4-0.1,0.6c-0.3-0.1-0.6-0.1-0.9,0c-0.3,0.1-0.6,0.3-0.7,0.5c-0.2,0.4,0.1,0.9,0.3,1.3c-0.2-0.1-0.4-0.1-0.5-0.1
			c-0.2,0.1-0.3,0.2-0.4,0.4c0,0.2,0,0.4,0.1,0.6c0.1,0.2,0.2,0.5,0.4,0.6c0.2,0.2,0.4,0.3,0.6,0.5c0.9,0.6,1.8,1.3,2.7,1.9
			c1.3,0.8,2.5,1.6,3.8,2.4c2.7,1.7,5.5,3.3,8,5.1c2.5,1.8,5.1,3.5,7.8,5.2c3.7,2.3,7.5,4.7,11.6,6.3c0.5,0.2,1.2,0.5,1.8,0.5
			c4.7,0,6.7-5.2,6.1-15.3L284.1,249.9z"/>
		<path class="st2" d="M282.5,250.4c0,0,5.2,3.1,13.4,3.7c0,0,1.2-22.8-3.6-28.3C287.5,220.4,282.7,234.6,282.5,250.4z"/>
		<path class="st27" d="M340.6,235.4c-2-1.7-5.9-1.7-8.3-1.3c-3.9,0.5-7.4,3-10.9,4.7c-3.9,1.9-7.9,3.7-11.4,6.2
			c-3.4,2.4-6.5,5.6-8,9.6c-1.8,4.7-1.1,9.9-1.6,14.8c-0.5,5.3-0.4,10.8,0.4,16.1c0.3,2,0.9,4,2.2,5.5c1.9,2.2,5.2,2.6,7.7,1.1
			c2.2-1.3,3.6-3.8,5.2-5.7c7.9-9.3,15-19.7,19.6-31.1c1.9-4.8,4-9.9,4.5-15.1c0.2,0.2,0.5,0.2,0.8,0.1
			C342.8,239.1,342.1,236.6,340.6,235.4z"/>
		<g>
			<path class="st22" d="M336.5,236.4l-25.8,14.9c-3.3,1.9-6,6.6-6,10.4l0.1,27.2c0,3.8,2.7,5.4,6.1,3.4l25.8-14.9
				c3.3-1.9,6-6.6,6-10.4l-0.1-27.2C342.5,236,339.8,234.5,336.5,236.4"/>
		</g>
		<path class="st18" d="M328.4,301.2l-7.4,4.3l0.9-46c0-0.3,0.1-0.5,0.4-0.6l6.7-3.9c0.5-0.3,1.1,0.1,1.1,0.6v42.8
			C330,299.6,329.4,300.6,328.4,301.2z"/>
		<polygon class="st14" points="315.7,303.2 321,300.1 321.4,303.8 319.3,305.5 		"/>
		<path class="st17" d="M315.7,303.2l2.3,1.3c1.6,0.9,3,0.2,3-1.7l0.1-43.5c0-0.4,0.2-0.8,0.6-1l6.5-3.7c0.3-0.1,0.6-0.1,0.8,0
			l0.6,0.3c0,0-0.4-0.1-0.7,0l-6.4,3.8c-0.4,0.2-0.6,0.6-0.6,1l-0.1,43.5c0,2.4-1.7,3.4-3.8,2.2l-3.1-1.8L315.7,303.2z"/>
		<g>
			<polygon class="st14" points="283.3,304 283.9,303.8 284.7,285.5 282,285.2 			"/>
			<polygon class="st17" points="283.3,304 283.4,285 278,282.4 279.1,301.7 			"/>
			<path class="st17" d="M270.7,280.3v-1.6l0.6,0.2l0.8-1.8c0.1-0.1,0.2-0.3,0.4-0.4c0.5-0.3,1.4-0.3,1.9,0l13,7.5l4.8,1.6v1.5l0,0
				c0,0.2-0.2,0.4-0.4,0.5c-0.2,0.1-0.4,0.2-0.6,0.2l-5.5,0.8c-0.4,0.3-4.2-1.5-8.3-3.9C273.2,282.7,270.2,280.5,270.7,280.3z"/>
			<g>
				<path class="st18" d="M272.4,275.2c0.5-0.3,1.4-0.3,1.9,0l17.4,10.1c0.6,0.3,0.5,0.8,0,1.1c-0.2,0.1-0.4,0.2-0.6,0.2l-5.5,0.8
					c-0.4,0.3-4.2-1.5-8.3-3.9c-4.1-2.4-7.1-4.6-6.7-4.8l1.4-3.2C272.1,275.4,272.3,275.3,272.4,275.2"/>
			</g>
		</g>
		<path class="st2" d="M311.1,214.7l-1.8-2.6c0,0-4.6,2.3-11.1,1.9l-1.3,3.4C296.9,217.5,307,218.6,311.1,214.7z"/>
		<path class="st8" d="M301.8,200.3c0,0-1-7.5,2.2-11c3.3-3.5,9.4-5.1,11.2-3.6c0,0-0.7-2.1-3.4-3.3c0,0-12.9-3.9-13.5,15.6
			L301.8,200.3z"/>
	</g>
</g>
</svg>
