<?xml version="1.0" encoding="utf-8"?>
<!-- Generator: Adobe Illustrator 25.2.1, SVG Export Plug-In . SVG Version: 6.00 Build 0)  -->
<svg version="1.1" id="Layer_1" xmlns="http://www.w3.org/2000/svg" xmlns:xlink="http://www.w3.org/1999/xlink" x="0px" y="0px"
	 viewBox="0 0 60 60" style="enable-background:new 0 0 60 60;" xml:space="preserve">
<style type="text/css">
	.st0{fill:#0E3DF0;}
</style>
<path class="st0" d="M37.8,40.9c0-0.8-0.7-1.5-1.5-1.5H23.8c-0.8,0-1.5,0.7-1.5,1.5v3.8c0,0.8,0.7,1.5,1.5,1.5h12.5
	c0.8,0,1.5-0.7,1.5-1.5V40.9z M35.9,44.5H24.1v-3.2h11.8C35.9,41.3,35.9,44.5,35.9,44.5z"/>
<path class="st0" d="M1.9,31.8v17.1c0,2,1.6,3.7,3.7,3.7h48.8c2,0,3.7-1.6,3.7-3.7V31.8c0-0.7-0.2-1.3-0.5-1.9l-0.1-0.2l0,0
	l-8.1-16.1c-0.6-1.3-1.9-2-3.3-2h-1.7V9.9C44.4,9.4,44,9,43.5,9H16.6c-0.5,0-0.9,0.4-0.9,0.9v1.7H14c-1.4,0-2.7,0.8-3.3,2L2.6,29.7
	l0,0l-0.1,0.2C2.1,30.4,1.9,31.1,1.9,31.8z M44.3,13.7H46c0.6,0,1.2,0.3,1.4,0.9l6.9,13.5h-5v-4.3c0-0.5-0.4-0.9-0.9-0.9h-1.5v-6
	c0-0.5-0.4-0.9-0.9-0.9h-1.6L44.3,13.7L44.3,13.7z M47.5,24.8v3.3h-6c-0.9,0-1.8,0.5-2.1,1.4L37.8,33c0,0.1-0.1,0.2-0.2,0.2H22.5
	c-0.1,0-0.2-0.1-0.2-0.2l-1.6-3.5c-0.4-0.8-1.2-1.4-2.1-1.4h-6v-3.3H47.5z M17.5,10.8h24.9V16H17.5V10.8z M45,17.8v5.1H15v-5.1H45z
	 M5.8,27.8l6.7-13.3c0.3-0.5,0.8-0.9,1.4-0.9h1.7V16H14c-0.5,0-0.9,0.4-0.9,0.9v6h-1.5c-0.5,0-0.9,0.4-0.9,0.9v4.3h-5L5.8,27.8z
	 M4,31.8c0-0.9,0.7-1.6,1.6-1.6h12.9c0.1,0,0.2,0.1,0.2,0.2l1.6,3.5c0.4,0.8,1.2,1.4,2.1,1.4h15.1c0.9,0,1.8-0.5,2.1-1.4l1.6-3.5
	c0-0.1,0.1-0.2,0.2-0.2h12.9c0.9,0,1.6,0.7,1.6,1.6v17.1c0,0.9-0.7,1.6-1.6,1.6H5.6c-0.9,0-1.6-0.7-1.6-1.6V31.8z"/>
</svg>
