<?xml version="1.0" encoding="utf-8"?>
<!-- Generator: Adobe Illustrator 25.2.1, SVG Export Plug-In . SVG Version: 6.00 Build 0)  -->
<svg version="1.1" id="Layer_1" xmlns="http://www.w3.org/2000/svg" xmlns:xlink="http://www.w3.org/1999/xlink" x="0px" y="0px"
	 viewBox="0 0 60 60" style="enable-background:new 0 0 60 60;" xml:space="preserve">
<style type="text/css">
	.st0{fill:#0E3DF0;}
</style>
<path class="st0" d="M60,39.7c0-2.6-1.6-5-3.9-6l-0.4-0.2l0.2-0.3c0.5-0.9,0.9-2,0.9-3.2c0-3.4-2.7-6.2-6.2-6.2
	c-3.4,0-6.2,2.7-6.2,6.2c0,1.1,0.3,2.2,0.8,3.1l0.2,0.4l-0.3,0.2c-0.8,0.4-1.6,0.9-2.2,1.6l-0.4,0.5l-0.2-0.5
	c-0.9-2.6-2.9-4.7-5.5-5.7l-0.4-0.2l0.3-0.4c1-1.4,1.5-3.1,1.5-4.8c0-2.2-0.8-4.3-2.4-5.9c-1.6-1.6-3.7-2.5-6-2.5
	c-4.7,0-8.4,3.8-8.5,8.4c0,1.7,0.5,3.4,1.5,4.8l0.3,0.4l-0.4,0.2c-2.6,1-4.6,3-5.5,5.7l-0.2,0.5l-0.4-0.5c-0.5-0.6-1.3-1.1-2.2-1.6
	l-0.1-0.2l0.2-0.3c0.5-0.9,0.9-2,0.9-3.2c0-3.4-2.7-6.2-6.2-6.2c-3.4,0-6.2,2.7-6.2,6.2C3.2,31,3.5,32.1,4,33l0.2,0.4l-0.3,0.2
	C1.6,34.6,0,37,0,39.6v3.8c0,0.5,0.4,0.8,0.8,0.8h58.3c0.2,0,0.5-0.1,0.6-0.3c0.2-0.2,0.2-0.4,0.3-0.6V39.7z M9.2,25.5h0.2
	c2.5,0,4.4,2,4.4,4.5c0,1.2-0.5,2.3-1.3,3.1s-1.9,1.3-3.1,1.3c-2.5,0-4.4-2-4.4-4.4C5,27.6,6.9,25.6,9.2,25.5z M17.1,42.4v0.2H17
	l0,0H1.8v-2.9c0-2.2,1.6-4.2,3.7-4.7l0,0h0.2L5.8,35c2.2,1.6,5.1,1.6,7.2,0l0.1-0.1h0.2c2.2,0.5,3.6,2.6,3.6,4.7L17.1,42.4
	L17.1,42.4z M23.3,24.1c0-1.8,0.7-3.5,2-4.7c1.3-1.3,2.9-2,4.7-2s3.6,0.7,4.7,1.9c1.3,1.3,2,2.9,2,4.7s-0.7,3.6-2,4.7
	c-1.4,1.3-3,2-4.7,2C26.4,30.8,23.3,27.8,23.3,24.1z M41.3,42.6H18.8v-4.7c0-3.5,2.5-6.5,5.8-7.3h0.2l0.1,0.1c3,2.4,7.3,2.4,10.3,0
	l0.1-0.1h0.2c3.5,0.8,5.8,3.7,5.8,7.3V42.6z M47.5,26.9c0.8-0.8,1.9-1.4,3.2-1.4c1.2,0,2.3,0.5,3.1,1.3c0.8,0.8,1.3,1.9,1.3,3.1
	c0,1.2-0.5,2.3-1.3,3.1s-1.9,1.3-3.1,1.3c-2.5,0-4.4-2-4.4-4.4C46.2,28.8,46.7,27.7,47.5,26.9z M58.3,42.6H43v-2.9
	c0-2.2,1.6-4.2,3.7-4.7l0,0H47l0.1,0.1c2.2,1.6,5.1,1.6,7.2,0l0.1-0.1h0.2c2.2,0.5,3.6,2.6,3.7,4.7C58.3,39.7,58.3,42.6,58.3,42.6z"
	/>
</svg>
