<?xml version="1.0" encoding="utf-8"?>
<!-- Generator: Adobe Illustrator 25.2.1, SVG Export Plug-In . SVG Version: 6.00 Build 0)  -->
<svg version="1.1" id="Layer_1" xmlns="http://www.w3.org/2000/svg" xmlns:xlink="http://www.w3.org/1999/xlink" x="0px" y="0px"
	 viewBox="0 0 60 60" style="enable-background:new 0 0 60 60;" xml:space="preserve">
<style type="text/css">
	.st0{fill:#0E3DF0;}
</style>
<path class="st0" d="M19.5,56.6h25.6c0.3,0,0.5-0.1,0.6-0.3l7.8-7.8c0.2-0.2,0.3-0.4,0.3-0.6V6.4c0-1.7-1.4-3-3-3H19.5
	c-1.7,0-3,1.4-3,3v7.4h-0.2c-6,1.7-10.2,7.3-10.2,13.5S10.3,39,16.3,40.7h0.2v12.7C16.5,55.2,17.8,56.6,19.5,56.6z M46,53.5V50
	c0-0.6,0.5-1.2,1.2-1.2h3.5L46,53.5z M18.3,6.4c0-0.6,0.5-1.2,1.2-1.2h31.3c0.6,0,1.2,0.5,1.2,1.2v3.7H18.3V6.4z M18.3,11.9H52v35
	h-4.8c-1.7,0-3,1.4-3,3v4.8H19.5c-0.6,0-1.2-0.5-1.2-1.2V41.2h0.3c4.6,0.5,9.1-1.3,12.1-4.7l0.1-0.1h7.1c0.5,0,0.9-0.4,0.9-0.9
	s-0.4-0.9-0.9-0.9h-5.8l0.2-0.4c1-1.8,1.6-3.7,1.8-5.7v-0.2h3.8c0.5,0,0.9-0.4,0.9-0.9s-0.4-0.9-0.9-0.9h-3.8v-0.2
	c-0.1-2-0.7-3.9-1.7-5.7l-0.2-0.4h5.6c0.5,0,0.9-0.4,0.9-0.9s-0.4-0.9-0.9-0.9h-7l-0.1-0.1c-3-3.6-7.6-5.4-12.3-4.9h-0.3
	C18.3,13.4,18.3,11.9,18.3,11.9z M8,27.4c0-6.7,5.4-12.2,12.2-12.2s12.2,5.4,12.2,12.2S27,39.6,20.2,39.6S8,34.1,8,27.4z"/>
<path class="st0" d="M46.2,18.5h-3.8c-0.5,0-0.9,0.4-0.9,0.9s0.4,0.9,0.9,0.9h3.8c0.5,0,0.9-0.4,0.9-0.9
	C47.1,18.8,46.7,18.5,46.2,18.5z"/>
<path class="st0" d="M46.2,26.6h-3.8c-0.5,0-0.9,0.4-0.9,0.9s0.4,0.9,0.9,0.9h3.8c0.5,0,0.9-0.4,0.9-0.9S46.7,26.6,46.2,26.6z"/>
<path class="st0" d="M46.2,34.6h-3.8c-0.5,0-0.9,0.4-0.9,0.9s0.4,0.9,0.9,0.9h3.8c0.5,0,0.9-0.4,0.9-0.9S46.7,34.6,46.2,34.6z"/>
<path class="st0" d="M46.2,42.8H35.5c-0.5,0-0.9,0.4-0.9,0.9c0,0.5,0.4,0.9,0.9,0.9h10.7c0.5,0,0.9-0.4,0.9-0.9
	C47.1,43.2,46.7,42.8,46.2,42.8z"/>
<path class="st0" d="M25.1,24.3c-0.4-0.4-1.1-0.4-1.5,0l-4.5,4.5l-2.3-2.3c-0.4-0.4-1.1-0.4-1.5,0s-0.4,1.1,0,1.5l3.1,3.1
	c0.2,0.2,0.5,0.3,0.8,0.3l0,0c0.3,0,0.6-0.1,0.8-0.3l5.2-5.2c0.2-0.2,0.3-0.5,0.3-0.8C25.4,24.8,25.3,24.5,25.1,24.3z"/>
</svg>
