<?xml version="1.0" encoding="utf-8"?>
<!-- Generator: Adobe Illustrator 25.2.1, SVG Export Plug-In . SVG Version: 6.00 Build 0)  -->
<svg version="1.1" id="Capa_1" xmlns="http://www.w3.org/2000/svg" xmlns:xlink="http://www.w3.org/1999/xlink" x="0px" y="0px"
	 viewBox="0 0 60 60" style="enable-background:new 0 0 60 60;" xml:space="preserve">
<style type="text/css">
	.st0{fill:#0E3DF0;}
</style>
<path class="st0" d="M20.4,22.1H9.3c-0.5,0-0.9,0.4-0.9,0.9s0.4,0.9,0.9,0.9h11.1c0.5,0,0.9-0.4,0.9-0.9
	C21.4,22.5,20.9,22.1,20.4,22.1z"/>
<path class="st0" d="M20.4,15.1H9.3c-0.5,0-0.9,0.4-0.9,0.9s0.4,0.9,0.9,0.9h11.1c0.5,0,0.9-0.4,0.9-0.9
	C21.4,15.5,20.9,15.1,20.4,15.1z"/>
<path class="st0" d="M20.4,29.1H9.3c-0.5,0-0.9,0.4-0.9,0.9s0.4,0.9,0.9,0.9h11.1c0.5,0,0.9-0.4,0.9-0.9S20.9,29.1,20.4,29.1z"/>
<path class="st0" d="M20.4,36.1H9.3c-0.5,0-0.9,0.4-0.9,0.9s0.4,0.9,0.9,0.9h11.1c0.5,0,0.9-0.4,0.9-0.9S20.9,36.1,20.4,36.1z"/>
<path class="st0" d="M20.4,43.1H9.3c-0.5,0-0.9,0.4-0.9,0.9s0.4,0.9,0.9,0.9h11.1c0.5,0,0.9-0.4,0.9-0.9S20.9,43.1,20.4,43.1z"/>
<path class="st0" d="M47.1,46.2c0.1,0.1,0.6,0.2,1-0.2l11.1-10.1c0.2-0.2,0.3-0.4,0.3-0.7s-0.1-0.5-0.3-0.7l-11.1-10
	c-0.4-0.4-0.9-0.2-1-0.2c-0.1,0.1-0.6,0.3-0.6,0.8v4.5h-5.9V16.3c0-0.2-0.1-0.5-0.3-0.7L29.2,4.5c-0.2-0.2-0.4-0.3-0.7-0.3l0,0H2.3
	c-0.5,0-0.9,0.4-0.9,0.9v49.7c0,0.5,0.4,0.9,0.9,0.9h37.4c0.5,0,0.9-0.4,0.9-0.9v-14h5.9v4.5C46.6,45.9,47,46.1,47.1,46.2z
	 M29.5,7.4l8,8h-8V7.4z M38.8,53.9H3.3V6.1h24.4v10.3c0,0.5,0.4,0.9,0.9,0.9h10.3v12.4h-7.8c-0.5,0-0.9,0.4-0.9,0.9v9.3
	c0,0.5,0.4,0.9,0.9,0.9h7.8L38.8,53.9L38.8,53.9z M32,39v-7.5h15.5c0.5,0,0.9-0.4,0.9-0.9v-3.3l8.8,8l-8.8,8v-3.4
	c0-0.5-0.4-0.9-0.9-0.9C47.5,39,32,39,32,39z"/>
</svg>
