<?xml version="1.0" encoding="utf-8"?>
<!-- Generator: Adobe Illustrator 25.2.1, SVG Export Plug-In . SVG Version: 6.00 Build 0)  -->
<svg version="1.1" id="Layer_1" xmlns="http://www.w3.org/2000/svg" xmlns:xlink="http://www.w3.org/1999/xlink" x="0px" y="0px"
	 viewBox="0 0 60 60" style="enable-background:new 0 0 60 60;" xml:space="preserve">
<style type="text/css">
	.st0{fill:#0E3DF0;}
</style>
<path class="st0" d="M35.6,26.6c-4.9,0-9,4-9,9c0,4.9,4,9,9,9s9-4,9-9S40.5,26.6,35.6,26.6z M35.6,42.7c-3.9,0-7.2-3.2-7.2-7.2
	c0-3.9,3.2-7.2,7.2-7.2s7.2,3.2,7.2,7.2C42.8,39.5,39.5,42.7,35.6,42.7z"/>
<path class="st0" d="M6.6,3.6c-1.6,0-3,1.3-3,3v46.7c0,1.6,1.3,3,3,3h35.6c1.6,0,3-1.3,3-3V50l5.4,5.4c0.6,0.6,1.5,1,2.4,1
	s1.8-0.4,2.4-1c1.3-1.3,1.3-3.5,0-4.8l0,0l-8.3-8.3v-0.1c1.2-2,1.8-4.3,1.8-6.6c0-3.4-1.3-6.7-3.7-9.2l0,0V14.7
	c0-0.2-0.1-0.5-0.3-0.6L34.8,3.9c-0.2-0.2-0.4-0.3-0.6-0.3H6.6z M54.1,51.9c0.6,0.6,0.6,1.6,0,2.2l0,0c-0.3,0.3-0.7,0.5-1.1,0.5
	s-0.8-0.2-1.1-0.5l-8-8L44,46c0.7-0.6,1.4-1.3,2-2l0.1-0.1l0.1,0.1L54.1,51.9z M47.1,35.6c0,6.3-5.2,11.5-11.5,11.5
	s-11.5-5.2-11.5-11.5s5.2-11.5,11.5-11.5S47.1,29.2,47.1,35.6z M35.1,6.8l7,7h-5.9c-0.6,0-1.2-0.5-1.2-1.2L35.1,6.8L35.1,6.8z
	 M36.2,15.6h7.2v9.2l-0.2-0.1c-2.2-1.6-4.9-2.4-7.6-2.4c-7.3,0-13.3,6-13.3,13.3c0,1.4,0.2,2.8,0.7,4.1l0.1,0.2H10.2
	c-0.5,0-0.9,0.4-0.9,0.9s0.4,0.9,0.9,0.9h13.2c0.1,0,0.2,0,0.2,0h0.1v0.1C26,46.2,30.5,49,35.5,49c2.3,0,4.6-0.6,6.6-1.8h0.1
	l1.1,1.1v5.2c0,0.6-0.5,1.2-1.2,1.2H6.6c-0.6,0-1.2-0.5-1.2-1.2V6.6c0-0.6,0.5-1.2,1.2-1.2h26.6v7.2C33.2,14.3,34.6,15.6,36.2,15.6z
	"/>
<path class="st0" d="M19.5,32.7h-9.3c-0.5,0-0.9,0.4-0.9,0.9s0.4,0.9,0.9,0.9h9.3c0.5,0,0.9-0.4,0.9-0.9S20,32.7,19.5,32.7z"/>
<path class="st0" d="M20.1,25.5h-9.9c-0.5,0-0.9,0.4-0.9,0.9s0.4,0.9,0.9,0.9h9.9c0.5,0,0.9-0.4,0.9-0.9S20.6,25.5,20.1,25.5z"/>
<path class="st0" d="M23.2,47c-0.2,0-0.5,0.1-0.6,0.3c-0.2,0.2-0.3,0.4-0.3,0.6s0.1,0.5,0.3,0.6c0.3,0.3,0.9,0.3,1.3,0
	c0.2-0.2,0.3-0.4,0.3-0.6s-0.1-0.5-0.3-0.6C23.7,47.1,23.4,47,23.2,47z"/>
<path class="st0" d="M18.9,47h-8.8c-0.5,0-0.9,0.4-0.9,0.9s0.4,0.9,0.9,0.9h8.8c0.5,0,0.9-0.4,0.9-0.9S19.4,47,18.9,47z"/>
<path class="st0" d="M10.8,18.6c-0.2-0.2-0.4-0.3-0.6-0.3c-0.2,0-0.5,0.1-0.6,0.3c-0.2,0.2-0.3,0.4-0.3,0.6c0,0.2,0.1,0.5,0.3,0.6
	c0.3,0.3,0.9,0.3,1.3,0c0.2-0.2,0.3-0.4,0.3-0.6C11.1,19,11,18.8,10.8,18.6z"/>
<path class="st0" d="M30,18.3H14.6c-0.5,0-0.9,0.4-0.9,0.9s0.4,0.9,0.9,0.9h15.5c0.5,0,0.9-0.4,0.9-0.9S30.5,18.3,30,18.3z"/>
<path class="st0" d="M30,11.2H10.2c-0.5,0-0.9,0.4-0.9,0.9c0,0.5,0.4,0.9,0.9,0.9H30c0.5,0,0.9-0.4,0.9-0.9S30.5,11.2,30,11.2z"/>
</svg>
