<?xml version="1.0" encoding="utf-8"?>
<!-- Generator: Adobe Illustrator 25.2.1, SVG Export Plug-In . SVG Version: 6.00 Build 0)  -->
<svg version="1.1" id="Layer_1" xmlns="http://www.w3.org/2000/svg" xmlns:xlink="http://www.w3.org/1999/xlink" x="0px" y="0px"
	 viewBox="0 0 60 60" style="enable-background:new 0 0 60 60;" xml:space="preserve">
<style type="text/css">
	.st0{fill:#0E3DF0;}
</style>
<g>
	<path class="st0" d="M55,13.7L45.3,4c-0.2-0.2-0.4-0.3-0.7-0.3h-22c-1.5,0-2.7,1.2-2.7,2.7v5.3c-4.9,0.2-9.5,2.4-12.8,6
		c-3.3,3.7-5,8.4-4.8,13.3c0.2,4.6,2.1,9,5.4,12.2c3.3,3.3,7.6,5.2,12.2,5.4V54c0,1.5,1.2,2.7,2.7,2.7h30c1.5,0,2.7-1.2,2.7-2.7
		V14.4C55.2,14.1,55.1,13.9,55,13.7z M21.7,48.7c9.9-0.5,17.6-8.6,17.6-18.5c0-0.5-0.4-0.9-0.9-0.9H21.7V6.4c0-0.5,0.4-0.8,0.8-0.8
		h21.1v7c0,1.5,1.2,2.7,2.7,2.7h7V54c0,0.5-0.4,0.8-0.8,0.8h-30c-0.5,0-0.8-0.4-0.8-0.8V48.7z M32,42.6c-3.1,2.8-7,4.3-11.2,4.3
		c-0.3,0-0.6,0-0.9,0c-3.8-0.2-7.5-1.7-10.3-4.3l11.5-11.5h16.3C37.2,35.6,35.3,39.7,32,42.6z M45.5,12.6V6.9l6.6,6.6h-5.7
		C45.9,13.4,45.5,13.1,45.5,12.6z M8.4,41.4c-2.8-3.1-4.3-7-4.3-11.1c0-8.9,6.9-16.2,15.8-16.7v16.3L8.4,41.4z"/>
	<path class="st0" d="M42.9,26.7c0-5-1.9-9.6-5.4-13.1s-8.2-5.4-13.1-5.4c-0.5,0-0.9,0.4-0.9,0.9v17.6c0,0.5,0.4,0.9,0.9,0.9H42
		C42.5,27.6,42.9,27.2,42.9,26.7z M41,25.8H25.2V10C33.8,10.5,40.5,17.3,41,25.8z"/>
	<path class="st0" d="M45.1,40.8h6.1c0.3,0,0.5-0.2,0.5-0.5v-0.8c0-0.3-0.2-0.5-0.5-0.5h-6.1c-0.3,0-0.5,0.2-0.5,0.5v0.8
		C44.6,40.6,44.8,40.8,45.1,40.8z"/>
	<path class="st0" d="M45.1,46.1h6.1c0.3,0,0.5-0.2,0.5-0.5v-0.8c0-0.3-0.2-0.5-0.5-0.5h-6.1c-0.3,0-0.5,0.2-0.5,0.5v0.8
		C44.6,45.9,44.8,46.1,45.1,46.1z"/>
	<path class="st0" d="M45.1,51.4h6.1c0.3,0,0.5-0.2,0.5-0.5v-0.8c0-0.3-0.2-0.5-0.5-0.5h-6.1c-0.3,0-0.5,0.2-0.5,0.5v0.8
		C44.6,51.2,44.8,51.4,45.1,51.4z"/>
</g>
</svg>
