<?xml version="1.0" encoding="utf-8"?>
<!-- Generator: Adobe Illustrator 25.2.1, SVG Export Plug-In . SVG Version: 6.00 Build 0)  -->
<svg version="1.1" id="Layer_1" xmlns="http://www.w3.org/2000/svg" xmlns:xlink="http://www.w3.org/1999/xlink" x="0px" y="0px"
	 viewBox="0 0 60 60" style="enable-background:new 0 0 60 60;" xml:space="preserve">
<style type="text/css">
	.st0{fill:#0E3DF0;}
</style>
<g>
	<path class="st0" d="M51.8,29.7c0.5,0,0.9-0.4,0.9-0.9V14.6c0,0,0,0,0-0.1l0,0c0-0.1,0-0.2-0.1-0.3c0,0,0-0.1-0.1-0.1L44.9,3.9
		c-0.2-0.2-0.4-0.4-0.7-0.4h-32c-0.3,0-0.6,0.2-0.8,0.4L4.3,14.1c-0.1,0.2-0.2,0.3-0.2,0.5v41c0,0.5,0.4,0.9,0.9,0.9h23.3
		c0.5,0,0.9-0.4,0.9-0.9s-0.4-0.9-0.9-0.9H6.1V15.6h44.8v13.2C50.9,29.3,51.3,29.7,51.8,29.7z M6.9,13.7L7,13.6l5.7-8.3h31l0,0
		l6.2,8.4C49.9,13.7,6.9,13.7,6.9,13.7z"/>
	<path class="st0" d="M42.1,32.4c-5.1,0-9.3,4.2-9.3,9.3S37,51,42.1,51c2,0,3.9-0.6,5.5-1.8l0.4-0.3l6.1,6.9
		c0.2,0.2,0.4,0.3,0.7,0.3c0.2,0,0.5-0.1,0.6-0.2c0.4-0.4,0.4-0.9,0.1-1.3l-6.2-7l0.2-0.3c1.2-1.6,1.8-3.5,1.8-5.6
		C51.4,36.6,47.3,32.4,42.1,32.4z M47.5,46.8L47.5,46.8c-0.1,0.1-0.1,0.1-0.2,0.2l0,0c-1.4,1.4-3.3,2.1-5.2,2.1
		c-4.1,0-7.4-3.3-7.4-7.4s3.3-7.4,7.4-7.4s7.4,3.3,7.4,7.4C49.6,43.6,48.9,45.4,47.5,46.8z"/>
	<path class="st0" d="M28.6,41.6H10.8c-0.5,0-0.9,0.4-0.9,0.9s0.4,0.9,0.9,0.9h17.8c0.5,0,0.9-0.4,0.9-0.9S29.1,41.6,28.6,41.6z"/>
	<path class="st0" d="M28.1,22.5L17.4,33.3l-0.1-0.1l-6-6c-0.2-0.2-0.4-0.3-0.7-0.3c-0.2,0-0.5,0.1-0.7,0.3c-0.4,0.4-0.4,0.9,0,1.3
		l6.7,6.7c0.2,0.2,0.4,0.3,0.6,0.3l0,0c0.3,0,0.5-0.1,0.7-0.3l11.4-11.4c0.4-0.4,0.4-0.9,0-1.3C29,22.2,28.5,22.2,28.1,22.5z"/>
</g>
</svg>
