<?xml version="1.0" encoding="utf-8"?>
<!-- Generator: Adobe Illustrator 25.2.1, SVG Export Plug-In . SVG Version: 6.00 Build 0)  -->
<svg version="1.1" id="Capa_1" xmlns="http://www.w3.org/2000/svg" xmlns:xlink="http://www.w3.org/1999/xlink" x="0px" y="0px"
	 viewBox="0 0 60 60" style="enable-background:new 0 0 60 60;" xml:space="preserve">
<style type="text/css">
	.st0{fill:#0E3DF0;}
</style>
<path class="st0" d="M48.2,54.9h3.2c2.2,0,4.1-1.8,4.1-4v-0.1V18.7c0-1.1-0.4-2.1-1.2-2.9s-1.8-1.2-2.9-1.2h-3l2-2
	c1.2-1.2,1.1-3.1,0-4.2l-1.5-1.5c-1.2-1.1-3.1-1.1-4.2,0L37,14.6H11.8c-1.7,0-3,1.4-3,3v7.9l-4,4c-0.4,0.4-0.4,0.9,0,1.3l4,4v10.6
	c0,1.7,1.4,3,3,3h10.6l8.3,8.3c0.3,0.3,0.9,0.3,1.3,0l6.1-6.1c0.4-0.4,0.4-0.9,0-1.3l-0.9-0.9h10v5.5C47.3,54.5,47.7,54.9,48.2,54.9
	z M51.4,53.1h-2.3v-4.6h2.3c1.3,0,2.3,1,2.3,2.3C53.7,52.1,52.6,53.1,51.4,53.1z M45.9,8.2c0.5-0.4,1.2-0.4,1.7,0l1.5,1.5
	c0.5,0.5,0.5,1.2,0,1.7l-2.3,2.3l-3.1-3.1L45.9,8.2z M42.3,11.8l3.1,3.1l-12,12l-3.1-3.1L42.3,11.8z M31.8,27.9l-3.5,1.2l1.2-3.5
	L31.8,27.9z M11.8,46.7c-0.7,0-1.2-0.6-1.2-1.2v-8.8l10,10H11.8z M31.4,54.9L6.7,30.2l4.8-4.8l3.1,3.1l-1.9,1.9
	c-0.2,0.2-0.2,0.6,0,0.8l0.5,0.5c0.2,0.2,0.6,0.2,0.8,0l1.9-1.9l3,3L17,34.7c-0.1,0.1-0.2,0.3-0.2,0.4s0.1,0.3,0.2,0.4l0.5,0.5
	c0.2,0.2,0.6,0.2,0.8,0l1.9-1.9l3,3l-1.9,1.8c-0.1,0.1-0.2,0.3-0.2,0.4c0,0.2,0.1,0.3,0.2,0.4l0.5,0.5c0.2,0.2,0.6,0.2,0.8,0
	l1.9-1.9l3,3l-1.9,1.9c-0.1,0.1-0.2,0.3-0.2,0.4c0,0.2,0.1,0.3,0.2,0.4l0.5,0.5c0.2,0.2,0.6,0.2,0.8,0l1.9-1.9l3,3l-1.9,1.9
	c-0.1,0.1-0.2,0.3-0.2,0.4c0,0.2,0.1,0.3,0.2,0.4l0.5,0.5c0.2,0.2,0.6,0.2,0.8,0l1.9-1.9l3.1,3.1L31.4,54.9z M35.4,46.7L12.2,23.4
	c-0.4-0.4-0.9-0.4-1.3,0l-0.3,0.3v-0.4v-5.7c0-0.7,0.6-1.2,1.2-1.2h23.3l-6.8,6.8c-0.1,0.1-0.2,0.2-0.2,0.4v0.1l0,0l-2.2,6.5
	c0,0.1,0,0.2,0,0.3c0,0.2,0.1,0.5,0.3,0.6c0.2,0.2,0.4,0.3,0.6,0.3l0,0c0.1,0,0.1,0,0.1,0h14.7c0.3,0,0.5-0.2,0.5-0.5v-0.8
	c0-0.3-0.2-0.5-0.5-0.5h-9.2l1.3-0.5c0.2-0.1,0.3-0.1,0.4-0.2l12.5-12.5h4.8c1.3,0,2.3,1,2.3,2.3v28.7l-0.2-0.1
	c-0.6-0.4-1.3-0.6-2.1-0.6C51.4,46.7,35.4,46.7,35.4,46.7z"/>
<path class="st0" d="M46.4,29.6h-0.8c-0.3,0-0.5,0.2-0.5,0.5v0.8c0,0.3,0.2,0.5,0.5,0.5h0.8c0.3,0,0.5-0.2,0.5-0.5v-0.8
	C46.9,29.8,46.7,29.6,46.4,29.6z"/>
<path class="st0" d="M50.7,29.6h-0.8c-0.3,0-0.5,0.2-0.5,0.5v0.8c0,0.3,0.2,0.5,0.5,0.5h0.8c0.3,0,0.5-0.2,0.5-0.5v-0.8
	C51.2,29.8,51,29.6,50.7,29.6z"/>
</svg>
